<mxfile host="drawio-plugin" modified="2024-07-30T12:09:40.861Z" agent="Mozilla/5.0 (Macintosh; Intel Mac OS X 10_15_7) AppleWebKit/537.36 (KHTML, like Gecko) Chrome/122.0.0.0 Safari/537.36" version="22.1.22" etag="i2KyJsTe7IBqrAtWXctA" type="embed">
  <diagram id="UcHr_o_ehHl4W-lli1Kk" name="Page-1">
    <mxGraphModel dx="876" dy="353" grid="1" gridSize="10" guides="1" tooltips="1" connect="1" arrows="1" fold="1" page="1" pageScale="1" pageWidth="850" pageHeight="1100" math="0" shadow="0">
      <root>
        <mxCell id="0" />
        <mxCell id="1" parent="0" />
        <mxCell id="2" value="" style="shape=image;verticalLabelPosition=bottom;labelBackgroundColor=default;verticalAlign=top;aspect=fixed;imageAspect=0;image=data:image/png,iVBORw0KGgoAAAANSUhEUgAABLAAAAJpCAYAAAC9wMsSAAAAAXNSR0IArs4c6QAAIABJREFUeF7svQd4HuWZv/ub8jVV27ItuYEpNhhTg8E2CQGSJZQACYGELAklm7PpIf8919lOdvdsvbZkrz3J/yQhZE8KnaUEQ0IzzTRTjI2JjY1xtyVbXV8vU871vO+M9FmW3CWN7N8kH7Kk+eZ9535H883c8zzPa/i+74MLCZAACZAACZAACZAACZAACZAACZAACZAACUSUgEGBFdGRYbdIgARIgARIgARIgARIgARIgARIgARIgAQUAQosHggkQAIkQAIkQAIkQAIkQAIkQAIkQAIkQAKRJkCBFenhYedIgARIgARIgARIgARIgARIgARIgARIgAQosHgMkAAJkAAJkAAJkAAJkAAJkAAJkAAJkAAJRJoABVakh4edIwESIAESIAESIAESIAESIAESIAESIAESoMDiMUACJEACJEACJEACJEACJEACJEACJEACJBBpAhRYkR4edo4ESIAESIAESIAESIAESIAESIAESIAESIACi8cACZAACZAACZAACZAACZAACZAACZAACZBApAlQYEV6eNg5EiABEiABEiABEiABEiABEiABEiABEiABCiweAyRAAiRAAiRAAiRAAiRAAiRAAiRAAiRAApEmQIEV6eFh50iABEiABEiABEiABEiABEiABEiABEiABCiweAyQAAmQAAmQAAmQAAmQAAmQQGQI+JHpCTtCAiQgBAxiiAgBCqyIDAS7QQIkQAIkQAIkQAIkQAIkcKwToLw61o8A7n9UCVBiRWFkKLCiMArsAwmQAAmQAAmQAAmQAAmQwKgSEFUUrVtSyqtRPQDYGAkcMQLROpMcsd2K4IYosCI4KOwSCZAACZAACZAACZAACZDAyBKgwBpZvtw6CRx9BCiqxnpMKbDGegTYPgmQAAmQAAmQAAmQAAmQwKgTGCywwvgn3qKO+lCwQRIYFwSGi5HkOWP0ho8Ca/RYsyUSIAESIAESIAESIAESIIGIEoheRFZEQbFbJHAsEuAJIhKjToEViWFgJ0iABEiABEiABEiABEiABMaCwF73pfIDlqMai6FgmyQQTQKDwzMHnx9MwB8mDIvRWUd2SCmwjixPbo0ESIAESIAESIAESIAESGC8EpAbUxeAQ4k1XoeQ/SaBESUwWF6JoYoBsEe0VW48IECBxUOBBEiABEiABEiABEiABEiABILIK7e3hF0vr4JfqowSE8ZojBJoNkMCh0dgUJiVnDI800epKYGTPnY2rDgt1uEB3v+7KbD2z4hrkAAJkAAJkAAJkAAJkAAJHO0EAoFV2d6HDX//a/jpHMwRTyUUeUWBdbQfWty/8U1A/YUqeWXskV3sGkDJ8tF9ci0u/ss/Qqw2yT/nER5qCqwRBszNkwAJkAAJkAAJkAAJkAAJjAMCKpwCcLf0Yfff3AezN8+soHEwbOwiCYw4AV97KcM3lMcKA7EcA8hZHtpOrcXC229FrI4Ca6THggJrpAlz+yRAAiRAAiRAAiRAAiRAAtEnEAqszRn0fP9emL0F2CMegRV9LOwhCRzrBIxAYIWng1BgVQwgG/PQOq8WC26/hQJrFA4UCqxRgMwmSIAESIAESIAESIAESIAEIk5gkMCyeguIeRHvM7tHAiQwagQkCqv6lFAxgVzMww4KrNEbA9/3+Vxh1HCzIRIgARIgARIgARIgARIggUgSGCSwbInAosCK5FCxUyQw2gTMoMGgVJ76LhRY2ymwRm04GIE1aqjZEAmQAAmQAAmQAAmQAAmQQGQJ7CGw7oMtNbAosCI7XOwYCYwmgaEElmPqFMIwAstmDawRHxIKrBFHzAZIgARIgARIgARIgARIgAQiT6BKYPV+/z5YFFiRHzJ2kARGi0C1wArblAgsCqzRGgHdDgXW6PJmayRAAiRAAiRAAiRAAiRAAlEkQIEVxVFhn0ggEgQYgRWJYaDAisYwsBckQAIkQAIkQAIkQAIkQAJjSoACa0zxs3ESiDKBfQksqYF13u23gCmEIz+CjMAaecZsgQRIgARIgARIgARIgARIIOoEKLCiPkLsHwmMGQGZgVBeg4u4V6cQxlgDa8THhwJrxBGzARIgARIgARIgARIgARIggcgToMCK/BCxgyQwVgREXoWLnCpkGVwDiwJr5EeHAmvkGbMFEiABEiABEiABEiABEiCBqBOgwIr6CLF/JDBmBCiwxgz9Hg1TYEVjHNgLEiABEiABEiABEiABEiCBsSRAgTWW9Nk2CUSaAAVWNIaHAisa48BekAAJkAAJkAAJkAAJkAAJjCUBCqyxpM+2x5JAWNxpLPsQ8bYpsKIxQBRY0RgH9oIESIAESIAESIAESIAESGAsCURYYO3hF6q+0YWl9a21rwrzGPB9X/4LBNOmyffyK8OovgWXX3r7pC3rh9tU5atVu27wnsHGY2DbA7O16XYHloF1woLY3qA1dCNmsEee3o/99FTvlvRV9qd6H3XLQ7kZVYg7WNXwh3rXvg9EIRzug2I/aHW1bf2fqh7ptQyY8PfDPtymbGKgf0J2oIT44TqnPQqSGwYMPdi6j+qA0f8evG+DCe/1e3+A7f7/nIOGZBD7NzR4i/vfymisQYE1GpT33wYF1v4ZcQ0SIAESIAESIAESIAESIIGjnUBEBZZSOiKhDK09lFgKVYhvQAscU7ul4N5f1jQMH75pwHEqME3AMA34ShSIILIDLTSUxAq0mKxrGPB8A57nwbRMeG4FhmnCMuTfjvZasvEqdWSKO/MBz5CXq7rkKUFiaqcmfQ7FkvQx7LOIDxFDpqU1lu+pl2zHDfzZ3npKKxbZX08ElpJGQf99A6ahhZtnSpuy75qhNOnCUzwsaSvAUC2l9JZFNgWL78P0TfUe14J6n1Ula2QT0le9yBjJfviwfM1AXqYnHAy4ql9Dixrpp2kYcAxP9kqxVH33rH6PKIJJfu6a1Vupnh9vYFyr1WK19JLRcISDjI0cH44LU/4ho+D66riSb4M/i0AtelpuhUgC76Q1XWi8tLgMdaL0XfdmkOSUY8OUdmS/LBier7btww12aujRHqvTEAXWWJHfs10KrGiMA3tBAiRAAiRAAiRAAiRAAiQwlgQiLLBEAfTrCRFY4hlELjlyx+/DtmMwHUtZA4m48gxHSRKRIKHMUopBRAFsGH4MpkgukQV7LVpGiAuS37oihgwDpm3BK1dgeVD/Frnh+T5c1YZSaCqKR8SKLAqnKa2H4TxaIlmB5Qk0k44M88NoLy2rZBXTFPkj+yJthFpqiO4qmeMBnmgS2T8RdFqS+Yaj2hdJo/rkiQgMBJZEqplCw1SCUMVGBWJIry36KZCFqn0Dlm/AMYGyKSLHVyyUQBMRVxVEpMWXpZkoijJOFuLyM89UY6MjxoagL1LNtFDwSnBNT4kywxM+FizDgh0cCNJHJQmrNhGqouqfDiWw1H55gGsbKCkv5sH0fJgxWx1PvuMiJiyCjYuAFFkn46GIKHGnj5FwfOV7LQcDSRg03C/N1EGrFzUcSuK5arxEDFrye3XshHtEgTWWp8Ootk2BFdWRYb9IgARIgARIgARIgARIgARGj0AEBdbALby+qZf/OqaHitz4pxLwTBNexUPCjCFe9GE6Er0DFFFBJQGgNoaKWAjfheG6MEuA6QCWl4DliWIZSmCJVvDhWga8VAxezIRTcRATSVaswCqLfNFiqZww4MdsFQkkQkwkR6g0woAbJTWU6NBqSQSOqAxZ1/YASyRcRQSUD9c04CYsVJIxVLxKkLJYldo2lPABkHQBq+jCdGTbWpk4hg8nBXgxS7Ut/w9jocRXyUsijkzXg1d2lESJyUv6JM5uqHREz0PZBopJE7DNIPpNlI3OQ9yzp0E0U/BTib5KVkzEKuLaXCX/qqOZwl1TIswwkDVKQI2FeCyu+ioqK+lbiKXL8Lzh0uzC+LI9f6/TFmXxVdSVHDcix0o2kPEc1DbUIp6wkWqsheM4KKZzMEoVmIUKrIqIRBO2byDmieTTejAUjUqRmlrglSwffiquBWsoq5TQUsa1avR0DJwor4Rvwy75MIpucPyEHEPxOXqngH21xAisiIyDL2cfLiRAAiRAAiRAAiRAAiRAAiRwLBOIoMCS4dA3zjrOxTV8ZBMeChOSmLjodBipOMRI2LuzwOodQG8BMcNEBkXkJ8Qw8WOnw5uS1LbG8VBZ14rK2lYkihZiIn2GEVgiIvqSLurPn4/k7MnwHA9GrgJj/W64G9vg+w6KcRPe6TORPHmaStETgaWVTSBz5EtVUI1KX1T1lXSkk0Ri2SXA2diO0nsbVERTwQYSpx6P5PxZKMdVjJFOm1NjM3SxKtleouTDW/4hnG2dat2y6aLSEId95nGIHz9FjI38X29IfF4oVyQNr+DC68vBzBdh9RZR3tkBO+cgIf7M82BZEgMVyB/TQy4JxE+ZhdjcFvhJu7+W1t5/OmHHg92o+Ii3F2C+tx2VrjQMV2KZ9pZYEuFViQO5KQk0nH0S7KZ6JYQk9imW8eAsXQM/U4DhiDAMI810//Syd2SXSuMzgAp85CwPxQRgTqlHYtpk+C0TUD+5EfFUAnYyrtJFy9kcKtkCvI4s3O274ezoQqzoIuGYiHsmLM8KUju1vBOp6sZM5JoSqL3gNFh1yeDADbSZDN0eNdh0f8WtJioW3A2dKK76QDEfEEUUWMfy6Xi4fWcEFo8KEiABEiABEiABEiABEiABEoiwwJIUOYlyktS19hofxTlTcPp3b4DdkBIrAby7A5n7XkZl624V1dSXctEzOYlTv3kd4vOaJdRI5QOWVm9HzyOvwFjXjoTj63S0IZZM3EVrnYPjv3YdJi84Wa/RW4L7+LvILF0B1ykiXWsgdf2FaLn0XF0QqjpEJXBPiAUbl7AfWcJ8MmlXfpb3kX9tA3p++Ru1id4UMOXSRWi6agEwsabKNAXrDy5SFfqaHFD572fR/cq7WuAZFRSn12HyjRejafF8zWiguvxAPqL0o+ID2TKQLcDvyyHz+x2ovLUO3tYO2I6PmEq7lHQ9H0XLRUeNh6mXL0TTFQthTKjR2w1r4u8rMEq80oddKN/7InLrtsGqSD2sveHnLRfphA8sPAFzvnQ5MKV2gG1XCYWfv4jcuxsRy5eVAApLu1fLq8GbFXlXNlzkJOpqSg1q5s9G3Vknov74ZtjTJqloMrXIIKgwv+BrroTy9t3Ib2gD1m5BfsMOxDIuUlKPSyUT6nzGiuGjlLKQnTsZs755NZItE/X2wo4EaY/9x0C42xIAmPGQf2kdeu59CrWOyLEBJlFKImQEVjQ+IiiwojEO7AUJkAAJkAAJkAAJkAAJkMBYEoi0wApSB00fO+s95OZMwrnfuxGxQGB5K7chc+8ylDe3I+b66K7x0d0cx5nf/BziZ8zQAkvEQMZF/pn3kPnNG4hJtJYOcOo3S2GaWV/cxdYGB3O+/jlMPX+uFhHdWmCln10Bt1xEugaoueFCtHxqwYAQko1VZ4tV25Xq7LZQkuSA/PKNSP/yURi+h66Uh+bLFqLp6vOBSbW63bLK9dMFuapS0/oPFdmWCKxfvoCeZStVmlvaLiMzvQZTbroEzRecPlCJXLYxUF187+kHRdz0VFDZ0Iri0reRWb0J9WWpz2SoNLmCXUFrrYeJVy7C9CsWwRaBJS5Hl3PSUWL94V2D9Iu0u7Eb5XtfQm7tFtgi1Qal1UkaXm/cRW+dgcZrzsPxn/04VL39UPxlXGD5bux68Gmk2npVxa89a8Fr+1MtsKQ+l0TuddT48GdNxJSPn42Gs+bAbq7X4krJt7AavQqVGuhWKJ7yLvztHUi/vBo9L72LhqwvldS0u/MNlOCiWGOi+9QpOPHb1yDVMikoNBZwCYOpqgVk8PeGrIfsi+vQffdv0eDEhpWqY3lq2HukdG8qJpCNedgxrxYLbr8Fsf7Is7Hu7dHbPgXW0Tu23DMSIAESIAESIAESIAESIIEDJRB5gaUjsHbWO8jObcJ5t92I2AQdgeW+sw3Z+5ahvKkdVsVDV62HrpYEzvnmdUiIwLIC0VEGvB1ZdP36RfhrtyCZdVQUj66RFPzP8KEFVgVzv3Ydpi4MBFZPCe6Sleh7ZhVQKiIX95C88HRMOutEuFJdSmbNk/pbtg+joQYTTpgO1EgIlgGkiyhtaweyJSVLVCF4mcSwZKO0vg2555bDMzy0JytovmIhJl+9CJhQq8VKTwm5DVvgFctq9sPBiwiURMlGbulqlD/YCdPzkI076J2exJSbL0Hz4jPUDI2GB5Q+aIXfnUVMzQSoo6rMlA17ykQYkxpgxC0tooo+nPe3o+uepUhs7lZSTBYRWDvrXDR+ehFmXLEYMRFYLuBmSihubkW8olMCpSi81LiSdDxtlAz4joF4ew6VZWtQ2NkBsyINDRgdRd8CdiUdZKfV4tSvXI7as0/UOiqUTEUT6HKx+/99BLF3t+ri5yrHcqDsvFo/mKlSBZhZLvK2h8K8Zsy46kLUzJ0Jozaum5ai9lJ/rODA7+hCqadPFe1PTGqAPXUyUJuAEZd6X1okervSSL+0Btnfvo5U3kHSlTpgJiqGh0IS6JzbhBNv+yxqmgOBlS3D+WAX8umsLokv/QoqGMkuxU0bds5HaV0r0q++h6TUcavSelGqdcQIrAM9kY7sehRYI8uXWycBEiABEiABEiABEiABEhgPBCIssASfCBcpyL6zvoLc3CYs+N6XtMAqi8DaiqykEG5sh+G46Kr10dOcwNnfvg6J00VgBWE5spGij8q7u9D98EuIrW9D3DUQs2KoOFLiXIqze0jHXGxrqGDO16sFVjEQWCuBQhmu5aHckIBfG1fvEVUjQqg34cCYPQXnfPEKYHK9ruC+rRMdjy9Hbv0OWDKbnqqBJUXcTVj5MpDOo2S42FVbwbTLz8fUqxcDE+qAkgd/cw+23rUEfm8ednV18OCYEoEVd21Vv8osSoErD9lYGX0zEph88yeUwFJSqgB03PsM0u9tVOmTvmHqoCnbRKk2htrTjkPLRQsQa6qHYZrw0xWUXlmH/AMvwM5WYHg+SkYFrQ0+6q46H7OuvACxxhqg4KPwwS5seegZ1GTCXEldbkveI1+lfpUYo5qCj0RfEUaprCLOpGqY/M60LDiuA98Gtk7wUJw/DR/56mcQm5TS9cuUoJJpAy2gZKD44KvIPPKa4hdTg7vnImu7phTFB7pSLkrNdZh13YVoWHAqELN0dFTeg7O5Az2vrEJudxfMQhleqQxXxFsiBmPyBEyZfzLqzj0BVnNdfxSftyuHzHOrkXviVTSUdEF+mVSglDTQcfJEnPC9a1ETRGC5O/rQ/cDL6NmyQ6W27pFl6usZIOMVA7GCAyNTgu1qUuFCgTUeTpyj20cKrNHlzdZIgARIgARIgARIgARIgASiSGDcCSyJwKpRAstTAmsZSps6YAQRWOnmBM781vVInDE9KJQkBcwNwDGAnIfy0yuR/93bMNMys6CvImP0LH0u0nEP2xsqODkUWGKnekVgvYO+Z1Yq2SERNVJaXtLTZJY/9U4D6Kgpw507FR/5+nXA1EYtsDZ2oO/ul1B4dzPingVzj4ghqCiwvO2grU4E1gJMveoCGI31QMGDv74bnT96EEZ3HnYQCTVQUkmLIZ25qGc4lNn1MnYZ2ekJNN38CUwNBVYGyNzxGDJvvo94Wc+J6PkWHBgqQinfFMOUS8/B5D84D/bEWlUHylvfidwdv0NlaydihoGyV8bOelcJrJlXXoB4YwrI+iiubsXOn/8Gdb1aYKn+BDXn1SSQKgDOUOlxInJMT9SZyEItsIS9IxIwZmLrjBjqPvURnHTZebBStop8KmWzsJIx2KmkGj/n9W3o+uHDiJWgBORg4SM/qUjKY8xHj6RSXnouplxyJoy6OFAx4PeWUV6xGT0vrYb3YSvMisxxaAbHgEg9C+WEiVzKRt25szH9moWIT24AYqYSoN7WHhTvX4bye1tguR5cw0M5CS2wbrsWNVJXS8Tdpl5k7nwefRu2Ii4Rd0OUShM+EkWmZ36MprwKx3QwZ6YQjv6JnAJr9JmzRRIgARIgARIgARIgARIggagRGA8CywB2NpSRmzsJC6QGlorAMpTAyt/3Moqb2uFVfHTXesiEAuv0aTqlTCKsXBeGZcPwTPjbs8g88CKKKzchnnOhk9FERkkRcRfb691AYM3RdaOUwFqB9DMrYRUqSjjopEP9a3FLIrN211RQOXUqzv7a9YDUWRJ782EHMnctQ+ndzSpiSKKmBi95y8HuuhJarliAqVdfADSIwHKB97vR+8P/gdWdh6WmEtSb1CW1BlIK9RZNNSNediiBlQYKP1mCzFvr+gWWLxxgqci2bLyC7hNqMffb16NhtjADsC2L/F0vo3f5atSYcbiGi501DuqvOg8zr1ysI7AyHkqrW7H7zt+gvkfEVFAGLJw0UdL0pIaXmpTQgKVS6FwVWRUmzElqnaSH5iwH3adPwakSfTWzUaV++rvS2L7mfdSdPAuTZk5XP/M+7EXmfy9BZXsPEiUt8HRJdT0e4rRUMfi4Cyw8CXO+chWsiQm9Tz0O+l5cjfQz78DclUGNZyrpKQJQxlCVqzIMVCwDRQvom2BiyiXzMfnic2A11CoBJmKx9NpGZB9+DnahAqmzVUr66JgzASeKwAprYH3Yh/ydLyC7fruqzVadHtg/W2LAKUoF24c6NTGFMBonbAqsaIwDe0ECJEACJEACJEACJEACJDCWBMaNwJIUwokDAqsiAmsbCiKwNrbDcT10p3xkpYj7tz6PxPwWpTfKvRnkdnWgZnITEk2NKoXMe78dbXc9ifjWXiR8E6YrUUEu+iQCax8CK5avqEgiHQk1ILEkbW1XjYPSvKk462vXHZzAirnoTInAOhdN11wASARWXgRWF3p/+BBiXXlV80m1GdR019FXOvpLLzoCSwRWOkwhXHSGnlUvAxR/8jiyb72PmERgybYkGgy2Em+lRAUfNJRw2v91I5rmnaBT5lpLKD7+DnqWLkeiLDW+PLTWuqiXCKwrFmmBlfVQXN2G3Xc+ivpeiewKBJZEWomkClIAfWNANEn6oEoNlLXFGplQ8koK4+OiU3HyV6+CyrN0fBTf2Yi1L76C5k+cj+lnzYORMoH2Ipyn1qDjt8tRkxH5GEYv6TpkEmQnqZx9dcBJN1+OhktO1ytIVNmqneh68CVgfRsSvq1qdVmOD8MzIBmawtZUkWGSsWig1y6jrxE4/uLzkJLaVp4Bw43DbEujvHwNKru74ZtaYLXPacRJ1QJrQx8Kd76A3AfbYTue2qVwEVWqRiyIxlNiMvhlFGUWBdZYnpwH2qbAisY4sBckQAIkQAIkQAIkQAIkQAJjSeCoElhAtjk2ILA8A05HBluefx2xqRMw62PnwIzFgKyDwtLV6HnsNSSyDuIlqZvk6RTCOjeogbVnBFbmqZWIFwYElqQRhpE7juFjV+2hCaxCILCaRWBJBNYEHYHlv9+Fjh/+D+zeIqyqFEJPCrwbBkzTgu95QVTXngJritTAEoElgVEZIP9jHYElMkonrpmAF4Nr+chZRWye5OCMP7sZE0+ZpQOEWksoPPEOup58BUkJa7L8PQWWpHBmPRRWt2LrHY+gMW8oaSWpgpYEWXmeFkSmrhXVL2g8X6UYmp4RpGG66I5X0DPBwvE3XYamT5ypV8656H3iDXz44nI0fnQ+jvvUIiSaRT76cDensetHjyDVmoflu3p70AJLornaa1z0TI3jnD/5MlInNalUU3QUkF/yBvLPrUQyK/xMlEwftgs1I6XsorxsNROhLnQvtcmkML+bMuBZetbBuGshWbEQl5pjnj5mtMCagJNu+0x/BJb/YS+ydz6H7PptiLuSwjpQ4yr8V8K2YbhyFFFgjeXpb7y0TYE1XkaK/SQBEiABEiABEiABEiABEhg5AuNYYPnvbNMphBvb4ToeuiWzTQms65E4bZqO8tmdwbZHnkdXTxfmfPEy1J04XcXtuK05dN/zPMrvfIiaoqrMhHTCw87aYQTW0yshEVgSTRNGYOl0PsAJIrDKhxCBpQVWGc2Xf0RHYInAKmmBtfWHD8LMlmHpYlI64kgVSdcRWKbn6yLh/iCBdVNVEfcMkPvJEqRDgSVT/smWDEsJmr54CbmTJuCUb1yL+uOatfTalkXp/tfQ98bvEat4qk5VW703EIE1MQX0+cj9fic++NnDqMnqvtky06Lqp466ivlAoiptUhd3F9klAstTMwXuSlTQOy2Fc773JaROmKza97b3IPPgq9ix9gMUZzfi5C9djsa501WIld9XQfrnS+G8tiloT9IAPVW4vWR5aJsImOefiDk3fgrxSVJsHnDX7EDu3hfhfdCOuCMpgwakjpMl/KQ98Xmqfpchbkunhqr0UAOeTBsZRE3JPtmeDVMx1OM+EIE1ILDczb3o+vkz6P1gm9p/K4hCU2+SGRRdHzVmDGZJ1w4LYtJG7m/8MLbMCKzDgHcE30qBdQRhclMkQAIkQAIkQAIkQAIkQALjlMC4Fli6BlZpYwecioeeWh+Z5jjO+NbnkDhtukxJB+zOout/XsLm1Wsw6eNnY+YVixGXGlU5D87aNvTd9yL8ze0qtS0Tk1Q5R0dgnT9Hm4WgBlbmaV0DS6KMFDKZtU68kkpd87E75UAE1tkHmUKoBVYlEFiLgYn1QMUHtmfR/dir8HJi17QQEo9iOpIGaMArOfB2dMDOlWG4evY9nUKYxJSbLtGzEIqFyQJdP30MPW+vQ7wi8T+SemipKKOs7cGdUYcZVyxC08LTYNYngxTLTuT+v6fh7uiE6XqqvtaOOhe1ahbCRYg3pJQYKm3qQtsTryBZ0GJKtE5/eXnHhZUpAts7VbF6EW/SIV8EFgwlxUpmBbsmGYgvnIMTb/gDxBtrVcRU4e1NSN/7PPK9aXTXG5h9wyVo+vh8UWKKTem3a5G560XEPU/VmJLtOpaPkuVjZ4uNps8uRsslZ8FOxYEckH+k4eNaAAAgAElEQVTzQ2TvWopEZ1EJKxlAQaOYqppceqkWWDpSSvbIhW8MzLKo5ZWuQSY1xKSIu04h/Ex/EXd3VxYSsVdsbVfF3qUBFfUmL9eAXfER68jCbeuCIWzEmu0RixWdcwkFVjTGggIrGuPAXpAACZAACZAACZAACZAACYwlgfEssFZsQeHel1Ha0gmn7KKn1oPMQnjGt65DYv4MXRSpLYv0/7yKnW+8i2JTCrOv+wQmfPQUGDFbRfOUnl+L7kdfgpEroxADWmsrmLvXLIRvKyFhFx0lOUKBpQKjqgRWRUVgfU7XwBK7tbET2bteQnEfRdxDgTX1igWYfM0iYGKddhmS6tbWC7i6QLrSLbphVSPK6ykh/eiLMLd1wXf0rIhZu4L0tFQgsE7X65eAzsdeRtfajWo2QylaL3LGTMVhNzcieco0TJx3AiyRUiJSOoooPbUKuSfegF0UMeWjYlULrIWIT6xRdaX8rAOnrQe2zLRXHUYkdqjiwd3Si+x9S2GVXBUpptIug32pGC5ydgW7Z8Rx8v9xDRpOOw6GbQOdRWSeWYX0E6/BLznIpnzUXHgKZtz6KVjJGhWh5byzC9k7n4XRlYZdrij5IxLRMYEdM+OYdctlmHD2CTCTNpAG0i+vRfrXz6A+L1FXwnGgKJWq1aWWoDS+FP5X36kYt0As6THQci6YQRE6ZVHNQqgE1me1wJKV8i789iyMguQvhjmCUmhL17FHzoH31kakn38HRslRMyFWrbiPs0FVMa1ROmdQYI0S6P00Q4EVjXFgL0iABEiABEiABEiABEiABMaSwDgWWN6KTSje8zLKW7vhlB301PjItMQxXxVx1ylnIrCyD7yK7lffQzlhwD9jFo77wkVIzJ6qdIS3LYPeR19BdvlaVAyp9VTGKV+/HlMXztVhOn1FuI+9iexTq2AXpFi5CAxfRWBVC6z2lAMRWGcqgVWnBdaHncjerWchtKVYvI752WPJxzwVgSUCa8pnztcRWLKUqnLLtDkZCNIpAH5XHuk7lsBYvxtGWUumrO0qgTX5povRsigoYO4BTlsvin05mFKgPeiDHY8hLrPrNcR14XbZmawHZ/k6pJ9Yjti2PjX7ofxY6kFJbbC6q87DrE8vRGxiDQztjQYKOIWiRlyMBCyVAO/9HqT/817EJHLNlUQ/HbUmFAu2i16zhOI5LZj/3S/AkpklJUVwzS6kH3welXU7lQTLooK+uRMw7/+8AfGWJtWevz2P4mMrkXt9NexsSekfSQMUN9R6XBJzv/VZJOY0AwkL6PHQ++zvkb1/KepKlqoAJrJNVJpC2i+wPDUL4Z5L+L0WR/3RZZKCqiKwglkI5zbi5O9eOyCwZP9lhTDMqzrAShXWr8Bd9iEyD70Aq+CqKKxw+3sCHXy0BMXxR/F8QYE1irD30RQFVjTGgb0gARIgARIgARIgARIgARIYSwLjWGC5b2uBVdnaqVMIBwssyZNrzSJ3zyvIvrYGfgzonGCh9mPzMOuaj8GeVKtS5iqrt6LvoWXo3LEbu5NlzPvGF/YUWEveROapVbAKMqPcPgTWqVNx5teHElhbYAepc0MJrI6UAyniPkUisKRPMiZFH15Rps/TbinMc1ORThL91JNH5s7HYW7s0gJLZiGMVQmshafrDDi1fpgzF+iIcMpA6Yznwy958DuKcN5ej75l7wI7epAqG6r2lginwQJLRWBJcJHnwytLEalgr5Tn8ZW8kaw7d30vsj96QKVeyrZ0AJl8NZCJO2hPVtDymYVo+exHYcRjQNlH6aX16PvV7xDL6X0vwEXbZAPH3fopTFpwGqy6BNDrI//6JvTc8yRS3UXYIhVNXdeqdWYCJ3/9aqROnQEjaQJ9QO/zv0f6V8+ioSRzL2qNqGLBgv5qPTWUwBr6D1OnF0p7QwgseUvZh1eSvM4g37RaYAmbdAXu65uQW/IyzLyjitqLFB2QRcNFWlFgjeWpcizbpsAaS/psmwRIgARIgARIgARIgARIIBoExr3AWobK1q6hBVYQgZX/9TLkX/m9Ejq9NUC+pQbHX38hGs4/FUYiAfRUkF66ElueXIYOlHDG1z6vBVZQA8tZ8ibST6+CnfdUJNWwEViHKLDaaxy0XB4IrAm1QNGBv6MH7z/+Irx8Uc+OJxZLORcDlmPAzjtI7uxGbUZXIXerI7C+HEZgqdLk8Csqf08vNmDYpi7jJNvrKqLnjbXIvbkR9vZumJ1Z2BUPCcNWqW2e4fcLrNqrzsNxV0oKYVLy51DY2oMtL76uItOEiilyRlIeXSBuxxBryyD24W5VR0tS91QinvgtE+hOOtg9CZj/tevReNZxOn2xu4Tso68g/eQbSPkx+B5QjvnY3eChdMY0nH7zNaiZOlHV33I2tyP982fgvr8TSUmLNEydQjg9hmlfvAhNi06FmbSAgoX0y+uR+dXTqEu7iHl2UI/L1UItMIMqImuvCKyBeCiJ8FIF9JVbktkKTSUNSwkfHdURWD5Q2ZVB25PL0bdztypqL+uqCli+FIE3EK8YSPWUYbelYZZDzzg4nG2o0wMFVjROmqPfCwqs0WfOFkmABEiABEiABEiABEiABKJGYLwLrLuXobytC+7gCCxVxF2nEJbufgWlV9cqXVGwfGRrTZTmTcYJf3gpUidOU+u5W7ux+YmX8OG6dTj7K9eh5fwghbC3CBFYfU+vQmykBdbViwAlsFz4H3Rh4x0Pwe/J9kdvSaF0kUBqxj/XQNw1EHN0gXfXqEohDAWWpMe5BrqffB3pTTvh2QbsU2Zi5iXnwoxZSmB5uwvYeP+zsN5tRW3WUTMtiqSJBdJFZJ3M7icphP0Ca4JYQJmFsA0f/uIRpLKukjOWKtYuReYlK9FAsgSkSpKqpyOWtPjzUDY87Kp14C08ESd/4VLUzJiopFelrQ9tv3gCztptqDHiKr3PsTx0Jl20T7Cw6Bt/iMZTZukItO4icv/zGrJPr0DSNVVknIix1qkW6i4/C9MvWwi7Pg5ULJRWbkHm18/B3NaLhBvTla2MQF2FUVjaTO2xuJ4yceow8j2RdKaq5SWzCnqGibLvqlkIBwssd1MPun/xLHo+3AHLcWEaOuorDHyTsYu5lkqrlDRNU7WtX9WlxPY+VVBgRe30OVr9ocAaLdJshwRIgARIgARIgARIgARIILoEIiqwBJgWM0DFAHY0lJGfOwkL/teNiDWm1A/dtzahcM9LqGzpguv6KoUwrWYh/DziUgMrFFj3vIrKq2uVXJGgrKIFtE1wkfjYXMz94pWwauMqJa7nvU1YteQZzP30JZix8BRdy0kE1uOjFIF1VSiwPPjv96Drfz8Esyeropf07IEDEUH9ZbFUfuGAwMpMS6HpyxehZdEZ+pgrAD13LEHninUoO2UU5kzBKTdcjvp5szTgIlB6eR26H3sT9q40EsWgYLkpKYRaqZRMD9vrBwmsjIfiu63YeccjaEjrOk6iaYwg1Ev6KjM2xlWAmMRnAaYlUVIeCn4ZrRN8TL/pUkxePB9mTULVuypu2oUtT72MeE8JCUPnP0qUU872kK2xccLF52LqufN0al7JQGHpGqTvXYpYxkFMxlpqYDW6yJw6EWd883okJklBfBv+pg6k73sRhZVbUePEdFRU/9yDQTrhoL9QVYdeos8s5cD0nIQeEC9LdJpU0jJRNn2UU74q4t5fA0u2vaEXhTuXIrthm5pxUGRedS0pQ8K5lEaTfRTZR4EV3RNkNHpGgRWNcWAvSIAESIAESIAESIAESIAExpJAhAWWYJEaTKHAys2dgPP+15cRa0xKBe09BJYXCKw+JbCuR/y0GfrNbVkU7nkNldfWwvRcnYln2WiPlZBpSWLWtRdi8oVnwrAseHkHG59/E5PmHIemU4P392iBlXl6FayDjcBSsxAeWBH3lisWoOnqhUBjHVD0ACmA/v88ogSWRF6FykX/MxQehppQT34vYkgVcZ+eQtNNF6Fl4RnauuSA3E8fR99b6+GWHPRMMFH70XmY/blPwpqkC6erFMoHliH38ntoKBmA66nJDiWqSpZhBdaqNrTf8SgaeiU6SfdKJGFY3F6ET1iGK8y8K1susjEHPTNrceJ3rkP9SS2AHaRHllw4+RIMR2Y/lDS9gUL5nmHATsZg1cT0zIxSN2pNO9IPv4zy6m2IyUyIhomuZBmdjS5O+8b1qPvIyVoUFVwUl72P3sdeg92aRUxmY/QHClOFdPXuSpQTUIwBuYQJc+ZUOLUJmJ5EvfmoyTuwd/UAhbKa+bAsEViDBdYHvSj+bCkKG3aodEyJ2Or3ZTLLoS9UVNKlrm9mSGKoGyjKfZ0MGIE1lqfKsWybAmss6bNtEiABEiABEiABEiABEiCBaBAYBwJLHMuOhhKycycOCKyyCfftjSjcs0xFYInA6q3xIQLr9G9dh/hpM3UE1q4sCve9plIITU/S2wwYpoW87aIn4aB4ajNOuelKJGdPVq6jsqsXViIBU+SOhOF0FeE+/lZQA8vdRxH3CipSA+tr1wEtwSyEGzuRuXsZiqs2IS4VpQIRVT3whZirZiFsVgJrUZXA6lUCy+jO66LjQRksESnVsVhqLj3fh2v4yMQcpGck0aRSCM/Q0iQH5H+yBOnl62CVfaQTHooz6jDthk9g0sJ5gNTDygPee63ovO8ZJLZ0q+LxtmnrqC8DKuVvxxARWKVVbdj900fRGAis/uLoQX9FgA1MnuhDnFHBctFd4yK1+BTM+PwnEWup15ZLAr908FdgwoJ/h6FLupxX8HsJjRPx5iL91DsoPL4csZyrxjYfc5CpcVF/2Ucw44ZLgYSpt7ergPZHlqH04u+RKpuIeZaSbfI7qX2lirpDcxRh2pfy4BzfhBNu+DSS06fqY6nsw1/fhtITL6GyqxNlxxkQWLddi5qWSfqYWd+L0p3PIbdhJ+KOCCzdcTWGshMSgaXNlaoxpsLXDLd/94Y/MVBgReOkOfq9oMAafeZskQRIgARIgARIgARIgARIIGoEIi2wfHWDrwVWZUiBlb9nGZwtXfADgdXbL7Bm6Grhu7LI3fcqSq+uUQW0VWSPaani3VLbqXOiibqL5mPWVRfAmJjS9kSEikTNiCfpKcJd8hYyT66CVRxeYHWkykpgnaEEVr0WFBs7kL57GUorNw8rsPKBwGq54lw0XbNYCyyZFXBNDzp/+CjQk1PpamEOmggsFbsjzkNF9gRz6BkeMrEy+qYn0XTTJXsIrOxPliD/xgdIlA2ULB9dKQf+R+fgxM9/AsnmiUGqZBmlpe8i87u3gN48YtKOJ8XRgbLlYUeti7qwiHtjDSAphKtb0XrHI5jQK8XRpYsiggZHNmkjJYLINQ1k4z5aGxwcd8Mn0XLxOUDcUvvgd2bh9OX6o836/0wkCkvcltTrShhAwkaqeSIMS02PiMJr65C57yWYu6T4fJD2l/CRnjcFs77wCdTNn6XXrfgordmB3NJVKL6/Q0WdSaSXihKzTHi+A8fw4MaBrOHCP7EJM69ajLpzToYRi+u6W10FFJe8jfJLK+GXJR3VRyXho31OI+ZUCSx/Qy9ydyxFdmMr4hLJFkx4qGeTNGH4umaXuCtfIq8MKSCvVGSQODvcSYICK2qnz9HqDwXWaJFmOyRAAiRAAiRAAiRAAiRAAtElEGmBJdJDB+aIwMrMnYjzwxTCIAJrQGABPTUeelt0BFZCUgiDCKzcfa+g+Mr7iEtKoS9RRVoeeKaPvoSLwsw6TPnMBZi0eD6QFMGlwnK02JEIrCUrAoHlwJL3q2LkA+ltIjI6U2WUT5mCM75xHdDc0C+wMne9hNKqzYj5MqdfGEI0cDiIwOpIVSACa/I1UgOrXgus9T3Y+KOH4XVLDayBoCRVPUnS2XwfUo5cpJzESkmfcvEy+qYlMemmS9AsKYRBBFbuJ4+j8OYHiJd1VmVa2pwWx8xrPormj54FJGJABfC2pdF379MorduOVNaHKaluIrBMDzukiPvV5+G4KxYiHgqsd1uxS2pg9VULrDDmqt+5KYElvERg9aQ89MxtwAlfuhST5s/WYqjoouuJ1+BsbAsEThh2pQ9OkY0S2FRMWHAn1OCkay6EPbVBj8+WHvTc9TzKK7cg5YqYlIgxB51NNsyzjsPsay9E8rgpGnjFB1p70fvWBvS8tR6VrjT8bEnV7VKiLgYYjSkkZjVj6gWnoeEjJ8NIxfUBmHNRXrUN6XuehbVbpCLUrIcisFQKYSiwpG7+xh503vk0ejfJDIlhLbEg8MqV720kXBNx11RRgTKmIrCq63INfcKgwIruiXRke0aBNbJ8uXUSIAESIAESIAESIAESIIHxQCCyAkuUjEgPnZWlIrBOacJ5t30pKOIOuG9LEfdlKG/pVJKhu8ZDT0scZ37rc0ioIu4m0JZD/r6XUXxlHeLKEUjaltQhMlVKWtl00Zt0UT5rBo6//hLUzW0OQmbEnEmamsxC+A7ST62Cna+oGQEHCyxJO+tIleCcMgXzvy4RWCKwTODDDuTuegGld7coaTGcwGqvqaDlci2wDBFYIlp2FdH59FvwM3lVHD3MPlQZZ0F9KrNiwF+/HW5nRgWN5WMVpFsSmCACS1IIZX9zQPEnjyP35gbEJDdORZ656KhxYJ8+EzOu+yRqZ7dIJXEg66GyYgM6HngOqbaCmiVPCpDvNQuhCKy0h9K7bdj9s0dQ3+fBVIXmwyiianml/whEQlVMoD3lIHHVWZh15WLEmupUkXlvZw5bf/wgYjKOaqkWWGpKQzWUuZiBYm0Mc796JeoWzg0EnYfsg68i9/QKJIqye3qmw76Yg1xjDA0Xzcf0K86HLZFmQU0vP1NBfnMrCp0ZuD0FIJ1VPXTrU7CbGzHh+BbEp04AEla/vHLe24bup1fAe38HkiVD+U3X9FBO+Oic24gTvxukEIoYbc8i9/xqFDt6YHm+jpRTh54IVAtSxN0uWzBae+Bu2oWYFBwLCrnvPRdi9UmEAms8nFJHoo8UWCNBldskARIgARIgARIgARIgARIYXwQiKbC0vFIF13V9b+xscJGVWQhvuxGxhpSaNdBfsQm5+5ahtE1SCIHulIvstCTmf+M6JOa1aIHV2oe8pBC+vr5fYOlqQyJcTDiGi4LloKfJwsRLzkDLFefDnFSrI7CkA92BwHp6JWwp4D2MwOpMlOHMbcJp37wemNagw202dCBz1wsov7cVthJY1XPR6cNEIrDaa0qqBtZUmYVQ5JD0r2QC3VnAcXVf9vQYGkwBKD+4DJmVG5QoKSU8ZKel0PCHH8eURadrD5QBij9egvTr65DydF0r2edswkVng4FJVy/GjEvOg1UvMwEa8NpzyC15DcWl7yFW0ZRkJsDWOgeNnz4f069ciNjEGqDXh9TAav/Zb1CX9nTQmhJYUpB8bw0jLjBvueidEkPTzZdg6vmn6fpUvQ68pe+j4/GXkegq7LWfsuuyq/L+gm0gFwdSnz4Tx3/hk4AlIVA+3OWb0P3wMljbumGrGf4k7dFFQWYvnJxUxdybLjoHqdnNMCQNUcDIQaXCtaRiexHwPCCZ0NIqKCqvZjtMV+C+uwXdz6+Eu64NSceE7RrwTU9xKcU9dM+dgBNvuxYpqYEli8zk2JvXYxcGVoXTRqoDWoqBAYXlG5FZ8jJqnT3nmBxeYlFgja+T65HrLQXWkWPJLZEACZAACZAACZAACZAACYxXAhEWWOKfwpv5tjoPhbmTceZ3bkBMalWJ61i1Efn7X0ZhuxRxN9BX6yHXFMe8b1yH+PxpaqZCtKVReOBVlF97H7bIBKVXJF5Jtq3nyCujjGzcRa45heYvfhxN584PajMB6C3CfWIFMs+sglWo9KfzBcFcynFJBJYUhHdPnoy5374eaK7TxuXDTmTvfgnOmm26ZtUQAkuKuHckRWAtxORPLwJk35SwCiSL7vIQAkuiq3w4dzyNvuXrYDoSDeSh2FKLhj+8CBPPO61fYJXvXIK01MCqSAyYLlQuda06Ew4Kc5sx98arUXvSVN1GxYO/djfy//0MSq3dsE0LFcNBW7yM5qsWoemKhTAnpIA0UHp3Fzp/9ihqMqHAGpBY2twMLNJmn+3Cmj8NU798CWInTleezt+ZR/bHv0FpfRtSMgPiEIscBzKUjmWgEjOQP3sK5t56BTB1op6isrOM9l8/CevNDYh7kqopUXauqlGVjRnI1plwT5iMlvNORdN5p8GYUAvYgxoKuxsecEWdbph9Yy1yy9cB7TkkSpK6KQF6nnJQjm2gYJaRnjsRx3/7c0hOCwSWPrj0Um2jBiraq7HLLduAvrueQn1ZVTnrF38UWOP1ZDpy/abAGjm23DIJkAAJkAAJkAAJkAAJkMB4IRBRgSUpZyIuZJG6U121PkonTMbxf/RpWI0JGBIdtHY7nEffRGlnF3zPQC7pI9toYtbNV8OWVEAXMLuKqPzmbThvrYMRFDwPi417sIJZ8hyUTBfpWh/WmcdhyuULEZs6SWV1Geki/GffRf6VNYCkEBpafu0hsKT+VMyDP3sypt10BdCcUgLL2N6H0qNvwpWi4RKdFLRffWiISJI6XBM+fibqP3E2vMkS/dWfUaYEWRjRJEOlFE8wZmbBgHv388iu2KDknGN6cJvrkLx2EZLnzFErmznAv/c55N/bDLMoxd91RSnH9JG1PPQ22Jh24bmo//gZMGqk34DZW0HlpfUovvAGDNdDxaugK+5gymULUHfJOUB9AmbegLOmA333PIlkViuXYF69oL97C6xc3Edi8elouOo8oDGm/c66LqT/+7ew+opKPsm+6bLtA4sELVVMiXoy4MJH9vgkply+AMkz58AwTJgSifb0ClReeBdGUWpKSSyY1E/zUDEsOLaFYtKD1xhD4rhJaDzpeCTmzAaaaoEakXqSp+rDL3kwMhUYnb3IrN+K/MY2GDIrZW9ZFYiXmmPSA60+LbiGp1JQC3MmYuItn4I9eYLKHFUzG4bWcQiBZUi6ZclH+dUtyD/8ImrU7Iuyol6ZAmu8nDxHr58UWKPHmi2RAAmQAAmQAAmQAAmQAAlElUBEBZZIDCmSLbMGStpexnbRHXdQaUrCiRlIOA5SORcT0wZiFROlYhmojyFjlJCtsVGpi8P3fdR6Nqb0AKmiUhpqFLRjsNRLzUoos88ZDvIxH7laG6W4gZLpwPI81Pq+ijBKFHXqmEQkDaiGoDC3qu/koxAD0rUeyikLkjBYW7TR0OMhXvFhqiLdey8infKGi1JjAhlVEqqs7JUIEJmtzg+Ke4dSwwrKJcnX2rKNxhx0TaayowRPIeGhsx4o1FiwTBONno26zoKKvrKkppUUn/c9nZZnGyglbWRjHvIJE1YqCdfxMKFsItFTRLziwnB1Omep1kJX0kUpKW7OQ4OfQH3BRCztIu5qGaXTB3Ua4WANozIeLR+FGhvZWhsOdNRWY9lAfcaB5UJFtw0lsGTURGZKnJI4wL6aMnI1Pkq2iUQ8jroKkMqUkSwARsmDbcfVWKtsQl8qsxvw/LJKHywYFWQsD5W6OiW1UGehvq4eKHso9WQRL3lIFTwVbRdzDcQ8CzEzBq9cUfXA1KyBMteiHDdSsN0GOmNldMtkjvFAPykeYZRfcMAJH5nZ0bARM2zUVyzU5jzU5FzElLQTsSj8KLCieqocy35RYI0lfbZNAiRAAiRAAiRAAiRAAiQQDQKRFFh7oymbvpoNr2LrlD0pfC1CKeFaSoSoWQEtqLSxkumrdDOJoIr5BmocQ83Wt/cyMCugikqSSB/bh2OI7NLpcDGZ5c8zYHkif8SF7LkdpWq0y4Br+iiabiBbgJhnIuFYasbA4RYVXWT4ar9k/1TL/TXMw1CsgXcHtb6VhJNZ7BJB33RpeYlU8lCQfZDOwkDcBxKO9N+A6YdVuLRMk7ZVWp4IOEtqjukdkW3GHBF98r3ejmN7iqtnaNUSF7HomrB8mUlPy5qBGlh7763ioyKp5CXb0ZFSMjNkXKLVVNTS0Eu1DpM+CieJXBOxZRkimXw9G6M0EFQ3qyIWqDUPvqnTJx3RULLf8r0lpbT0rJSG46loPzuQaSKpVKU0VfdMxNyAXlKF9aVgvCpXJsx1ZJswVQmBKhRr70W2oPdbZpCUlERDpZeG2mpfAms4PiN5IqluMzyKZQxFeu6YV4sFt9+CWF1y+MEbyc4dQ9umwDqGBpu7SgIkQAIkQAIkQAIkQAIksA874AHu5gx6v38frN58UCtq7IkNmotOS5fAC4Sz8Q3VS1lHC6gg6iVY6UAEwPCq6cDu0ZUPDPqoxcS+39cvwA6kc9U7G85EWPWzwEXu7U6CdYfqS7i/qquhc5FIoUFgVT8H7ddwR8jB7sqBHGlDHgvBD5WrO8QlHCvFJohu23cU1J5jGjatJGYgMve3/+FxcbBd3t92D3Z7B7I+BdaBUBr5dSiwRp4xWyABEiABEiABEiABEiABEog6gXESgRViHFxSaCi8oRRS0Ur7EUhHcniqa3SH7e5POuydbHfgPQq3PZTcGWorQWn4PX41XPtD1Y0P37i/fRpuD/b1vv2JQxVlF2ygXxpVNXSofRrcbjWj/XmxweMdSr79CapD7euBHxlHbk0KrCPH8nC2RIF1OPT4XhIgARIgARIgARIgARIggaODwDgTWFGGXi2SDlSc7U+SHOr+DiVmhuvTYIk1nGDRyYSHvuzvvcOxCKVS9e+r+7y/7R5MjweP4YG+t1qqDSUKD3Q7UVuPAisaI0KBFY1xYC9IgARIgARIgARIgARIgATGksA4EFhDCYr9iZ8DSQMbCvuhRgmF2zqUvu5vX4Y7PIbr63ASZl9iqrqNoaTFkThE9yea9iWwBrd/qMyG28/qnx/KtocThkeC21hugwJrLOkPtE2BFY1xYC9IgARIgARIgARIgARIgATGkgAF1l70D1T0DH7job5PtnMo0mSoyKRDSf3bl3w5lH4drHAL199fGuHhSqYDGa8wsutgZNtgWS5gt1YAACAASURBVLq/947ln/vBtk2BdbDERmZ9CqyR4cqtkgAJkAAJkAAJkAAJkAAJjCcC40BgHQrOw013O5Q2h4r62p/MOBxBVC2wqrdzqNFn4T4PF8F1uEwPN7ptcP8ORHztbxyHEjQhywPt7/7GeH99iPLvKbCiMToUWNEYB/aCBEiABEiABEiABEiABEhgLAlQYI04/QMVIQfbkZFK9RuuH4crsGS7hxOlVt2v4STboTI8FJF4IKLrYPsTtfUpsKIxIhRY0RgH9oIESIAESIAESIAESIAESGAsCRylAmsskbJtEjhaCFBgRWMkKbCiMQ7sBQmQAAmQAAmQAAmQAAmQwFgSoMAaS/psmwQiTYACKxrDQ4EVjXFgL0iABEiABEiABEiABEiABMaSAAXWWNJn2yQQaQIUWNEYHgqsaIwDe0ECJEACJEACJEACJEACJDCWBCiwxpI+2yaBSBOgwIrG8FBgRWMc2AsSIAESIAESIAESIAESIIGxJECBNZb02TYJRJoABVY0hocCKxrjwF6QAAmQAAmQAAmQAAmQAAmMJYEqgdV3+30w+/KwPd2hwTPGHcpMbWO5a2ybBEjg8AgMFlhyDnBMIBvzsGNeLRbcfgtidcnhp5c8vOb57oAABRYPBRIgARIgARIgARIgARIgARKoEljpv74PRjoPyzNgDiOwKLF4yJDAsUOgWmCJ1/YNH44B5GM+ts2rwfm33wKbAmvEDwgKrBFHzAZIgARIgARIgARIgARIgAQiTyAUWJsy6Lv9fkAElg+YPtTX6sUzAAqsyI8oO0gCR4xAKLDUacIA3OBVtD1sO60GC79/C+yapG5vcMjmEesFN0SBxWOABEiABEiABEiABEiABEiABEKBtaUPnd+/F346r+SVeg26J6W84uFCAscWAf03r82UyCslsQCULF+lEC7+/q2IUWCN+EFBgTXiiNkACZAACZAACZAACZAACZBA5AnIHaoPVLb3YcP//Us4mQGBJbethvyekVeRH0Z2kARGhoBobB15KSmEnilphEDJ8NE1pwGf/Ms/QpwCa2TQV22VAmvEEbMBEiABEiABEiABEiABEiCBcUHAB/ycg9zm3fBdia8IYi6qQ66YHjQuhpKdJIEjS0D/4VefCkRgycuptTDp+BYYlpZcTCE8suSrt0aBNXJsuWUSIAESIAESIAESIAESIIHxRCCIwlIhFsMtFFjjaUTZVxIYeQKBt+pviOeIEWNOgTViaLlhEiABEiABEiABEiABEiCBqBIIMgL37l4oscLf8GY0qkPIfpFAdAjwPDEqY0GBNSqY2QgJkAAJkAAJkAAJkAAJkECUCAwrsA6gkyzifgCQuAoJHOUE6KxGf4ApsEafOVskARIgARIgARIgARIgARIgARIgARIgARI4CAIUWAcBi6uSAAmQAAmQAAmQAAmQAAmQAAmQAAmQAAmMPgEKrNFnzhZJgARIgARIgARIgARIgARIgARIgARIgAQOggAF1kHA4qokQAIkQAIkQAIkQAIkQAIkQAIkQAIkQAKjT4ACa/SZs0USIAESIAESIAESIAESIAESIAESIAESIIGDIECBdRCwuCoJkAAJkAAJkAAJkAAJkAAJkAAJkAAJkMDoE6DAGn3mbJEESIAESIAESIAESIAESIAESIAESIAESOAgCFBgHQQsrkoCJEACJEACJEACJEACJEACJEACJEACJDD6BCiwRp85WyQBEiABEiABEiABEiABEiABEiABEiABEjgIAhRYBwGLq5IACZAACZAACZAACZAACZAACZAACZAACYw+AQqs0WfOFkmABEiABEiABEiABEiABEiABEiABEiABA6CAAXWQcDiqiRAAiRAAiRAAiRAAiRAAiRAAiRAAiRAAqNPgAJr9JmzRRIgARIgARIgARIgARIgARIgARIgARIggYMgQIF1ELC4KgmQAAmQAAmQAAmQAAmQAAmQAAmQAAmQwOgToMAafeZskQRIgARIgARIgARIgARIgARIgARIgARI4CAIUGAdBCyuSgIkQAIkQAIkQAIkQAIkQAIkQAIkQAIkMPoEKLBGnzlbJAESIAESIAESIAESIAESIAESIAESIAESOAgCFFgHAYurkgAJkAAJkAAJkAAJkAAJkAAJkAAJkAAJjD4BCqzRZ84WSYAESIAESIAESIAESIAESIAESIAESIAEDoIABdZBwOKqJEACJEACJEACJEACJEACJEACJEACJEACo0+AAmv0mbNFEiABEiABEiABEiABEiABEiABEiABEiCBgyBwTAss3/dhGIbCJf8Ov8rPwp/vi2X4HlnnQNY/iHHhqiRAAiRw1BHwPA+mae5xrj3qdpI7RAIkQALHOIHw+vhQr42rr68PF+Wh9uFw2+X7SYAESGAkCch5svpceyyd645pgeW6rrqZqr6pkn/LYllW/01WsVhEb28vurq6kMlkkM/nkcvlUCqVUKlU4DgOZFvhS76vFmLlcrn/+5E8kLltEiABEhhJAvLhKOdMeYUflLZtq/NlLBZTP5d/JxIJ9YrH46ipqUFDQ0P/q7GxUa0bPkCQ7fBhwEiOGrdNAiRAAqNHILyOlhblM2EoGSXryHV0T08P0um0emWz2f7rarm2lmvs8Ppa1pdr7HBb8m/5nSzVN3HD7eWxdGM3eiPNlkiABI4EgcHX1vK9XEvL9XV4jS3fp1IpdV0tX5PJJOrq6lBfX4+JEyeqa2xZN7y2Ptqvq49pgRUOciiw5Hv5QNy2bRs++OADtLa2YteuXeju7lavjo4OJbLkQ1c+aGVd+ZANJVb478EfptVC60gc6NwGCZAACYwFgfAmIIyiCj905YM1fImcEnklH67ytba2FiKt5DVp0iQ0NTWhpaVFvU444QSceOKJ6ufVIos3G2MxumyTBEiABA6fgMgl+TwIr4Xlq1w3b9++HRs3bsSOHTvQ3t6urqnl2lquq/v6+voFllwzy0sEljwAlpdsU5ZQjsk2w59V36gNF7nFz5TDH1dugQRIYGQI7OvauvrhsFxPy7W1vERiTZgwQV1by3X1lClT1HX1jBkz1LX17NmzleAKJf/Rdg485gWWDKx8eL733nt44403sHr1arS1tamXPBmS38mHpyzhh2UYtSU/G5xueCTDnkfmz4RbJQESIIFDJ3CgNwjVEVbhB6h8lRsb+VAVaSUfuPJhe+qpp+Lss8/GggULMHPmTLXOgaZyH/qe8J0kQAIkQAJHmkD4GSEPgFetWoXly5dj7dq1Sljt3r1bZTNIxFV1dkL1zVX1vw8kuupA+n+03bwdyD5zHRIggfFDYLhr6/CBcfV1dLV/CM+RIrpEaE2ePFm95Fp63rx5OOecc3Duueeiubl5Lxjj+bx41Aus8CnNUB+IEmn13HPPYenSpVi3bh127typhFX4hCe8gQrfu6/vq+tphUdIdZrNgTwhGj9/ZuwpCZDAsU4gPB9WP2WvTp2uPufJOVVe1bn68n0YJi1Pk+TDVT5wzzvvPFxxxRU4//zz1RMmkVnhuuP5w/ZYP164/yRAAkcngfD8LF8lcur999/H888/j2XLlvVnMxQKBXX+Dz8LBj+gCFPTqx987Ot8f7CfBQe7/tE5UtwrEiCBKBDYX7DLYGcQni8HX0uH51T5Wl1fVr6Xa2eJ2JJr6zlz5qgHxFdeeaV6WCy/Cx3FYOcRBT4H0oejXmBVG0sZUAlJ3rJlCx5//HH87ne/w6ZNm1Qos/w8TGEJ67lI+ovcQEm0wNSpU1WkgITpSZ6pfJXfSX0XeYV5qWJAJT81PDiqU22qBRg/TA/k8OQ6JEACUSIQyqrqD1FJnZYn6VIrUP4tXyVdRF5SM1AiWeUcKy+JbJUn73IzI7UEwzTs6g9QyeefNWsWFi5ciC984QtYvHixOr/KuZULCZAACZBANAiE5TckO0HO+5LB8Mgjj+D1119XqYKSHhhmMITXxHJ9HNZIlChcSXmRSFy5xpY6LnK9Lef78No7TEWX2i7y3vDaOawPcyAkeL19IJS4DgmQwGgRGCyoqq+tpQ9ybg3Tp+VreG0t189ybS0p1/IKr60lPTu8rg6vxcOagaGoEnchqYUXX3wxrr/+epx55pnqPDtc9OtosTjUdo4JgSVw5EZJBvqpp57Cz3/+c/VBK4MdPjmSmyMZSLGVcvP0kY98RIXdnX766UpcyQeurBNGDFTbS9l+WAumumBlWAg+HBx+iB7qYcr3kQAJRIFA+HS8Oq2juiZJdTRWKLnCyS1C0SUfuh9++KFK25bUEnlaL5Gvcj6uTimRGxc5915++eW45ZZbcNppp6m8/+pw6igwYR9IgARI4FgjEN6AyTlbHgo/9NBD6iXZDNXn8fDaWlJbwiiAs846S53PRVyJmAon/wj/HbIMf179ILj6eprX1MfaUcf9JYGjj0D1NXT1+a1aaoXn2zCTQa6rQ8kl19bye0nPllRtSdt+6623VIBOOPFcOOGFnEvlnDx37lx88YtfVCJLMh/k2ro6ims8UD7qBZYMshRcf+edd3DnnXfihRdeQGdnp6pnJR9+MmhiJOfPn4+PfexjKk/0+OOPVzIrnEUrrOo/eDaV8MOzOiR6qA/a8XAgsI8kQAIkcKAEqlMBB7+nelbXoX4XCi2JepUnRfJg4fe//72SWStWrMCGDRtUjZTw4YJEuMqDhBtvvBHXXHONklpyTuZCAiRAAiQwNgTkhkgePEiaoDwUlmts+T586i/X1nKTJLIqvLaeNm2aunkKJ/kI08NlD6pTCqujEyipxmZ82SoJkEB0CQyuDSjuIZxILry2lonoVq5ciVdeeUUF7ciDBongCrPNJCJLSnZ85StfwSc/+UlVlzYMvNnXdXxUqBx1AmtwWJ4YSalx9a//+q9Ys2ZN/4ekfIhOnz5dpal8+ctfxh/8wR/0p6gMVzx4qDpXURlI9oMESIAExjuB9evX4/7778dvf/tbVTtFPmzDXH4RWSKxvvGNb6jClOHMLON9n9l/EiABEhhPBOTmZvPmzXjwwQfxox/9SD2ECK+PRVzJQ2CRVrfeequqZVhdRzaUVfvbX15v748Qf08CJHCsEzjQ8+Sbb76Je++9V/mQrVu3qjTE0JdIGvf3vvc9FY0ls4KLDAtnko0y36NOYIWwBb6kptx111345S9/2f9EX3LoJeLq4x//uBosibiSnHt5oj+cuIryALJvJEACJHC0EAhrYskH7GOPPYZnnnlGPT2SJ0uyyJP7Cy64AN/5znfw0Y9+VM20wvP20TL63A8SIIGoE5AbH3mq/7Of/Uw9aJCUcLnelnOz1FSRJ/mf/exn1cyyIrPCa2umfkd9ZNk/EiCBo5GAiCq5tpZztzwklmtrmWRDzuPyczk3S+1ZKfAuD4jFi8j5POrn7HEvsKprslSn9Em43H/8x39gyZIlKoVQFnmCLzc9X/rSl3DZZZep/Pvqp0EMVT4a/3S5TyRAAuOBwODoWbkpkpTCX/ziF0pkSfhzKKsk5fuP//iPVW0s+eDluXs8jDD7SAIkMJ4JyIOEZ599Fv/4j/+oUgbD2ivyIEFqFcq19YUXXqhKcIT1VA40QmA8c2HfSYAESCDqBMK0Q6lRKKnfEtwjEVlSVkmuoSXAR2Yo/Lu/+zuVlTa4jnfU9u+oEFghVBkACW2WJ/Y/+MEPVL0rKQwsP5d0QZnR6oYbbsAZZ5zBiKuoHYnsDwmQwDFPoFpiCQw5n8sshjJr7K9+9Ss1u1UYjXXKKafgu9/9Lj7/+c/3P4w45gESAAmQAAkcIQLVtQ7l6b2ch++44w68+uqrqgX5vRRjv+mmm3DdddfhuOOOUzc94Y1S1J/gHyFM3AwJkAAJRJ5A9fW1PCCWTIeHH34Y99xzjyr+Lj+T5aKLLsJtt92mAn0k8Ceqy1EjsMKBeeONN/AP//APeO655/pD4yRl8E/+5E9UAWARWXxaH9XDkf0iARIgAX1jJEt4rpY0FSnyLhNxPPHEE2qWK7k5am5uxl/91V/h29/+dn8NFvIjARIgARI4fAJh9JQ8SHj00Ufx/e9/X80gG9ZHkaf1f/qnf4pLL70UMssgFxIgARIggegSGHxtLQ+IX3zxRfzbv/2bmrlQzu1SX1YeEItLkXTwqC7jXmCFYGVQZCarf/7nf8ZvfvMbSBV+ucGRYr/yoSsmUSruU15F9VBkv0iABEhgaAJyAyXndJmh8L/+67/wwAMPqOjaMALgL/7iL3DttdeqeoZcSIAESIAEjgwBOfeGaYOvvfaaioqVKCtJMZHz7oIFC3jePTKouRUSIAESGHUCMhu4yKt/+qd/UsE/co6XRdLB/+Zv/gYXX3xxJOthHRUCS25iZEaU//zP/8Tdd9+tZq4SeSV1UgR+GAYXzmY16kcHGyQBEiABEjgsAnL+lg9WmZ1QzvUPPfSQmrZdigSffPLJquah1GGJet7+YUHgm0mABEhglAjI03iZvUqexMtTenmIIHVSZOp1qYMlMwzK90wVHKUBYTMkQAIkcIQJyHW1nOvlAcXf/u3fKpmVz+dVLUOZlEN+JoXdoxYANO4FltzUSHqJzDYoqSSSpy8fprNmzVI3OdU5nCwmeYSPem6OBEiABEaJQHU6y7Zt29TT/0ceeaQ/nUVmUJHoLKnDwhuqURoUNkMCJHBUEai+Tt69e7cq6CsTaYi8ktSSxYsX40c/+pGaZVDkFRcSIAESIIHxT0BKc2zcuBFf+9rXVC1xEVYisb761a/ir//6r1XJjigt415gSeibVNGXmxkpQibL7Nmzcfvtt6uUEsnLj5o1jNIBwL6QAAmQwHgjEM5Q+Jd/+ZeqNpakE06cOFHNSvjnf/7nkfugHW982V8SIIFjl4BIrEwmoybOkNooO3bsUJGuUhdFynR86lOfUtOs89r62D1GuOckQAJHHwHHcfDkk0+q2oZS71Cis2bOnKkChG6++eZIFXUf1wJLPmTXr1+vQP/ud79T9VDkCZHcwEgF/aamJn7AHn1/X9wjEiABElCzEcpTIjnXS/1DuZmSD9q///u/V7NiMZWQBwkJkAAJHDwBObdKyqDctLz99ttqA9OmTcO///u/4zOf+QxrXh08Ur6DBEiABCJPQDxKNptVM87K5Hft7e0qo0HSxv/lX/5F1cWShxlRWMa1wJJ0wfvvvx9/9md/hu7ubiWvpGK+FG2XqX1lEfB8ShSFQ419IAESIIEjQyCcSUVCniWdRWodSjSunO9lOnep2TJ37twj0xi3QgIkQALHAIGwzmBbW5tKx/7xj3+szqtyw/Kd73xHPRyeMmWKeljMBwTHwAHBXSQBEjimCMi5XV7iVKTO4U9/+lM167ekEsrDYnnJw4woLONOYIU3LhLWtmbNGtx6661YvXq1CnObM2eOKuQr4c3y4So3M6yFEoXDjH0gARIggSNHQM738mBCPg+2b9+uPlSfeeYZdbMlefqSUi55/Mlkkp8BRw47t0QCJHAUE5DzqryeeOIJfO9731Opg7IsWrRICa1zzjlHnU9lnag8hT+Kh4O7RgIkQAKjSiCsgRiW6ZAHFytWrFB9kPJMP/jBD3DVVVep83/oY/5/9u4Dyr6iyvf4cUyIASSpIBJExEQSQQWUKKhIUDICkkRnQEUYx1GCDII4iiIDKCoGUKKiKJiIioJgIAiIGJBoACUMhtH35r31qXm73+Fwu++59999Q9991vqv/nffE6p+VffUrm/tvSsKOGhnobEDWIQirPh8A6r4fJOWxz/+8dWb3/zm4vJmhSjh1UD7fD4sFUgFUoGBKVBPNOz9f/XVV1f77LNPWdTw7t9www2ro48+eiR3ThmYSPmgVCAVSAV6UMB7lfeVHLKnnHJKmaAstthi1fvf//7i2fqkJz2pLBwAWLk43IOweWoqkAqkAmOgQN22tsu33b6Fkt9zzz3lnb/HHnsUzywLxQmw+mhQAOvaa68t3lcStxtMbfFo18F111233DEH1z6EzUtSgVQgFRgjBWIAlbPFVr8mWo4nPOEJBWAZbLk+55EKpAKpQCowswJ2GrzkkkuqN73pTcWz1bHDDjtURx55ZLXccstN2dUJsLInpQKpQCowfxUIkHXLLbdUNks666yzCrBaaaWVqpNPPrlaZ511HrYLbXpgtegPBlmwygTlgQcemPK+MoHhiTVoEVsUOU9JBVKBVCAVmAMFAmKZeNnu97bbbiuLGtttt13ZAj7yIc7Bo/OWqUAqkArMGwXuuuuu6vDDD69OPfXUqXBsaTm23377qZDBtK/nTXNnRVKBVCAVmFYBtrXF4dNOO61slicvlgVh6Tne/va3V8sss8zUtcMYF8YuhJCgd999d7XzzjuXXVJ4Y4nLtzuKsBFHel/lNzIVSAVSgclSQL4WCxsSD1vkWHrppUuCd7tmZcLhyeoLWdtUIBXoTQG2tVwn22yzTQkjdAgbtDC8yiqrlIXhYUxSeqtFnp0KpAKpQCowWwoYF6TmsFHSueeeW27LG/fMM8+cStExrHFh7AAWGnjRRRdV+++/f/WLX/yi7Dy42267VR/5yEeK91U9fnO2GjDvkwqkAqlAKjDaCvyv//W/yqLG7rvvXvEksJBh1cgutfK45JEKpAKpQCrQWQG5BOW9+qd/+qfKu/SJT3xi2TZ97733LnZ2AqzsOalAKpAKTJ4CxoaTTjqpOuSQQ6oHH3ywjAUWiqXoiLFhGKqMHcD6y1/+UhKIEe/++++vnvGMZ5QwEfmw8kgFUoFUIBWYTAVs9WtHWuPBN77xjbKYYUfa448/vnrmM585maJkrVOBVCAVaKHAvffeW73tbW8rEMsERWSDHac22GCDXBhuoV+ekgqkAqnAfFKADR1OQRdffHF14IEHVtdff31J0bHnnnuWjfQ4DjmG4YU1FgCLWA4r6nYffO1rX1tddtllJTZz1VVXLfGZz3nOc8o5w86KP586b9YlFUgFUoFxUCDe+2L0ASsQy3ghjPBLX/pScXV2ToaXj0NrZhlTgVRg0AoIG9x0001LuIjJyI477lhSc3iHDmNyMuj65/PmvwJhJ2R/nv9tnTWcHQXiOyNFxwEHHFCdc845xZZebbXVqm9+85vVUkstNQW5Bv29GguAVW8Guw/usssuZffBRz3qUdWrXvWq6tOf/nS16KKLlkE2AdbsdNq8SyqQCqQC46aAnIinn356td9++xUPXWEwxx13XMnl4v95pAKpQCqQCjxUgT//+c/V9773vRISIvzaqvpb3/rWEjLy2Mc+NuVKBVKBVCAVmGAFhBEeddRRJV3Tn/70p2rZZZetPvvZz5bdCIc1RowFwKpTc5MTeU3uvPPOapFFFqne8pa3VO9617tKHKZEvQmwJvgbllVPBVKBiVfg29/+dnXQQQdVP/7xj8u4YFJmG2Dh5nmkAqlAKpAK/H8F2My8rz7zmc+UkEGhhM961rMKvNppp52K1+qgV9azfVKB2VQgdlPz8zGPeUz259kUN+81EQqIhBPtdsQRR1S//OUvC39hZ8uZ+KQnPWkoGowFwKJMxGIigHaauu+++8qE5P3vf39ZXa/vMpWD7VD6Uj40FUgFUoGhK8A7VwghV2eTr5e85CXVRz/60eq5z33u0MuWBUgFUoFUYJQUYFvfc889Jf+VcGs7uK677rpltf2lL31phl2PUmNNWFlmI+RP3mQ2gfyYJuFCn6SeAbLi8HceJn7G/HGhhRaadvfi3CxswjpiVrd8N6644oriMHT55ZeX789rXvOastP3EkssMRQoPFYAS86rN7/5zdWpp55aCRWxSnT22WdXz3ve83KQzS9YKpAKpAKpQJmMWdj44Ac/WAbVJz/5ySWp+1prrTWUQTabJBVIBVKBUVXAxOTuu+8u6Tik6DA532abbUqoSOa/GtVWm//lCqcFNe0nd2Vc/9Of/rT6l3/5l+pb3/pW6duvfOUrixPEiiuuOGUP8Dq85JJLql/96lcFWklJ8+pXv7p6ylOe8jChm1E+TmgCrXSimP/9c9JqqI8LL4+FDn0cDD7vvPNKHqx+vqMLquHYACwVlcB9t912q77yla+Ul4zEvOeff35ukb6gvSCvTwVSgVRgnihgC3irQu94xzvKQoeBFsDaZJNNEmDNkzbOaqQCqcDsKOB9+etf/7q8H2+77baSW3avvfYquQOFYOeRCgxDAQ4Lt99+ewlpjY282pZjueWWK14hxn/zxV133bV4FrrPYostVp100knV5ptvXi288MLllj//+c+LvWA+aSLOW9tunDy16ofvinlolIcXStyjPoFPgNW2pfK8cVLAd2j//fevPvWpT5XvAMArZcfKK688lGqMDcAi1q233lrts88+1aWXXloGVoRcErHYxnEoCuZDU4FUIBVIBUZKAV66VooYv4xJ48QOO+xQJmdpXI5UU2VhUoFUYIgKAAUSuMt39bvf/W4qgbtcJ/muHGLDTPijjd1C/7/zne8UENX20GdNss0PASdQCsASSmgeyVvEfTfbbLMCn3iW/OxnP6ve/va3l13VXC+qhw3Bw6R+yP0DftntGLACuKSwMZGvf1e6fW8yBLFta+Z5o6SAfnvwwQdXH/7whwsQFt0g7Hy99dYbyi7fYwWwxF1KGvaDH/ygetzjHlftvvvu1b//+78nwBqlHp5lSQVSgVRgiAoYZLk1GyusrDqEFNpVy8JHN+NyiEXPR6cCqUAqMFAFTETkC7Rzq4n54osvXh122GEFAuSRCgxLATDVIpQ0MZ3C9qYrl/GdBzZnB5DpF7/4RenP+rjPttxyy2IP2EXNghaodfPNN1cHHnhg9fWvf30KYH3uc597mAfWlVdeWW2//fbFU9G95AAyB+WB4ve2ObsGAbAihHIYoV3D6jP53LlXQGi5xQ15yCVvB4O33Xbb8uB6LvK5L0lVjQXA8kX0khHD/O53v7u65pprCvmT/V5sc3pgDaKr5DNSgVQgFRgPBeSzMDbYidDq3Ryu7QAAIABJREFUrXGDEZseWOPRflnKVCAVGIwCANanP/3psrv3gw8+WD3taU8rE3xeK3mkAsNSoA6wzP8sPpkwdwtrBZJAJR6FDh6GINb1119f5pFgkxDBxz72sVPQyUKXBS/eWuGB1QlgXXXVVVMAy71HEWDVE9ErYy7YDasHz8/n2q3Wrt7yJtroQD45Ief62aBh6VgALN3AJOTzn/989d73vre8jGKVaO+99y4i5pEKpAKjo8AgVphGp7ZZklFSQN9jaJqQXXbZZaVo//iP/1gde+yxXY3fUapHliUVSAVSgblWwO5rxxxzTNl18M9//nPZ3ZsHC0+VPFKBYSnQBFg8poCpZz7zmcXTYyavLOcuueSSU0V3rjmknybZJtvxD/AZNMCKgnl2AKfZ8l5p2t7piTWsHjw/nytk8C1veUt15513Fnv63/7t3wr8na3+24tqYwGw4uXz8Y9/vDr66KNLJnwJ+oKydyPyvQiS5y6YAm1daBfsKXn1qCswE8Dy2d/+9rdiSKRHzKi35HiW7yc/+UnxwJK83fH617++OvnkkxNgjWdzZqlTgVRgjhTggfWe97yn7DooT5Dd2T72sY9Vm2666Rw9MW+bCnRXoAmwVlhhhZJvJwCWO0wHscwJ2ZYOgJa3iJ/O5/Dw1Kc+tZKA3QEgcYoQQtjJA8vnDzzwQNndWPSP0Fplc2ywwQYl+buyAWIm8bzEOFh08kZxL2G6QPGf/vSnUq7IJeQ60USii5RxOm8WdfB8yeT9X109Tz4v93V/+cPU91nPelaZK+eCcvf+lme0U0Ak3L777ltykut7+r/xIwHWDPqh5x/4wAeKu5ovPTdnsZe2RI0XUTv586y5UqC+ypFQca5Unrv7ziZ8rBsW9dwAwJUB1q5H8tgxlp/4xCemm/PcNetE3plB+s53vrPkvdAXJXT1/xwrJrI7ZKVTgVRgGgVMdE3e7SwVk15hIi996UtTs1RgaAo0ARZb0Y6CoEx9ftEJYtXD5oQOSiEgGby/v/jFL644Qzz96U8vtoF/MwEsUAg4syAm7w/wFPc3aQfK/FMmXl977LFH8VCJ3QlDQLbvb3/72xKu+93vfre69tpriy3scL3yvPCFL6xEFa2++uoFPHUK/5OYXsJ5EUnmxTwmDz300GrdddctHucnnHBCyRMtTBKU9vc8UoHZUMB3xYYf+rgNDfT/N73pTaWfDTp8UH3GwgNLQX1RuTgT6g9/+EO1zDLLVJ/4xCfK1r8JS2aja87tPZpwJFcE5lbvXu5eb5u5bBerT3ITHXLIIQVgGeDFTr/xjW8sWxuXF9IjHtFL0fPcVKCjAlaHAKwzzjijfM6bgPGb4ebZYVKBVCAV+P8K8Loy4T7llFOKZ/RznvOcsgPbmmuumeNxdpShKTBbAIvXlP5t4s2+fMlLXlKddtppBRiBQSbhMwEsHlLsCAnl77///ik7NeBXhCL6gCeUCb0cQWyNsGfvuOOOssMhSHzjjTcWUOy7FjYv2xgACAj22te+ttp5552rF7zgBWWht37I6cULzM7K7qEe73rXu4pH1oknnlhCu8yX11hjjZI2IQHW0LrwvHtwpOfYbbfdStitPmsOx5koAdYMze1Le/jhh1fHH398eYmgzgZZL6MEWMP/nujYXsrgYsR0c4dddNFFp92dI2HF8NtNCbSd75e2i9A+f7fdsESXvRzanvuyVao4wCl9wWd2ggOeGQ6ea5VXDDVX7GG8AHupW547PgpY6bRialLmPfOyl72s7DDUNAbHp0ZZ0lQgFUgFZl8BHiZ2bDvrrLPKuPz85z+/TPB5cAwjLGT2a5h3HEcFZgtgXX311QX42MXeAejo35wgAhzNBLDMa7785S+XMCm2LTs5Fn15dAv9i4Uxtq7J/Zvf/Oapvwk95HjB7hU9FHm4nMvLit3LE8t9wy7mkcUb64Mf/ODDABRb3QZmPLmcb471ile8oniYub86OQDo9MAax54/umXWdwHhXXbZpbrppptK3/V/YHYYY8XYeGCZWKPMYvMNuMstt1wZcH1JhyHc6Hax4ZTMS1WHtgJgJxsdW3inXTp42nQKT0uANZy26vTU22+/vTr99NPLTi2xogQ2MWbbAOLw3DIIG1i5R/vbIossUu25555lNcjvkmnHwOs5/n7kkUcWD5kEWKPTH8a9JIxGHljyXuln66yzTnXhhReWd1G+d8a9dbP8qUAqMFsKsKftOHjuuecWz43VVlutOvPMM0uuocgjNFvPyvukAm0V6JQDSx+1i2CnVADNtBXxnDrAMvYDWHYYlOjd7zPlwOIB5TvBPr7yyiurm2++uUAhIIu9yn41gV966aWLfatcK6200hT85b3lWZwveEZ5njDDjTbaqFpvvfXKPNb8VV2BgYsuuqj66U9/OgXW5O4EseTFCrslAJYwX/8Pu9lPUOx5z3te+bnKKquU7/Wzn/3stpLneanAjAr4ruifdvi84YYbyrnbbrttAcLD4DBjBbDsKoViI+LLL798GXB9WXPiO/xvnRe1uO4dd9yxJDv0spXczSTSCkG3OPXh12CyS8BjxUDJ5Tg86GylbWUWhOp2aF+rQYwFg64VLX8zSB933HFloHdfrtgHH3xw9Zvf/KYM9l6EwDSPyjxSgdlQQL/jpevdI9eFw0LHt7/97QRYsyFw3iMVSAXmjQIA1g477FB97WtfK2O0sfqLX/xiGZOHMSmZN8JmRRZIgSbAAnuAVYBIv6wvRMUCqgWq5mds0v3226+64oorSnlE7VisDZuzG8Cqp9UAsXxXbrvttjLvtFOnzcTk5Woe4a3CDrF4przKJxRx9913L8+vLw7Lr3XxxRdX73vf+6rrrruuREOAbPJ3AVGRU8vf1UcIIYDliEU6tjdbB8CSWzYSwi9QQ+TFqcD/U8B35Ve/+lUlxDUA1lZbbVWdffbZQxkrxgZgmRzzCLGi7gsMYNkxAmXOFfXhf796BVjZZsNvs3oJrDIxWn3HYocV+eV83wyibXJjGYA/+clPVu9973tLPL4BHsQEnkFMBw8tiSZRfAPsy1/+8gKh63kERkuZLM04KqD/AaMSmuq73PETYI1jS2aZU4FUYC4VaAIsE2AhU3LrpJ02l8rnvWdSoA6w2KfSUGy++eZlQbXptKCfSg8gVFCy9/rnCwqw6mWsAyzPNHmfDmDJLSdi6LDDDispNYC1173udSVlBggXmxtFSKHncM6wyHvEEUcUry/A4EUvelFJ2B47HZr/CiGUHoEu7kMbeYi22WabkvYj8nPRIb/D+T2bLQX0KwBLP4tonQRYLdQFsCTiE2sJlvgy2yId+c4vaAsB5/iUbgDL4zuFEXYqlvPCC6gt2Ihr3G+2XtrKEOBmLrz8DD6zWd66lnUN25b9Jz/5SYFNkk06nvKUp5Q8c/JTCSWY6XvmeRKzi/83yPu+gsy8urbeeuspQBXlAhisPjE64r5tvscxMCtf274xx10/bz+CCpiUAVi8//QZkzLgtLkz0AgWPYuUCqQCqcDAFGgCLLDfhhfCovJIBYalQBNgRTnC7qvbi/7/hCc8oXgRShcwCgBLlIHQwfACt2Ab9jTIpIxhz0ZdzDks8vKkkrOLhxWQ7Dp5PJ1XB1jsbJEMcskKKXRuXaeYd7WxrYfVzvnc8VLglltuKeDWfDG8EL/whS+kB9ZMzeiLym1S/hxfYPH54oW5YeaXc/hfgLYAK8DUdFBFO4MbBi9usJEgEewJMBWJF9Xa/30W1xgYGF697DZWv3cAlhhIDCbKIW69ng8iwFZ9paPZCnWvpbhvuOTTy84kDsnSraDMBJro0ikfRfMZEdP/wAMPlC176TedIdq8pxUjO30KHfSZyb6VHi7M7jPTYaAFvrbffvuyiqRc/s8by2pTtFmsOsXAGvecqe6RlNK57v373/++XAawxU4v2pC2oUf0M+ctyPuhDsw6wcx6aGyUM8Muhv8+0k8ALCGx2khel+9///vF2GsLdIdfiyxBKpAKpAJzqwCAtcUWW1SXXnppeVeuvfbaZcOL2Bl4bp+ed08FOivQDCF0FhuYbdq06dhcPLO++tWvVmuttdZDwgiH5YElysBGMuedd16xOdjhvLEkj5/JJmW7fOhDHyopWXwf7Wz44Q9/uOxK6LrIgRUhhL6nUn2w00GyPFKBuVJAfzSvfNWrXlXyHDvkLwaOhzHvGasQQpNplDkA1iWXXJJuznPVU3u8bxuAZeARO86FNnby2HDDDUveLO6y3/rWt0pcrZULMCW2lJWTYeONN65WX331KQ8KXyQkWFiQf+7LEPOC90IHNrkbW4156lOfOuOXC3iI3fN++MMflt085HBSDvXiJSSW3MqksDrbTPu7rXLBFIMTD4899tijeB01D3BFfWw7Ksad6yV4Bbp5Ljhk5eTVr351CalTh3POOaesgsZhILTKUn9J1GGNnD8GPF4mtLzrrrsK7KEh0CN/AFdk//w/Yu+bAykDwMTfVr8+k8QSXXfNTAld1UW7GngdBlIDKujsWbFqZitjg3HE7nsR7rvvvg8b0GOgprPEmXT72c9+VtrZJgEOuj3taU8rZfMSlXAeCIxn0Uc/8zw5BQJ6HXjggSXJZvNwvvbnEh67KOo7b3jDG0our6bHl/7M2wz0C7jqXO3Y6+6NPX7d8vQuCgTAknBVuwpT/cEPftAT2E6RU4FUIBWY7woY64xZ7B4HG0F0A5snj1RgWAo0ARZ7T85U9n0zzxXbjM0F8gBE9c+HBbDk3JKS40c/+lGRkP1sXmIRrb7w2Wm+YO7he+k8trQdEOXOqntgBcBiA0vVsffeexcvtDxSgblSQH8057VBm00HHDYk4LwwW5FPvZR9rACWHcxi5wUeWAmwemnquT23DcACHkEnW76CLA4DEojFRdaL3n0coI8viy8FgOTFL4R0u+22Ky9pcbigjlVD943tZ2NgAE1454g5B1KEnHbyvHA+mGIb2+OPP76EqPp/xJa7ryMGSEDDQKLMEtmpj2OzzTYryRcBnzoUcr37AR1HH310+dIrryPAmfOV10oLEAOEyUEh/CkOSfLEHcd1AZOU/dZbby2x9nbl9HJR9gh/jLI7nx5WWulBz4A98Qxa2ClFknU7p9CL1u5tN0nt0OmI64QKxmANGIAHwGOUh1GhXoyM0MB3mpdMgLnQzj3taony0xX8U9eol7Kpk9/9BBW1CyBmJS48vfw0sKuPcvB2A6iEOtaPaAshj7zGwFAHo8kuibZFbvYf0PCkk04qINPBS+8//uM/Sr8YxmrE3H7Dx+vudQ8sfUCuRAArQwjHqx2ztKlAKjB3ChhnjXXGTYtfjgBY8lYuiPfy3JU67zwJCjQBFptVEne76oFA9b4Zc4VOHtbDAlgXXHBBsRvZ5zGf0W7TpeOoRxrUIzbY7VJ7HHrooR0BlgVcObPsBjedjT4J/SXrOBgFbNJmvPC90q8BLAseTag8iNKMFcDiqSFxHSggLAnA6uaOOQgR8xlVAU8z7UKozbygA2DVw+e8oON3qw3ACo8lnjaRJ8oLXXJGO3rEC5u3jPNAloAxPIGsXMRgAEBYXQRB6uGm8bn7+iIKm9OfJCKPcDflcm8DpZA8zwIx9DkQDoyxna57AE8AFYAV8MJ9DMLgHPAKugW4AazU1YBLu6irAejFL35xgTU8y+LgkQUQhdeVMrnOOcCbn+7hmSbpVk89w/PooezaQJ1sQ0xHccz1UEv3do77gTbAm3sAavRzz04hi8phR1CDrHZUJ2U95phjiodUQEU/uZoaaDsBrPBwCm+4Qw45pHh/KYe/KQs4pU2U03MDNvrMs8AxRkM9Aa36qC8d6GtVjNdU3QDSz9zzjW98Y0miGR5i2vvtb397gXrNMEqrZAcddFABh663PTMPNC7safgP962ofwGLvO+0hVyJP/7xjxNgDbdZ8umpQCowQgoEwLKizn5LgDVCjTPhRWkCLIvQ7GCLlfXd+5oyNW2vYQEsKW4s0IrmYL+yPTleRNqLermjzHWIxfb0z/l2Idxzzz3LJc0cWOYj7HWL9blAN+FfmgFU35zLeMFZQX9NgNVCdBNKXhMml77s4YGVAKuFeAM4pRvAYiiZ5POkEdonxC28aQAf3itCBeWqAR8MXkLGJDIERWKFhSeFl7RQQ9eBMXI2AJpe9sLNeFr4nBeGvgIU8arhiRMrFAFVgClwAxiNEET3t8qjPPqZwZI3kNA//5wXCRiVAfgAtHj2hAeW+xtoABsACFjzN+frs0IOhbHxCBJTHN5GVmscdQ8qv9shkAeWv0euJzCQa7HvROQFAOmEuwl35GoNyInFpyM9tRNNnPOJT3xiakvi6CLuL1eQcN2IcVZOIIn2kVvKPcJLzTPAK6tjIJFdC3nHgUG0C61dKx+A3FgBiMCm8MAKgEUr0M+qkn7g7+CRdgaJtLXn/PKXvyxbI/Nqc41DngHPlhMg4Jz6gHV33313aTdwTS69yBcQfdPKAg81oCNAnfNdq//EjqdRH3r6TDuom7rIcbDEEku02rVxAF/LiX2E7wOABaLGeKGfpIE3sV0iK54KpAINBYxb7Bk2GRshAVZ2kVFRoFeAVV9crUOsuQRYbHKLu83NxHyvfJ8sflpod5hLiGYA4ureKvXUFGzqsKvDm4ytzBsyFlCbAIvNa0E2Adao9Nz5XQ4Ai8MGe9p3LgFWi/auAyynpwdWC9EGeEovAEu4nRBCL26AwIoK4LDDDjuUF3WAHh5F4IxQNGAqjrhu9913L/mTAJbIOaSfGDB43YAlEZIoFxZoYaBxuIdJLu8ZO4UAaw4ePqCEXEZc6evuvnbZA1bAroBqUSZ14sUldC7C10A6YY+8k6JOwBXQwQWTR1OAMLBNee1YYiU0Qhfj/gCS0LQAWMCbcgBY4QUG8BgwhTfSsX5vIYy8UYRcMljVUx2FEwJd9fC4MBzk4OK5BcjIbwUAhvahoXqBervsskuBcMonjxdPJDmpwpDwczqApVwG9CiDPFk8qQJygnLgtWfEVsKeb6AHj4AzMI5HVMA53nA82fwub5ayy/FBV23gmXKKRVsxCi688MKSswtEjLIoM3AltFAb+7u/ebacbVbGhBLSEHB705ve9JB+OsCvYD6qpkAdYIXxCMgmwMpukgqkAqnA/ygQAMvYFgCLHSEkJEMIs5cMU4FRB1ixAxtb00J6M6SRbWpB8/Of//xUMvbTTjutWn/99UuUQv0IiBUL3/UFb7axqIOAXgmwhtkr89kAllzQ7OkEWC37QyeAJWxK2FCG67QUcQ5P6wVgWe0LgMUjSgJCrrYgQICOACWScMtLBdSAPA4DB08nsAeM6JTbimeOe/LEiq1oP/CBDxTvnzgf2Nh///1LArrYkU+4IfjCiyjgRn1wAdV8btUlvJmUKQAWmOZ8kMhgpdwGYl90KzAg15Zbbjk1GNX7roEJZAGhbFFaPwJgASegGi8zuslb4R6R20l4Hq+ngFcRDuk6YEgonJ8OoZigHq+muks2jyoeX+rIy8lga6UJJNJe9d3+3PejH/1oic8H1YBEUJE3mntGCGiAn04eWHWA5Xy5rKxU+b/7gU/CCYG0eqLAugcYCCn/FC2UUSJ6XmRAHWNAH7JKxcuKhx/DAsALzz7tqr6e63yJ7z1LTjBl0OZcuCMhvbry7vF33mCMfm0L3sXEoL6yNodfvbx1BwX0DR5YwKND+LFE/gmwsrukAqlAKvA/CkQIoRV1NpPDWMYmilySqVUqMAwFegVYTSAUv8+mB9ZVV11V5hDmDuxgkRdsQIuc9SO+V+Yo5gBsSrbj61//+mLLsr3D9g+PftezQy2kslUsHosScC77W5oURwKsYfTGfGYoEAArkrhzmDBeZA6sGfpIJ4Blsg9g5TF8BfoBWErNY8kAINl3HUTV8yZZGQQjePr4u5e6neQAKonPHU2IaSBwjtUP4Iu3E1jF4yjgjhxWws2slLieK66k3Iy5gDR1t+Qw+ISOebZyRYJyAAu04XXkEK5msNJHaWMFBYjx/OnK7Fm8eUAUMARIiqMOsJRNLgD3VzeAiccSOGWiPh3Q9R1yDu+0GByV54ADDihQrF5XYY28nsTx+ztg+MlPfrKEVdbDAoEcoYJf+tKXppKkSz4v2X6E5gWMbOOBJQm9XSl5imknoaV2W0H8o52bwBJ8lL+MC7V29zwgj9eYlTGfazOGh3BKoYX6E6AVnl9AKQ9AQNDnwgxppI8oN6gmTBLYcn/lBMDo4/60shLnc0c91HL4387JK0EngAUKZ5LTyesLWeNUIBXorMB0AEsC6mbOx9QwFRikAqMIsHidWMgExSI1gUgIER6dFtKdz8bm0egwDzAvYTuyFWOe4ad5ggVei6siQtgw5rdsVXlbY/EtAdYge2E+q6lAE2BZtAddh7Fx1dgkce8EsEw27QqXx/AV6BVgWcEwAPDGAn4i9C4gUb1GoAPQ5OXuGjDq5JNPLqApXurhLRXXeckDY8IPed2YuIIM8i0FgAFarIZYHQFwQBKwhDdTlCNAWh0KAUtAF8jkWrCiDrBcI3Gj2GBhcH6XU8vABOzUvYiasMm5oIi8XLGjn7LUAZbn8ZwSrhYeR8ISJdYDX2Yi4cLtDLjCDoEvIXB04GUU3lpRJmU48cQTSx15P4F2PJvq7s/yS3m2FSO6ymEmLHP55Zcv9a6DnG4Ay3OtcBmw5aFSF95S2tFgH95cnXo7QKUteUy5Dzdt7SMM1O9gFDB2/vnnl3IBVDy/eNppDwYJwCXRPpDpWmGi6uvQTyXKXHXVVcv1+qSdGYUbWqkGBkGueuhhJ4Nm+N/UyShBAqzJaOesZSqQCvSvQAAsto+x3GEybkJisp1HKjAsBUYNYLEjY/dzEQqxMGteIV2FhXU2sDQl5jPscPMQNjcvLClIHGxZ9qQUFuxPcxMLr2xo92WLspXNScwr2Kns6QwhHFZPzOfWFQiAFRDXXOviiy9OgDVTN+kEsOQKCo+H7GLDVaAfgKXEO+20U/FciZC9JsAySAAJ4I8wMFCABxOYtfrqq0+7G4n+cvrppxcvHB5WoAtAAXwZZAwQws4k5/Z/nwNCngOQBRDrBLDUlWeVHFwGWUcTYIGrwhENYCbTL3vZywoUkVy9U2hZHWTxNANjeP/EUQdYgJJ7+ReDKNBDF95AM4ETLx/eVfQxIPJ84z1V340wnskLaq+99ir6OVcdeLTVvR5BHYAJ1JMzA+QCvrg7x44qUbduAIvWZ5999tQKVMT+R9LLpjdc9BV/B6jAJD89jyca+MbF20EXhgAgpT30HeBU/R2gHg8rYA+kYkiAVDzbhAjSVwglKKlNfa6uPNC4jwOjgGodpE7nCTfcb+pkPD0AlrBhh/Dd9MCajLbPWqYCqUA7BRJgtdMpzxq8AqMGsCgANIlECDuSnWE+wfY1h5AGRa5W0R5hU1tAl95Cqg3/ZxeCU6ILeDm6TiQFu7ye+0o0BxsfXK7bkmx3i7xsVnZtJnEffN+c5Cc2AZYNwUTApAfWDL0iAdZof2V6AVg8hXjKePlzpQWwvMw7xYSrtYEMaAIkHM4FV4SHTQdrvNi/+tWvFpjCG8ogw/uJh5VrlFfeppjgGmzALvmbeHXFl7ETNFEGHj9WUXiS1QGWlRcHl+GAH8CNpO0gh5WUJsBqgg7ADlwzUMZRB1jCE2PnxLpmTS+0Tj2mfg4dXvKSl5SdEpvhAurtOXZQRNfpZeME3lqgkPvwLjOQgonOV3eeYcINAxLW69oNYPk8vOYkZHdEuGe33u85sSOkc8E8wJOXVIQyAt48r0AnXlOSrvMe0w/1hRNOOKHUSz/RVlbb1I9XmEM+A20KkumPjBL9jIGhrUAux3R9plsd8vPZU0BfkgMLpHQkwJo9bfNOqUAqMH8UkK/TQk7dA4sXeOTcmT81zZqMkwKdAJbFVps+1dNYTGfnxt/rObDYd2xe+WltDuRgK5gjCO3joe8cuWw/97nPlcXMOPzdufLqAktsfIub5qZsPv8ALAvhwgZ5VsUCOHvWpj8iN2x25DvHdowIBc9wfzCLJxcoYEGVLR3fw7Ar6wCL7QpgWUjOXQjHqXePb1kTYPXRdgmw+hBtgJf0CrBAGi9vXkwAlrC9mQCWFzTA4HCuBP7NrWvr1Q2AJfTQ4GRgkBfJqkUMRICV+yoHgHXQQQeVQcMAMhMMcm87HUqsKBeSo5kDC5G2ayBYYuCR6E5CaSF29RDCZhM5Fxzjcsz1OI46wLKKA2CBcaGZwTLyWNXzh03XBQIsSYLPKOB11jysCvFY4w3GM4ku9Ik8YgZ7+t54443l2fQFjWJHyKb3WhuAxUsKPLIa5XpaqVsTZIXnmQE8BvY4x2cGdeGj4YEVYZ2AXBjqQv7o7N0irwHgybvM3+QXo7PE7lbOXM/AUX//B7kkw6eJ3GZgWNOLLT2wBvgCajxKG/mOJMAaXhvkk1OBVGD0FUiANfptNIklZH+xL3m7G88tQokA8LO+6VA3gCU0z4ZH0lJY5JRWQp5ZNqLDvWPHQIuxbEpe9RYlAaTmwV4EpERIgFL+b0GeZz6AJWrBRkxNe9DCpzBCUQYW4ANkRTSERVXzAyGJIjVEHgTYinKyKZ2vPiCc+kijwyYX8ZE5PifxmzLYOifA6kPvBFh9iDbAS/oBWAaKAFiRHDte1PWiW4npFWDpLwYjL3o76YUHVh1gAUogloEF4Npiiy3KCgnvnTp8CBATZQKlJFEHNCLRehNgSd5oVRP4cS8DIa8d3mcGnZmSfPMUMvmO3QI9tw6wJHoHTAAa0IbHmLKAZOBRE2BN97v7ynPBcwqAanqGKaMwOmGefvp9q622Kl5rvI2AHh5ZDGADtzaS0L1+1HXsBrCUU/u4T4QtGtA9h4t27DoYg3oAKz+bgEt7MgCUKw4eZbymtLv+qi50pCf97OzIy0zoKU2ASuXZb7/9iqbaWH21uXxaPLSsBoJc2jXKEc9l5w+qAAAgAElEQVRLgDXAF1DjUdqLB5aVUkd6YA2vLfLJqUAqMLoKJMAa3baZ1JIZv9lfbDb90+9sOgutbNZutlX9c7aeTXrY+e4D8phvsHnjAJ88i0eVw7OAIRCqaf/7nC1qHhCeVM5xj0hxwl5tbkrF/nUe+9HisOuVCxAw51AmtjyQ5bn1jZWaNjy4FxsWeY7nWUzNvKuT+o0ZXL0TYPWhdQKsPkQb4CX9AKzwwAIA6sn4mwPGXAEsoEIsO2+wcBu2wsNtuDlA1stkxUWuLNcbwBwBsCIZvXOEr1n9MRALewRJwJCZXPMNgmeccUbx9AnvribAcj+eTjyIDKQGW95jwt0iAb1rOnliaSfXBwQC9kCv6QY+cIdGvL0YAHJLgT7AkufbrSgAnRUhrtfN3FfRDbsBLPe58sori0YAoPKDUPSQs2o6o4UG3g+d6hX1dC/n2DmS9xTDAXwCOICoY445pqyiyWOlXRlKrpHMVlip/Fr6qNVAZRNyyOARPsjVXPs2j25G1gC/nhP5KACLd2cCrIls/qx0KpAKtFAgAVYLkfKUkVAgvO3rhekEmDrZXs1F4073Cru5vqFRp/vXnx/RGrEjeNjS9SgO92On+iySsQekY5eCVeFVNpPd6JpO9ahHH4xEQ2Uh5q0CCbD6aNoEWH2INsBLxg1gGUyACK6+oIbfreyAFULm5ITqBLEiNFGSRgAjoEnTA8vqCjgibxJY4l7i2k2o11577Yes/tQHTdvngiM8ruoDZ90DywAIHMnfBKy49xprrFEgjPj++spSDNIGvdtvv73kc7J647Das8EGG5RcANMNmr53X//610vCciDRs9Wdp5LwrEiQDzoBBjyeotzNeyqDML0ddtihwCSHOggbdF//rIAJ5+Nm7XqrSjyw9tlnn1LeephphILS+oorrihaeLbBnAt25OKqAzTldX9ebkAiDzzJvcE3fYDnm3oEZJTvAMDjzWdVTB42UOvcc88tz1IuHmkRFlpvswRYA3wBdXhUAqzh6p9PTwVSgdFXIAHW6LfRpJeQXRW27EyLy6FTpwiK6a6Pa+pAqwm3mhCrk23X6frpbOH6M/2/btfWf+/W7uYfka837c1uauXns6FAAKxrrrmm3C6TuLdQ1RdVbDDvCIcJdO5C2EK4AZ0ybgALTPFPGJ6QsvB2AnMACwna/T8GIICCN5KEkKCHXQhjJcQ5TQ8sn/HsAUsiFBAA2XXXXUuYHe8fv8dqjf4tJp63EUjCzXgmgCV5vNxMQuJi5z33BYTE7/PKql/vfJ5u7m+lyKAH8nzmM58pXk7NAbQ+iAJDckeJ23dPkAzsk+dLuXkmAUDrrrvuVHLNuF/TkJBvS0jidACLbu4FmIFZYNxaa61VoJ7nRrL50F6bgHkHH3xwgWnKJ48VqCQnVxMsgV3A21FHHVXqLI+ZduIpZwXsrLPOKgn3AwIKAQUGgUf3At/sMMlrTw4Fn/HoarsKOKCvYz6mqgqITA+s7AqpQCqQCkyvQAKs7B2pQCqQCqQCbRSoAyzzHgDL3DB3IZxBvQRYbbrW8M7pBWCBQwCAzi8HVpsQwvouhG2SuAMkvH0kgZQDC9CJXQjrcAWcEX5nJz51cAgfs6OH8DBx6ULsgAzwSojhzTffPAVgwnU3AJYQOvf3d2WQU8tEmpEIuoAkL3/5ywtcsSMhjyWgBmACd3j6hOtxeHcpU90DK2Lj5WyS4wvIdW9x8Moht5OcPyCTkESeU+4L/vIGc4BOoBD9gbS6u3P0otDJ1r5gmXo4nM9biV7qKVG63QcjDLS5s0rcz9/V0U5+0wEs5yqvpJTC9WgTIYq2J5Z0Xr4AL0swigaAlPA/99fO22+/fakbDaJeUReafuUrXykwHPgDxJRFXeT1srPMs5/97Cmg557CJ4V06gOeDZq5j7BGQNBmAgmwhvfume7JCbBGr02yRKlAKjBaCiTAGq32yNKkAqlAKjCqCiTA6qNlEmD1IdoAL+kXYAEJvCRmyoFlRzoAC0RxyDfEA2qmXQg7ASxgg8dRwIzwfgJ35HXiEgn4+BwgAbJAJkkflQHs8rlQNvDCToTq7fy6B5YyxjPsOgLQ8eyJHQkBKOCEp5C68LYC2SJZZQAUu/vF0QlggTtC7XiQ8d4CUZQb4KMN2KJ8PIzcnybqDMgJAzzggAMesvujZ3UKgXMPoAgAFDYZcfjOB4x4IfE0i22D615XTc+u8MCio4PHGC845Y72UE47R4JYwKLvPmBGM/Vadtlly/lAl+TywJIy0RUc5EFnVSBAXx3IAVJCR3l4CacMwEWTLbfcsoQzxu40oQdPMwAr8nL5OxAJqDl/ul0r06V7gC+gDo9KgDVc/fPpqUAqMPoKJMAa/TbKEqYCqUAqMAoKJMDqoxUSYPUh2gAvCYAlPAzkcPAO4gEFBAEQ4AGQAvbwwHIAWAAPmDNdskTwCGCy9W0dYAkjnS55IQjC00ZOo/DAEv4l+XmElQVgsJuHsDD5qnjgCLHzWcCNKBdoAl7ZgY6Xk3xZyhYhhHJeSeJeByb6LYDEc+vUU08tnlZR5tiVJMoR4XK8osAVZY3Drodbb7110VA5okzyWSk7T6/vf//7xaso7uvaepij54I/wIutfoVI1vNlTdddtJ32AoaAuLi/Mkjqrm7rrLPOQ7ydpmvLTiGExx577EMAVgAy0Aygc3+wyhGQq54Twd94m8nn9da3vrWEGgJMzfDF8Iy76667CvQDn+IcEEof0x95stUPEFKuNP2J9voWOMjzS1/IrYsH+KLp4VEJsHoQK09NBVKBiVQgAdZENntWOhVIBVKBnhVIgNWzZFXxwsgcWH0IN6BLACyJtOVKAlWAAbvUmfgDAiCIf7yY7M4n5Ms5AICcUjywZgJYvLR4TzkHPACaAmB1qmKEih1++OElNxIPG2F7xx9//NQuIPXrQAleTCAFSOOagG7KKan3i170ogKRNtxww3K/V7/61aU+jo033rh4iQkhbNbD7zQRJyyMz057wvLc372F5AklBNjckxa8ko477ripIiqTsMb6EfCF9jyWlF2CcWWS0yvgFUi1xBJLlFA/4ZtySvH88vc2XkLKD4ydf/75ZYdABi9o5P5veMMbCiRcZpllHlK2pidX/M7bTR8JD6y999675KvqFD+tTcDQiy66qCRN520FGCqLQ/mBJ9Dwta99bbX++uuXsMHI/9UEWAEu3Vd4orrQTtmUHyjjWdeEes4JD8AIfeQJJlfXTH1wQF+9fMw0CiTAyq6RCqQCqcDMCiTAyh6SCqQCqUAq0EaBBFhtVGqckwCrD9EGeAmYAcoAPzHJlz8KjOENEx4zYEA9hxQYxSsozmkWGYQAOwCv2D0P7Igk6NNV0fOElrkuclt5lpDA8OJpXqsOwvl46IBArgWZeJAJK/OPpxiPG15aoFGEEApvk0Op7o0TdfZTPZz7m9/8pkAYnljqw6OLJ5SyuT/YJ0/VkUceORUyqZw8l4S41XNVBaCJn14s7u85ys5rSXncF8ACrYCyNtv11rWJegiBtEtibDHsHHpo57hnXFcHWFF/nymjPuIeDmVabrnlHuJZ5e/1axjYQJaQSWCOR5vP6a1e2sdPkHGmRIJ1oKVvRF91L+2w8sorF5jYPHyuT9BTf/A7gAlWNus9wK9cPqqLAgmwsoukAqlAKpAAK/tAKpAKpAKpwIIrkACrDw0TYPUh2ghcEiCjk6dP/bPpvK+aOZQ6AZzprg0I0imUrBO8Cq8i54NwwJl7gCJARXgsNesUIW91MOYeAWnC0ypCB50PMkW+LZApAJ5zgRWeY7HjpufyQuJh1M1jKsrm++L+nune9bDD6cIuZ4KB9XDKCK8MD6/pylSHUAGlOj2j3sZNz61m20W7+DuIpF7165v9xfNmKl+zXFG3JsCr3yeA3nQgdAS+dlmE3IUw+0AqkAqkAl0VSA+srhLlCalAKpAKpAL/zwnBBmdyRpsL5S6ELbpFAqwWIo3ZKdPBremAVFRvJijWlKAJN5pQpX7PgDR1SNbpft3KF9czDHlygVVACy+t8EirQ5V6XicA6/LLLy/5pvx0Hs8gIYQveMELRqKFp9OwW+HaXBdwqOld1mynbs/q5fM25erlfnnuaCiQHlij0Q5ZilQgFRhdBRJgjW7bZMlSgVQgFRglBdIDq4/WSIDVh2hjekk3QNRvteqAqnmPgBjdnj0T3KpDFt5JwgTl+BJq6Fh33XWLZ9Vqq602lSTe3wPWuAbsOvnkk6tDDjmkhGTyntpiiy1KwvAVVlih36rP6nX9Ap8219UBVjdvs9mqVJtyzdaz8j6DUyAB1uC0zielAqnAeCqQAGs82y1LnQqkAqnAoBVIgNWH4gmw+hBtTC/pBpFmo1pNODJbz3RffZXHlZxN++yzT3XmmWeWIvPAkrR8zz33LLv3CYGrlwOw+t73vld2Zfzud79brpHbSQLx7bbb7mG7482GDqN2j2YI4aiVL8szPgokwBqftsqSpgKpwHAUSIA1HN3zqalAKpAKjJsCCbD6aLEEWH2INqaXzBZM6lb9Zn6lbue3/Tzuq8+ecsop1YEHHlhJgC6XlUTjdgO0oyCIZRc95/lcTPFnP/vZ6uqrry75q0Awu+t96EMfetguf23LMo7nJcQax1YbvTInwBq9NskSpQKpwGgpkABrtNojS5MKpAKpwKgqkACrj5ZJgNWHaGN6ybgDLLIHxLJ73XHHHVd96lOfKjvwxS55dgO0+55d/IQN3nHHHeXfgw8+OLVjo5xXRxxxRCVhXtNbq1vTDkrDbuWY5M8HFQI5yRrPVPcEWNkzUoFUIBWYWYEEWNlDUoFUIBVIBdookACrjUqNcxJg9SHamF4yKPgyVx5YdYAlr9VvfvOb6mMf+1j1+c9/vrr99tsLoHI0E5ZHc9mV8GUve1m1xx57VBtvvHEFdvV6DErDXss1SecnwBpuayfAGq7++fRUIBUYfQUSYI1+G2UJU4FUIBUYBQUSYPXRCgmw+hBtTC8ZFHwZBMAKSPW73/2uhAheeOGF1de+9rXqlltuqf7+979PJXO3++BjHvOYatVVV6223nrr6jWveU3ZfVAS99ilsJfmHJSGvZRp0s5NgDXcFk+ANVz98+mpQCow+gokwBr9NsoSpgKpQCowCgrce++9JSrIfJaDxnrrrVddeumlU9FFgyzjI/7PmMx0E2ANslvks+ZCAZDq97//fdmdUMJ2UIt3lr9L8L700ktXT3/600to4eKLLz5VhAQhc9Eaec/5pEAMY/XvShNgXXfdddXCCy88n6qddUkFUoFUYIEUSIC1QPLlxalAKpAKTIwCANamm25acjWzuwGsSy65JAHWTD0gAdbEfD8mpqIStf/1r38tLwEJ3uW58jOPVCAV6E2BTon/E2D1pmGenQqkApOnQAKsyWvzrHEqkAqkAv0ocN99900BrPDASoDVRckEWP10tbxm1BWo58FKT6tRb60s36gqkABrVFsmy5UKpAKjrEACrFFunSxbKpAKpAKjo0ACrD7aIgFWH6LlJSOtgEl3QKsAWfJddQqHGumKZOFSgSErkABryA2Qj08FUoGxVCAB1lg2WxY6FUgFUoGBK5AAqw/JE2D1IVpekgqkAqnABCiQAGsCGjmrmAqkArOuQAKsWZc0b5gKpAKpwLxUIAFWH82aAKsP0fKSVCAVSAUmQIEEWBPQyFnFVCAVmHUFEmDNuqR5w1QgFUgF5qUCCbD6aNYEWH2IlpekAqlAKjABCiTAmoBGziqmAqnArCuQAGvWJc0bpgKpQCowLxVIgNVHsybA6kO0vCQVSAVSgQlQIAHWBDRyVjEVSAVmXYEEWLMuad4wFUgFUoF5qUACrD6aNQFWH6LlJalAKpAKTIACCbAmoJGziqlAKjDrCiTAmnVJ84apQCqQCsxLBRJg9dGsCbD6EC0vSQVSgVRgAhRIgDUBjZxVTAVSgVlXIAHWrEuaN0wFUoFUYF4qkACrj2ZNgNWHaHlJKpAKpAIToEACrAlo5KxiKpAKzLoCCbBmXdK8YSqQCqQC81KBBFh9NGsCrD5Ey0tSgVQgFZgABRJgTUAjZxVTgQlSwDvtEY94xFSNm7/PlhQJsGZLybxPKpAKpALzW4EEWH20bwKsPkTLS1KBVCAVmAAFEmBNQCNnFVOBCVMg3mvs3//+7/+uHvnIR5Z/dbC1oJIkwFpQBfP6VCAVSAUmQ4EEWH20cwKsPkTLS1KBVCAVmAAFEmBNQCNnFVOBCVMAtPrtb39bnXjiidUvf/nLascdd6zWXnvtaqmlliogazaOBFizoWLeIxVIBVKB+a/A/fffX22yySbVj3/844rdvd5661WXXHLJrI1HvSj4iP9Tt/x7uXLA5ybAGrDg+bhUIBVIBcZEgQRYY9JQWcxUIBVorQC797zzzqv222+/6q677qqe8IQnVG984xurfffdt1p22WWrhRZaqPW9pjsxAdYCS5g3SAVSgVRgIhRIgNVHMyfA6kO0vCQVSAVSgQlV4F//9V+ro48+utT+mc98ZnXddddVCy+88ISqkdVOBVKBcVKA99UNN9xQHX744dW5555bQgiFDoJYz33uc6sddtih2nTTTauVVlqpevSjH10+6ydPVgKsceoVWdZUIBVIBQavQIwtANZGG21UXX311aUQ6YHVoi0SYLUQKU9JBVKBVCAVKAokwMqOkAqkAuOogMnCAw88UH3605+uDj300Oovf/nLQ6rxv//3/y4ga/PNN6/e8IY3VGuuuWa15JJLlnN6DS1MgDWOPSTLnAqkAqnA4BSIKAfjUgKsHnVPgNWjYHl6KpAKpAITrEACrAlu/Kx6KjDGCgBUvK/23nvv6oc//GHxrKofvK38A6uWX375aosttij/gKxFF120p5onwOpJrjw5FUgFUoGJU6AJsOTAMgalB1aLrpAAq4VIeUoqkAqkAqlAUSABVnaEVCAVGEcFhAveeuut1Xvf+97qy1/+cvXHP/5xxmoIIXzhC19YbbvttgVkCZn+h3/4hzLB6LZjYQKscewhWeZUIBVIBQanQACs//zP/6w23HDDksQ9AVZL/RNgtRQqT0sFUoFUIBVIgJV9IBVIBcZWgb///e/VHXfcUV100UXV5z73uer73/9+9V//9V8Pq08dUi2++OLVuuuuW22//fbVK1/5ymqRRRaZOt8EBNRqHgmwxraLZMFTgVQgFRiIAgmwFkDmBFgLIF5emgqkAqnAhCmQHlgT1uBZ3VRgHikQSdslzb3xxhurr33ta9UXv/jF6te//nX117/+9SE1rXtZCStceeWVq80226yALAnf5cuazhsrAdY86jRZlVQgFUgF5kCBBFgLIGoCrAUQLy9NBVKBVGDCFJgOYPWzU1c/19TlbuawmakpuoX8zHYz9lK3uaxHL+UIDfq5pn5tL1r22y69aKY8/Tynl2f0c/9edHLuOLRLL3Xqtz6z1S5gltCN66+/vjrxxBOrc845Z1qIFWV9/OMfX6244orVzjvvXO2zzz7Vk5/85I59KwFWLz0hz00FUoFUYPIUSIC1AG2eAGsBxMtLU4FUIBWYMAU6AazHPe5xZXLtX6+7dTWBVFsQ0Msktgkw+p04d2vqKFPbOvQKfXq9bxN69KJZ/Vkm+p3CpDrp0csz4nrP6qVN+n1GrxCo7XP6aZde276uVdSjLZhrW496e0ademl7SdLbPsv9I59UL21fr/tM38dObRLl846KPucef/vb30pY4QUXXFCdeeaZZStzu0LVy1X/biv3U57ylOrFL35xtdNOO1Uvf/nLS5L3Rz3qUVXoZYfDjTfeuIQoOtZZZ50StgiA5ZEKpAKpQCqQCiTAWoA+kABrAcTLS1OBVCAVmDAFpgNYbSfT08lVn/i2BQJtJ8v9li3CjdqUJ8oSk9421/QKMXq5Z/3e9cl6m+7aTx16rUu9HP08r5e2j/bvBca0BSX99q1e7t9sy377QZu2j3M8o61evQKoTn2llzr10vb1+7oOxAKa/F/96odzb7/99uoDH/hAyY/FO6v+va6fC2L5t9BCC1U77rhjdcABB1QrrLBCBeY70gOrl96W56YCqUAqMHkKJMBagDZPgLUA4uWlqUAqkApMmAIz5cAyGP/hD3+ofv7znz9scjidTCaNK620UrXkkkt2DfMKoGQSet1111W8HNoeiy22WPWc5zyn7enlvNtuu61MaLsdYYTw7Hj+859fvCy6eSwFHPjTn/5UXXvttT15riyxxBIlH0+bIybpv/jFL6rf//73bS4p59iB7XnPe17J89Pt0B7qbtIuHEui7DaHtl966aWr5ZZbrmvbh4cfXX/605923UGu/nyQQV387HZEu9xzzz3Vz372s26nT30e/XippZZqdY3n0Omaa65prZcb8/RRlzbAJ+py1113VbfcckurcjlJWz772c8uz2rzHNdIhK7tm3mkZvreu7/ndPParLe9XFV33nln67oo/wte8ILqiU984tQ1+qnvdn0XQs9gD8c77Iorrqg++9nPlnPi+c2HhheZ7/tqq61WbbfddtUrXvGKavnlly+grO6BxVvrwgsvTA+s1i2XJ6YCqUAqML8VSIC1AO3bBFjPetazqssuu6y4R+eRCqQCqUAqkArUFQCw3v/+95dJnW3lgaSFF164/G7SZnv6XXbZpYTltDlMXk8//fQy+et2hKfHfffdV6233nrVDTfc0O2S8rmJ5tZbb12SNbeZkIdRcdRRR1UHH3xwq2c4CSS75JJLCsTynJmeFXX5yU9+Uq255ppl8tzmcM9dd921TK7bHFGXN7zhDdUpp5zS5pJyjgn/d7/73WrVVVftek2AxZtuuqmEU919991dr4l2OeSQQ6rDDjusK/Cre8LssMMO1Re+8IVWz3CSnEXq8rSnPa1rqGI850tf+lL1ute9rvUztMupp55a+n7bg05gVFu93BcU+eY3v9kV+kQZ1Ed+p/32269tsYoX0fnnn19tsMEGrb4vbgyOvuxlLyvwus1BLzv6Cdnz/pjpqHtcvfvd767e9773tXlEOQfwBKPWXnvtqWv00/e85z3lfeAIQFUHVQGnOnlqRd+N+8c9HvvYx1ZbbrllddBBB1Vs6c0337y68soryzOEEApRbAOEW1cuT0wFUoFUIBUYWwXqAGujjTaqfvSjH5Uxl33Lluy2uDMXFX/E/+nFx3kuStDynnWARSgruwzKNitvY1LFlkrkaalAKpAKpALdJpImnHbuAi3qACuuO/vss0teGDCrzWGwBrDs7NUNLvULsJTjNa95TXXuued2fUa9zEceeWRPAEtC50svvbR4fLStS68AS/le//rXF1jS5ugXYJlof+9735uqy0xhYv0CLOVnbxx++OGt9ApQ0CvA4uElF9FTn/rUrpL1C7DcWJtom7YHcAV29uIZNwiABcR84xvfKACr7aEujO62AMt9N9100woo7AawogzaZrYA1rve9a4C29sebe1d4YkSvCvn7rvvXl111VXlEcIL3/nOd1a0jdxfbZ+d56UCqUAqkArMPwXCruLBfMQRR5TdcB0JsFq0dQCsM844Y+rstgN1i9vnKalAKpAKpALzQIHwKDI+mID5aVIWHlhRxbPOOqtM4PoFWDOBkvjs/vvvr9Zdd93WHljKNiiA9e1vf7tAn25Hvx5Y7tsLwHK+Z/XqgdUEWDPVJ2wGIXe8cHrxKJpPAEvepF49sCYVYOkzwu2GBbB4kgLabY9e7GKglIfgP//zPxfvL0eveejalivPSwVSgVQgFRhfBcLbVw0i5UMCrBbtWQdYvQzQLW6dp6QCqUAqkArMQwUArOk8sHoFWO512mmnTXlgxTjUyYNpHADWd77zneJV0/aYaw+sfgGWEMLwwOpWl0EArCiDZ/HW6yWEsBcPrNCr1xBC1w0KYH3rW9/qGnJZb7MTTjihpxDCfjyw5AxjdN98883dusvU54P0wHrRi1405eUnhBDA6uSB1Uz6Hr/3Yh/L68ZTFcCKEMJ6/20tUJ6YCqQCqUAqMBEKxMKwsWb99dfPEMJurd4EWATkzt0mAW23e+fnqUAqkAqkAvNHAZM5SZojSXczhNDAC2DxEOqW0yk8Eow1EUIY8GC68Ls6wDLAgz9tD7lpTFi7hfbVJ5pyYPEQajt5XXzxxUsIYS8AS+JrObDaJj5XPjmweslnBTbuscceDws7nKlegwBY2uLQQw8tObB6aRchhEJV2xzuy1MQjGsTQhh9UF+RA6tt23uONuGB1bYuQgcl//7d737X+jmbbLJJyYHVzUara1PPgdWmPnJgff3rXy/5zNoevO58J3sBWJtttlkBkZKgz3Qos3/6sf4iB19zB8FO12sHIX3afq211noIwBLid8455zzsstDVT++wXgCWc8E/gBUg850LgBU7FnbrG90+bxZ4uvZse5/m9W2va9sv8rxUIBVIBVKBzgrUF2xtLhKRCxaD2JKZA2uGntMMIVxmmWWqj3zkIxVDfKYjB7n8OqYCqUAqMDkKxCTypJNOqiLkvJnEnRo+22233cpAPNNkOcaQSOK+7bbbdhUzANYDDzxQJsu9ACwhhL0CLMmiJXFvM+lXeDkkI4l718r8vxMkou8VYAGEkri3HYcDYPEQiiPqNF3dAKzLL7+81Y530S69hhAqfyRxb1sXz+o1B1avAItGvQIs12gTAKstXAKwVl999eq3v/1t6z7WD8D66Ec/OuWB1a3d1cMipjx3vQKsXnNgSXIORHYDWMqk3N4p+guA1fawmyaA5TsW7WIXS9/rmQCW/hiQrP7/+nO9u+K96O/qAZS/5S1vKbuESlIfAGuVVVapPvjBD3bN99XvhGUmz9W2WuV5qUAqkAqkAoNVwLvbbtQHHHDA1AJQAqwWbdD0wLKdeZtdCNsamy2KkKekAqlAKpAKjLgC4QHBcyEmkJ2SuPMmkci5DfQJ8GFyt+SSS3ZVIM43bs1nl5AAACAASURBVF1zzTXVX/7yl67XxAkSrPfiGeVZEmrefvvtrZ/B24NHTZsJedz0wQcfLHVpo1dcQyua9XKAS5GbaqZnxWcm0lGXbuN9tAsjDFTsxZvs6U9/evGQant41o033lj98Y9/bHtJ8YpRFz/bHrQSatbLYec5Ozh30yvuaafOq6++utWOndEuNthps0lAvdx33nln9atf/aprVaIdgZ7nPve5le9M20Ndrr322uKh2fZQF89pC23iO3nHHXe0fURpCztpArIOEEzC3FtuuaUS9hiH8wJU+buk/4DkH/7wh3JKJ0+luAbw8wyeV5Lsey96R4GNAbDsgnjhhRd23YWwbd9pLUCemAqkAqlAKjCSCsQCiEVZ44VdCB0JsFo0V30XQqcDWLabZoTlkQqkAqlAKpAKhAIGWyE8PJNMBDsBrKZabcBM20lbTLA7TSZns5XalHm6541aXfrRpVd9eapE/oY6EGjz7GjTbufO1CbdNK97p3R7Xr99bBAeML22S6e6dNOq/l13bje9urXbgn4+m7q6F5sXaA4oVddUH77tttuqD3/4wyWH1b333ltgbEwy6nWhDe+uxzzmMdV2221XdhgEYt3DP2Bajq8AWOuss04rgLWgeuX1qUAqkAqkAuOlwH333Ve96lWvKgsnxpsEWC3aLwFWC5HylFQgFUgFUoGiAA+so48+etok7nWZ2oCg+oS622S5X7jQa9O1KfeCAqzpdGoDGLrp1Gt9O53fCziYDVDStsyd2qabZr0ArDrAaQKLtmWcy/P6aZeANX5206pe/1EAWLOtZcCoCCf0O48snpYXXHBB9dWvfrV4RPLwYx+H3k3QJZ/aS1/60kros1BLaTcArfgu/Od//mcCrNluvLxfKpAKpALzUAE7a9uV96qrriq1S4DVopETYLUQKU9JBVKBVCAVKAq8613vmkqivKAeWM3JdDcwkwDrfzphN50G3VUTYA1O8V7avn5uL+Cr3sd6ed7gVOj/SerDY1DYop8mDtddd1117LHHlsT1PK6aHoV1eMXj6hnPeEZJ0L7PPvsUcNUp51kCrP7bKK9MBVKBVGCSFBBCyGM3AVYPrZ4Aqwex8tRUIBVIBSZcgV4B1oTLldVPBVKBEVIgPLCE+Enmft5555WdU3lgsYfrXlf1Ygs7lGLDyrhdQNdYY42S6y7yYDWrmABrhBo9i5IKpAKpwAgrkACrj8ZJgNWHaHlJKpAKpAITqkACrAlt+Kx2KjAPFGDzglUXX3xxdcopp5QcVZEbK3YdbFZzkUUWKWGCkrRvttlmxesqvEfDWysB1jzoHFmFVCAVSAWGoEACrD5ET4DVh2h5SSqQCqQCE6pAAqwJbfisdiow5gqATXYWPeqoo6qvfOUrD9mFMKpWD4cVLrjmmmtWW2+9dbXNNttUK6644lQC+G5SpAdWN4Xy81QgFUgFUgEKJMDqox8kwOpDtLwkFUgFUoEJVSAB1oQ2fFY7FRhzBeyceuONN5bcVT/4wQ8eltA+PLCEC8pztdVWWxV4VQ8XJEGbvGAJsMa8s2TxU4FUIBUYkAIJsPoQOgFWH6LlJalAKpAKTKgCCbAmtOGz2qnAPFAAWPr4xz9eNqPolO/qcY97XLXJJptUu+++e9ll8ClPeUqpdX33wjY7OSbAmgedJauQCqQCqcAAFEiA1YfICbD6EC0vSQVSgVRgQhVIgDWhDZ/VTgXmgQK8rK6//vrqsMMOKwnceWUBUgsvvHC1yiqrVDvttFO10UYblf8vtNBCU+CqDq0SYM2DjpBVSAVSgVRgRBRIgNVHQyTA6kO0vCQVSAVSgQlVIAHWhDZ8VjsVmCcK/O1vf6vOPffcav/9969+//vfl6TsO+64Y7XvvvtWK6ywQgFX//AP/1DAVptwwU6ypAfWPOksWY1UIBVIBeZYgQRYfQicAKsP0fKSVCAVSAUmVIEEWBPa8FntVGAeKABIOe64447qmGOOqW677bZqr732KnmullpqqSlw1cbLaiY5EmDNg86SVUgFUoFUYAAKJMDqQ+QEWH2IlpekAqlAKjChCiTAmtCGz2qnAmOuAHglZPCRj3xk+fnHP/6xeFkttthiU3/jeRXHgkCsBFhj3lmy+KlAKpAKDEiBBFh9CJ0Aqw/R8pJUIBVIBSZUgQRYE9rwWe1UYJ4pEN5YCwKqppMkAdY86yxZnVQgFUgF5kiBBFh9CJsAqw/R8pJUIBVIBSZUgQRYE9rwWe1UIBVorUACrNZS5YmpQCqQCky0Agmw+mj+BFh9iJaXpAKpQCowoQokwJrQhs9qpwKpQGsFEmC1lipPTAWGokC/GzQMpbD50HmtQAKsPpo3AVYfouUlqUAqkApMqAIJsCa04bPaqUAq0FqBBFitpZrXJ04HSeYyfHVeCzqLlUuANYti5q0WSIEEWH3IlwCrD9HyklQgFUgFJlSBBFgT2vBZ7VQgFWitQAKs1lLN6xObkCR+/+///u9S73r+tbnIxTavxV2AymmHaIvUfQGEzEtnRYEEWH3ImACrD9HyklQgFUgFJlSBBFgT2vBZ7VQgFWitQAKs1lLN6xOBKvMsB2Bil8tHP/rR5f/NI0HK3HcFuv/9738v+seOpNqjvvvo3Jcin5AKPFSBBFh99IgEWH2IlpekAqlAKjChCiTAmtCGz2qnAqlAawUSYLWWat6eCJDccMMN1QUXXFCZoIIma6yxRrXVVlslMBlCq9P/v/7rv6rPf/7z1a233lraY5lllqle8YpXVCuuuOIQSpSPTAX+R4EEWH30hARYfYiWl6QCqUAqMKEKJMCa0IbPaqcCqUBrBRJgtZZqXp7I8+qmm26qDj/88Oqyyy4rXj8rr7xydfDBB1ebbbZZAqwhtfrf/va36owzzqje8573VL6jj3/846udd9652nfffatnPOMZDwnpHFIR87ETqEACrD4aPQFWH6LlJalAKpAKTKgCCbAmtOGz2qlAKtBagQRYraWadyeCV7///e8LJDnttNOqP/3pT9Wyyy5bHXTQQdXuu+9ePeEJT5gKJ5x3lR/xCvG6uuOOO6pPfvKT1QknnFDde++91eKLL1694x3vqPbaa6/qiU98YvXIRz5yqhYZ1jniDTpPipcAq4+GTIDVh2h5SSqQCqQCE6pAAqwJbfisdiqQCrRWIAFWa6nm1YkAyd13310dd9xx1cknn1zdc8891ZOf/OTi4XPggQdWiy66aKlv7oA3vGYX2nnnnXdWRx55ZHXqqaeWsMLllluu+rd/+7dqyy23LBArjgRYw2unSXpyAqw+WjsBVh+izcNLckvfedioWaVUYA4USIA1B6LmLVOBVGBeKZAAa141Z+vKCBU8/fTTq8MOO6zkWXrUox5V7brrrtURRxxRLb300q3vkyfOrQK85H784x8XL7kLL7ywJHRfddVVqw996EPV+uuvPxVKmABrbtsh7/4/CiTA6qMnJMDqQ7Qxu6S524kXcn0L2VgNihWh3I1j+gbOnWPGrPNncWddgQRYsy5p3jAVSAXmmQIJsOZZg3apTtiGt912W8lzJXSQrf3MZz6zOuWUU6oXvvCFBWYN6gh7Pj29OisOYMmH9cUvfrF65zvfWf3mN78p7fXP//zP1bvf/e7qcY97XPk95ktxlwRag+rBk/WcBFh9tHcCrD5EG9NL6gPZX//61xIH7qUdxyqrrFJiwR0JsR7eyH/+85+rn/zkJ8XdmJbcjJdffvlqscUWG9MekcVOBXpXIAFW75rlFalAKjBZCiTAGk57m9P8/Oc/r26++eZSgCc96UkFHvk5lwebkPeVHe54XwlRk+vqbW97W/VP//RP1RJLLDEwu/pnP/tZ9ctf/rJ4FYFmq622WvH+Spj1/3sALQAsfeWYY44p7UYvWn32s5+tnv3sZ1ePecxjygX1hesEWHP5LZrceyfA6qPtE2D1IdqYX6LNuc5+5CMfqa655poywK2++upl5eF5z3teqV2+pB/eyH/84x9LTgM7mIBZSy21VLX33ntX22yzTTFU8kgFJkGBBFiT0MpZx1QgFVgQBQCsTTbZpLrqqqvKbdZZZ50SqpS2woKo2v1aE8ETTzyxOuqoowp4eP7zn199+tOfrizQztURgAM04n111llnlWevscYaxWZ8wQteMFDvK0Dm3//93wugscD60Y9+tHrFK14xUgArAFJEg0ic/uhHP3pgc494Lmh19tlnF+io/RZZZJHqTW96UwGPT3nKUyqeWvX5UM6N5upbNNn3TYDVR/snwOpDtDG+xMv49ttvLy9rKw7a/7nPfW4ZdF/96lfP+SrVGEtXPK+s1oiZP/fcc8vAZmXv0EMPrTbccMOyHW+ucI1zC2fZ2yiQAKuNSnlOKpAKTLICdp7beOONqyuvvLLI8OIXv7i64IILEmDNYadgf913331lcVZCbr8/5znPqb7whS8UO3euDs8BQr761a9W//iP/1j97ne/K4+SJNzvoMggD/BO/XmE8fwC0bbYYotBFqHrsx588MHqYx/7WNmtkX5s6de+9rUDhVhRSHMidr2E7trxqU99aoFaL33pSxNgdW3JPGE2FEiA1YeKCbD6EG1ML4ntY9/3vvcVeOULw62Y59Uee+wx8EF23GSkn+/Ld7/73ZKQ89JLLy3b7RrkGAxWWB31LXj9nis249bSWd6ZFPjXf/3X6v3vf38xOuX3uO6666qFF144RUsFUoFUIBX4fwrw0t5oo40eArB4YFnoymNuFBgmwOKhf/zxxxdwxOZ7xjOeUYDIS17ykoGFDoaqdYAlLcgnP/nJ6jWveU35eFTsUTs1+n7ceOONxZYQzXDsscdWCy200MA9nkArXnogVuTCAkHBx1HRa26+MXnXUVEgAVYfLZEAqw/RxvQSbf3hD3+4Ovzww0sInJwAYvP333//4iqbL+p2DUs7hihPFIOvEMztttuuOvroo6tlllnmYTqmru10zbPGQ4EEWOPRTlnKVCAVGJ4CCbAGrz0Qcv/99xcQMmgPLLYgb3xeWGw+qSWApBVXXHHgQnQCWDywIin5wAvU4YGjBLAUj6fkAQccUH7SCVATepn2+yj0lvlfhgRYfbRxAqw+RBuzSwzqwt0kldxxxx2rK664oryUX/WqVxWgtdJKK834knYtV2R9xf/FqUtuKNF7JK4UXueej33sY8vnbY96yN2oh9/Vy+dlY1XLig1XaACQVwqjhTdKPQl+DoBte0OeNw4KJMAah1bKMqYCqcAwFRglgMVu42Xin4N9Us83FCFwoZfPmxv5uDbyAbFpfB62TdiIkQuKF7p/3TYDiufWr6tfw+aM5/q7xcL6c5vtWwdYFmod9RBC5fQvnqf87tnJ9qz/La6r61Pfoc7nFjV57Pz6178uXnYiHXbdddcZ03LU6x+aLkj9o3zTASyfxzOjLaOtoi3r2nT7/tT7VZS/TbtrVwBLXq6f/vSnpU323HPPkkw9dv/zbG1Tt5+b7RRREdGmnfpd2/rwoHvLW95SQgflDnvZy15Wff3rXy9zmrTnu/WE/HxBFUiA1YeCCbD6EK3PS2htdcjL0UvZi3oQsfHhVg2wfOITn6i8qJdddtnKRHSfffaZNrmk8gJTBuSLLrqo+sEPflD94Q9/KIlJDcxckyUq/eY3v1m2DPaif/3rX1/yPnADDsDFkAN5wnACeMKNfpwAVr3Zlfvqq68uXljf+ta3ijG41lprFahl95JM+tjnlyQvG3kFEmCNfBNlAVOBVGDICgwaYLFJwp4KOMGGMzGSk8kOyrfddlsBQlJHrL322tXTnva0spuyc3iesE1BA4uawsMjHYL7CBW3c7VDXiVJ0dlx6in5tQ2B5DNi97GBVl555an7Nxc1Y1GVPfz973+/PFeZJVz3XHYnOxXcuOmmm6p777233Mt92a6eHwuFTcChLhFp0AlgsWXlJ6PDkksuWa266qpTdngnWBKpN3hYhT6Sslu0VC+f+zsbmD2tHnIo2clOblR6TneoF93oYD7gOsAt5grqTnd2t+fRh0fXoosuWrSfDhB2yoHFbr/nnnvKQrZcrtpS+dU/diBXhjimW3hVX7uYK7N+ZcfDW265pSxqi0BQfmU1tzEnaNrN+ouNDX71q18VLznlcE9a0S/KoF+yqf2Mfh0/Laibe/z2t78tz9f/HHYF13f1b883D9HOAddmeiUoF4AmDFQ/ftaznlXmS1KD1OuRC9JDfrHO08cnwOqjYRNg9SFaH5d48TIe3v3ud5cBycCx9dZbl+TpzVWF2XxBGkwdBgzeQQaccG82yBtw6gNW/dmSYZ533nklIabB5i9/+UsZMLnWvuMd7yiDLYiz++67V7/4xS+KsbPeeutV733ve6sXvehFpV4MkdNPP736zGc+UwYcBsi+++5bvfzlL3/Ic+srXK5rrrz0IfmcX0KP8MJiiCizwW+33XbLAW/O1c8HDEuBBFjDUj6fmwqkAuOiwDAAFm3YcGwosAIAYpNYfGSvhKc8W8UEX1iZHddMnt7whjcUaMQ2PfDAA6s3vvGNBUq4H9vtkEMOqb70pS+Ve8v7+da3vrWADODmsssuK0ADWHA+cACwSFy/1157VWuuuWZJXt8EROzHnXfeudyfDQhoAC1f+9rXyrOACZ+Zpyiz+9r92TUSfj/96U8vZYxD2aYDWAGGdtlll5LH1Llgh7A/z6wfoaEyqePnPve5kvcUDAHP5EuywyCb1zm0/sAHPlB96EMfKr9bxGU3x67e0/XZH/7wh+X5dgVXtx122KF4cV1++eXlGQAW2Kb+2sU5QN4rX/nKaqeddiqwr9POfU0PLOXS3ieddFIBmeoEuik/EEhH7b3ZZptNpROpe2TF/7UvuAMCsuktbke/Ukdl8ZwVVlihzBPY+fQK0EYbsIunk7qzm9XNoW6ujWfZGf24444r94rrPV8/o4/nX3vttQWghlMA0KQ+QJb+rB2e/OQnT2nUnFvV66ht9Tv9nEb62dvf/vby/QDR6vOkcXkHZTnHR4EEWH20VQKsPkTr8xIrOOCGFReDsf/bhSNezuHqGkZIn495yGAevxgkbatrAPBCt9Lg+Z7ZyT02kpVbEWFEhMcYrysGCQhle17eVwwCXz7nWB0ycNvR0IBgcDN4ykngHDvB2JnF5+GCHYOa5ImuYfi4j3L2qkUnV/AF1XG66z3LAMrYu+SSS4qWBkwDaxMMzlUZ8r6pwKAVSIA1aMXzealAKjBuCgwaYIU+7Cke7xbXLFKGXRW2VHjGs1dAA55Y0kkANGCJzy2sHnTQQQUGOE9dQAewio3GM0aIFe/zG264oUCICDuMRVPP8zcePm9729uqLbfc8iERB+7L60sYmfKCKfvtt18BFHZ5Bq4i5LHuXea+YJgFYDlclaW+cY7rO3lgAVjADTuYDeqe4BdgIfdRHYQF2FAv9i89vvjFLxaJJUNn4y633HJTsNAudu4jabsDPBHCyA6cKYxSOg+QhA7gDy14/gBmYKL61+cHUS7nglhsT3CwuYlKHWCxp9ddd93STnfddddU+KRyhq6ewRtNZMU73/nOYtvXbel4LtDGK4kW7HnlC7gY94p5jAVui9vmC+x5z9A3eEzRB8By3/CQivlAwEP9ki1NjziP59inPvWpsgkV76t4VpSvHuKqPq973esKgOJhFovineZZEYKobADid77znaKBuY3vRQKscXv7jl95E2D10WbDBlgLAhzqL6vZhj/dpKyXu20dDCDivA0CXqbC7QCs5q519Xp1K0fz82ZZYnXIQAI2ea5dUQy0dkmZ7uB9ZaC3qmSAkfB9q622KruGMBisXBlErfC9+c1vLgOwZ1vBsYpm9cSzrfh98IMfLBDLF5QLtMF18803n3LrtXoiAbqtfgNyHXbYYQUG0aatR1pzMGur3Ux6z3TP8DBTN3WkGYPFqhFAF27zbcvftrx5XiowTAUSYA1T/Xx2KpAKjIMCgwZYARCAH17vbCpghf0BzgAB/gk/A4x8JhqAjcbzhe1lgZPNBcbYnVo4V3g1gTzAgXP8nbeLZ5no86wHdPwNeOGRD/zQgB3EI4bdx+MLNAu7Svigv7GdHO7FHrTw6RphiDxhzFOEvt18880FXLBJI4qB/cUrKcCcMgFY8pM6IgeWnw67RwMTcjC5D08uNqvF1eZBm29/+9sFwoA/7Gd2Me+i+m6SvIrApK985SvlFmCfKIVumyMFwOIhR5Oov+dGOKF7KCcvL55BUX86inRQ1xe+8IUPKXodYPlAm9KLBvoA4EVnHlTuqZ08g+bAm1y59dBHn9FLHXnGuTbalReYNvI351io11b6HdDoXgCg0E+2tmeaf2jL888/vwBLhzmFCA73jbLQOTRUbwvvJ5544pQnofKqj3MczuG1duutt07l5OXVpi1ArDpMbM6V/O56c7QLLrig9HF2vDlaPdVL2vPj8PYdvzImwOqjzYYJsKaDTm1AhHNipSfceFXf35tAqA9ZyiX18vm97m4aLz9/awucAKzwwFJGUIlLb3OFJuoVz+v2wpypnIwNL2OrKtdff31ZZeE9JXdTPd496hBaibkHpqy0uD9wZeC22uP3KLOBzwBv5xWDjjBF4CkGPyte4I6BxxdU7gCDq9WjWGkx8FnloIXBjCEhX1f9PlGu6bTopEEbqBn9yH2b7TDTZ1EedbZaQ19GCNBn0GU8hYHTrf367Z95XSowDAUSYA1D9XxmKpAKjJMCgwZYtGHPg0JsS5N4NgwQYmGRNwqvFp7tbDGLj4AUIAGORBoHtimP/ZkAVti/4AFAYHGT3QZguRcw496SYNPBwctLYvN6WF0ALOUJAOcebL/tt9++5EUCp5SN940QL95J4fUlIgCoUzf1co/pAJby+VwqDwukZ555ZvHIAmDYqOrQDHHkvcaTjX3qMwuw//Ef/1E8muqHsgEf3/ve98ozABvAT5lmsv8CYPFGCm8zYEqIJvDD7hbep10BtG984xtF1wBeQJRdxNmfbM84AmCxrR08iDbYYIPijWQB27naxZxAqKJ/AQVBGwvXQvfCRgcleV6BheYGwJS+xJNKmCCA5Xr5rKQdAajcW7kt6gKi5j4Rkuq++gkvPsCJZiChxd+mN5n78gw0F5GCBWTSRz3fNe4BZOkjoCyvQM/nKGD+o6yezy6PEMXp5gb6A7j55S9/uZTVM3w/IhqkPg8cp3dRlnX0FUiA1UcbDRNgTVfcTi+XGDDrP+uQqRvYCPfUthLVy1AHavFCrwOstvcMgCXuH+CpA6z6M+oAa6Z6NctSB0tRPitZBjPbwRp4rEL4v5WO+gpLPDMgjkGCYSK3gcPgLLcVY6i+cuH/+lDEoEfy9tDE86cDWHGOa62AffzjHy+rd1zOGSXyEsyUADOub8KrenvUNZmpnep1atue0f/oyvX9rLPOKgOrvA/nnHNOSXLfbReeXp6V56YCo6BAAqxRaIUsQyqQCoyyAsMAWCbgJvkgC7sMDGK78UABQpqLooADIAIcyG0U9lI3Dyznud+//Mu/lFxMJvj1UDfQAZgAQniDKQuQAGABGZGAve6BFc8GUAAm3kL1HeDcg6YACVvU/dlbbFoARmRAhE928sAKDyswxKKuhVweQzx+LOgCTnUI5F4giDDFH/3oR8VzDCyS+4sdXD/AQDrwZnId+5VNWPfS6tRXmwArQi4t+K6//voPyR3lM7qCWMoAxHmWeguJBP2iDeoeWNrcvfyNp1aESgYwpKM6KgvgQyf6CvmMww6L0olECKL5g/vxAGsu/vLuk1IDAJU7VxmFRrqnBfDogwAW+EU7B8AkNLO+sO7vrpeqQ44uP2nguSArwKeP+Fs4MphPqAtPMkDRISKE55bn1+cUzbmDPgbKnXHGGeV+5iIiV3jGxZEL0qP81h3fsiXA6qPthg2wrHBwKQUuvIi4IfsXoWPggH8OL16DZj1poQHNwAuUeLFIGMhF2vXq5iWPyuscPnNvXkj1ePdOshnYJBiMGHThdjGY8hKy4uIF7JlWH9zXc2cCFtMBLC9o9Y+Yci9V9zSYzhRC5zqgyXVe2gwEA2sMAO7DNRsosxKmLlZhuDk3E2oGjKEZo0a7GDC4AzusShi8rWDEbik09Fzn0t/hczrH7iwzeWA5X/lpLdGoFTGDH3d0g5/dP2KwsatIPQ693mZ00A+Uwz9lop1VGQPPTBDMudpTW7tPJAlVR3XiBq9tJOz0/E6Dl+sYQAZfrt9cpb/whS+UlcbmalIfX9G8JBUYKQUSYI1Uc2RhUoFUYAQVGDTAYu+xdYEAwIEtKgRPHiET/ubBlmETCvcCW4RzOVw3E8CK8DEpMEAC9k7THnNvMIR3vlxawA5bVrgeqMWe83sTYPHW4envPPZ2fcE6AJf5ABAGSLAvPeuUU04pNmobD6zwwqKTZOQOi6WgFw+rONQTyJATiS3I20zZRQ80bUreRsrMXnR/ABEg67YA2wRY5iYWc+WiqtvxAVq0DZueNxRIxm5ll7I/2cwRfVIHWGxawEtUgPJELir1pB2b24Kr69ni2kb7K79DH/E7+5benscjTZ+JsM24V8wjeMHx1lIO17tGu4KpoYn5k/mIOYZyAGTaoAmwaM/rDmSjA9tenxIhEqF9kYcrImI8X58AQunlnvQCGc1P6od71qNolMN3xqHNLeJbjI4jAdYIvmznQZESYPXRiMMAWAYGu4CAKmLlQQcvHECEu/Bqq61WEiVy3/QSAgNc4zMvOKs98aJG5A1kBg4vUy/+7bbbriQIBGok5XN/L2kvPmAI2OAuzFPGCkkn7y5b4J599tkFgrlOSJuXpTKLoRe/DXy4VnmAI6sbnu3+nV5y0wEszcY12ipSxKJLUGklwIt3uhem5xuUrGAAJ1YXrL4BaTGQ0GePPfYouQ4cXIhPOOGEh4E2xoYDrDFY0Y2GyhOQzkoXo8LKmNUq0M6KDA8rdXNYEfE8OhsUDHhWkzqFEDofuLKipA6xMsJ2fgAAIABJREFUnS74ZRUIfIq6S3S56aablnLHYOX6cFm2y6J2jsSXsVuLPsN1Pdymm4CRAcAYsFKjrkIcGTYGTcYLDVxj8I5EkM2vmXpKbsoAAOTob7DWF+mVA14fL6a8ZGQVSIA1sk2TBUsFUoERUWDQAAsoYMewlXgMsR3ZPjzb6x4kzQgHtg6vfPmNHN1CCNnicg6BGGylsG862dGAGiAj8baDjcojS74jRwCssKXlw+JNVAdJ0Zx1L/kALjx8PB9IY7c6YhfCZg4sNmUk63YOXYT6sScBChqYF5iHOA/M4WEmHM0zADJ1YffWD+UCsEQssGPZi+xdtnY3+68OsDyTx490HCBSM19T1F87Cw8F0iykA0LgDt3C46sOsMxblMd8IiBgPcrD/9nRvKEs+LO/jfHgj/M9D/gRSudc9fd/i7qd2sbfnGeOp4zhXACiCXU0N3A0AZYFc/M7tnv90DeUh52uPKAs+1rfjsiaet+IuvEC810AT9VJ29JFyKij3m8DYMUcklciXfVD3nrpgTUiL9V5XIwEWH007iAAVgyYfprgA0MRxx7b+tZfqLxWwKtwa7WaYdAUk+2l6AUYAMtLimeQgcP9DcK8pXjz2O0vVmi8hKMcBhVePjyTQAYvp/pgEQOilx19DABenhdffHGBLQbl+u4oIbvVE/HY4rKtLDRfxDOFEIJiVhW4LCun64WkNVcL4sXrHHUHiww+ykwvMKm+6gOMSSgpyaQ6evGDT02oEvoAUuAZ7Rwx4MWgRHcuy1YoaMiAsKpilcI9bW9Mt9iFbyaA5Xy708h9FbH6zXJFm9Hfih/jwt8MirSSn0C7gFdR3iire9ECEJWbiwGib9SfUU9MCXLKbcAQoa2BixHKWAND3ScSszcNGEnsucYDqcqoXrHi1XSx7uNrmpekAiOjQAKskWmKLEgqkAqMqAKDBlgWIcEWIIO9x3bkPcQmbnqv1yEW25udyO4L+3K6HFgW6thqFjHZksL9poMY/i5cjydOwCS2FLsqwvnqACvsQeVthug1m1gOKHYtuyuggwVgx0wAS739oxW70T3CZuPR49lsV3a/OYU8XBZzAa7wSmra9e7n3PrOekCXecl0XvtRnzrA8je5ygA+IEq7TJfP18Irjy8ebnSzcM47jH2rPGxwgFE9lR1ABAfroKfebmxfcDF2HLcY6x4ONjK7nl6eJRzPQn6AqLhP3a72HHMI+nFSUA/2OyhmHudoC7A8n7bmXu5rMVrIazNxfbOPWLQHKJXVdeYtNoqKHGz170DoQi91BUjZ+p7l/5kDa0RfsvOoWAmw+mjMQQGsgFdABA8gnjJe0F4S/gENXtqxE4rPbL3qp9UGL5YmwHJP4MdAAQ4ZyAys7u3l6ACrYicV0AMwiy1/DZLbbrtteak2t421ouMFHu7SVhs8A5BxT5DCS1m5/HNfZfV3XjwGOzHk9Zf6dADLOV7SBj0wR/kM9OAMj6ZOMeHqLqacEaFMtAO8DICOcO0F8kw4rawoL/BkUGm6NnumewJYBgurFlxvY4tbg7Z6aysDnQHESkgALInMmwDL/ehi9YcRYyWlmcSdx5jBNUL4ApjF80I/nloglOfTmeu3dlcvz1Af1zDa/P93v/td+bt/tOAVxSUavKtDwSbAAiEN+MJatatreXFJINkEWPUB0Pm8Bhkyng+M6ucB3DIXVh8vp7xkJBVIgDWSzZKFSgVSgRFSYNAAi63D5mBvWSjmxcPjxSJnp1QG9YVl9hsP9/BEmQlgsYtADMCEfToTwHKuMgEibEl2NhARuZDqAMt92OLsuogimK45hZ05j/3PtmJrs9HaACznqLt5hTrYZY6dCaoBHMIt2b48tMBAEE5+KSFo5gGdFlmBHzBMviQHO5P3FltzJg/8+i6E7EaLp8oTc5amd1uUnS1twZS3lnPAKXWxqNwEWMqgXs6Z7ogIDrrSMwBWzAnYs2CZMkowL8l5JESfDmCZQwjHEx1h7mHeYV4lLG86gHXssceWeUb9kCLG4jObX3kk9ufUYK43k13NOw04NS9ynbYDOQGsTm2i75s3+r6AXtrAbunmYfX+mBEVI/SSnUdFSYDVR2MOAmAploFM8sVI7OeFgmqLPQeRuBR7YQABvHkMRlaRwuXXPYTm1T2wmgDLOV6wBkpuogZXbqPAF8jjhXbuueeWF6GXohcRiAWOgA9ehuGSGgDLvZTBfQPeGGQMclZXgJfLL7+8hDlacVBP0MJqlgHFak7AJIODQaeZxN0zPYfbqgEclPESN2goB4BSNzbU0zkGcCtnzhUOKexRjrC6QWHgAom8mNXBwOOl3Hzxx/2VX04E/7iHW30KMGWANmipn9UX7aUcgFcdYMlPwHhqA7AiB5YQPZ55kQOLN5rVj1iB8jyDSGznyx2Z5spmgAa39CN9xMF4tBuJ1SxQKXabYZhpv8iB1gRYdPFMhhaDBkSlKS8zbVlfEasDLPqCh0I26aw8wFzkTctBr4+XU14ykgokwBrJZslCpQKpwAgpMGiAZbHVZN1CKKDChmHDeV83PYHC48RPNhUPc/aTg40zXQ4sHljmDNIpWOBlN7NtwrMp7OdoBiAIUGMTsqPZUuHN7pxmCCG7TsL5bh5YQiVBIqGSbDb1lErE87t5YEXZ6CUUjh0trxabEBjhKSSqwS6AvHgieTtvnulAIBim3GxSh/Kw5SMSYbpuGQAL5FEPkMk8gG1d98Cqe075v0V6cww6uE6ZtUfY3XUPLPYxW5S3XES6NO1/WvBoEgpZB1jK7TPwyfzNZwAQ25pNHm3vvPh/2LrmQ7zEIvoDhDKfEYLoHJqDUZF+xAJzJ4BljqVfsOX1VQBNqGGnvG51nfQNucF4/Glb0TGuY9dPB7AsyCsHMMopwO6WylRP7p+2/Ai9ZOdRUZoAy8YLIoGm88Kcy6o/4v/UZ7dz+aQFvPegABYgAoAYMBxe0CCFF31AHn+PLVOtLPAwAlBCSjChDcACWbyorCh5eUcH8PL2MrSyYlA1uPrM6oq/Kcd0AMsL0E4aQvQAsXpydSs0ymnFBXwLDyr1legwBj0gZSaAxegwCEqmqc4Gcf/n+VM/IucSF2GDg/OsFHnZRk4v57sHTymDhroafICm5hbA9XuH1jyYABkDOE3Uw33qrrSuAxy7ASzeV/Tu5IGlLqCZwZ53nvZRX6td2q/edsoBcFmh4nkGGhlYDDjAaISCxgDDgKQpzaMe2pAxJddAeL5xG9cv3ZtGjAB/E/cPmjmvvnFA6FX/iruWMRfbKHtOuCGHUbiAX9W8PBUYCQUSYI1EM2QhUoFUYIQVGDTAYjvL2Sl9gRA7NosFYgubEWEQdmHYubHICNywPcNWmc4DC1xhr7Gr2Z88bOpHHWC5N/vUvYAvRyy08sLxOXAjlxH71AF4uC9AVi9r3eZyHVAXkQWeyf5V/l4AlvuwCy3whueUxU02MzsZFBK1wauJ/aqc0x3mN+xjNqwy8Ahjo4pSmOkA8ORp8lN5RCiAQyIw6qCkDma0sxy8ymMB2YIpCEe3CG9sAiyeR87vFWBFe7KxRW+Y23A2AJPq3mjhuVdvJ5NvOvgeKKN6aqNIiA5gmXtFft7pABbbGkRSPzCNptEenRbiwyGAjuZkAeWEBgJhvAebUCAArPmbeamFaPNIZXIPm17FkQBrhF+6Y1y0OsDSx+z0mQCrS4MOAmB56YhVR/F53HjpgC1e+AaH+ksoXoQ8pAwG4IeG9YJp44FloDaAcwMFdiJUrp5jy6DqJcWVmWeO+3o5iiP3YvOvHkKoM4EqPKpQ/Hr4XXhXqSNvKMQ/vJZADN5dkTRwphxYAXIkiwfJvLQZIJ4pt1V4h9HBYG8gkOBe+/E0M6AEwKl7a4E1/oFsyi1vlEFyumOuAFaEEEqKaHCV3DEMlDYAK8olxBEoMigZyN0nkn5GP6JltIt680Kjl/MZXlbqeEg5p+mBBawyyhg1zp3JRbkOsDzHAGm1R32sEnFD7raN8hi/b7PoE6pAAqwJbfisdiqQCrRWYBgAy6KeHKyR98cOgeCFnKphW9cn77HrdOxCyNadyQMLwGLrsiV51LCbPaMOWMKuA3/Y2BYX2dzuy0Zir/HEcg3QxoazcOkQbcDmZePFwm8Ag/Dwsbjquew6tpb7Kpf5hXvaEMoCdqck7k2/AueCI2xkYXQWyeURM/fw073NC9iv0ktMd7gPLydeYQ6QReiZxeKZgEcTYPFqUm7RF3VoEuWORXhlFpppbgQIgSwgVuRo7QVguTcd5YgS9lf3wIqyaxOLzOZLFo3pL0m9fuD6mJ9ELl1zFNcATcps4dvvFpPjXAArdiGkGbtbJEYzx5h2EZGjX/u/57NB5Hdr5naLPm6xXDoWOphLscMtimtLejXtetf5Lmh3czAeeDzF9CPzuHoalwRYrV+BeWIPCiTA6kGsOHUQAMvLhGstAq+ReLV4URnMmrmY6vCFCyjQxKvFQGKgRMgjibtz6zmw1IlnDVfXuldXDKhRZwMw7xgrQzx0vFztgMH12nO83Jo5sAwO/mZQjZDC5qDtpQ02WR1yjrKoJ+jlmCkHVgA2ceaeddNNN5VruAmDUxHy5m9CFg2UEVtuwDOAxeBVH6S9wL24A4hZ7YjVrU7dZRQAFt0MInUPrFghsTIC2OlH+o5BjWt3fB7lr68wctM2ODIytK8VNiGBNG0CLKtL9GScdTuaAMvqnfBU3yn0XLhquB7noNdNzfx8XBRIgDUuLZXlTAVSgWEpMGiAFfaI9zPgAiawkUzaQaPY2a6+GMqDx27LbMTwgnLNdCGEAbACNsmxBUpEPqSwiQERqTLYcdJW+LsFQfYo0AQ8+BuPsQBYUX5hdIAa+MPeri9MKqNUE+4LirF5wyOI3egebN22AMv5Fh0tPCsv0CGigO0GYgBa5gnswZlCedjvvLjMacx3lNuuhsIymzls6/2xCbDU1SIvj7h11lmnpKCoz4mEDpoDie6wmOuQakO0il0EA/L1A7A6hRCG9ryZOAVwQFAe4AmQEk7Ijg77lu2rjZSRIwEN6QYCmV95RvQRAEs6E/M8f6OxdmuCQtpasPa5KBa/00Yf5cFVz5nlM+3Pc8XnrvN8OdfAKXmz6tEzUW7PtwhtXsUxIEIqOSU085ilLT+sN+r8fq73hjkvqJ8eWC3behAAyw5x3GmF6RnUuZ56+Yl/rrscN4vMCwv0AnC8SO2w0S2E0IBh5cOAOt2hzvJheSEbQA2CPHKs6ETOojrAMqgJW2MIODe8e9y//jLzArQqYqXCAA64xYDtmplyYMUqhhU0bq4Am9UGA4QVtEggzigxMHqGgYLXFQME1OkUM2+lRl18OZQBzOkUOx5azQXAMihFCGEbD6zpAJYyAqEMJvpqC+fqTwEA667M8X8rdgY0fU976VNCBLlpA1ggaYQQ0sZqHD27DVR1gAWOMcR4Gjr8X79lvLjPTJ5cLb+qeVoqMBIKJMAaiWbIQqQCqcAIKzBogBX2jgmQBTs2LjvJIpr8R6IeRDz4Xdnspm2xV3gfWzs81wEsHug8pyKZuAVDk3vnumfYRqILeAsBGuxdMIMNawGWrQYAhPe/BT4wCHAK2ykAFls2FiHZ22CMHFTCvdi4bHbltZjNM8r9lddCdeyGyGOJndU2B1aUQd3BFYCDfW3uoMzub0LJk0fdZrIH/y977wElW1H1b5fpRRREyaDkIFEuOSdFkCxRgkQJcgHJSTJckuQkvEgOouSMCF645AySkQuSM5IFhdfvW0/53+O5bfdM98x09+nu56zVa2Z6Tp9T56nqql2/2nsX1yLnE6IN4YdwYFdDPP8RDmsdIWBhl8d8Ag8kxDtCGImWiE2HmEdxHs/PQjTlgw32a9EbifexYWMXQj7fXwhheGBVE7BifoaHHIvxzD3gRR1R5wh22PR4NSH6UPfUEeGGLNjDM0RA5k88W3DkmohSiGOUmTkOdjmeYMzDeCFmYeczf8Gepv1wD94jRxBiI/cn2oZ2ia0PU87le8D94c8iNzyLKVaK8zcY0KYQTnGK4OD7wiZYA80DStwFWbQOIhACFn0ihyGEdVReKwQsEhwiGjBY0snFjh50VP0ddEgMooTh0cENtAsh18J7ic67v9AtrsUAjsgQsecIFgy4MQgWBSw8xhA4aFCVHmPF8uNeS4fHwMVzMrgwMJLni4G1Vg6syhBKBCk6alaY8A7Dy4jVBMrGihniFasEdOKIOawe4e5aTcBCNOT/rNyw8kAdsBoSnXfRY4n3yipghXHGAMogR9vg4P2ikDRQk4c1gx4GGgNrpQcW3nIYRAsttNCAA1fxvlwncoaFIIpLOYZMrHgOVDb/L4FOIKCA1Qm1ZBklIIF2EggBC095bAXyP910001NTSvAfQjdQ2jCq4qk1LyHTYLYhCCCKMBkiVQXeKhgqyJyxM7g2IlM+KsJWHhgMWfAgwohDI8cbBwWEhHHELzwuiEUDcEpbEq8/lm0JidXRBNgu1V6YCE2UH7KR5ghogY/sa0RGBBFEKiwqcL+xV5DdArPnkZCCMOGxJ7mmXmesI15FjzMsJ/jvVrtiXvjEcXcI5LJ4/WD/Y0IV0sEKQpYPBP1QLuBAb/zWUQ6rk++WVKA8PwceHnBk0Vy+MY8gnOHywMryk1dYeMi0DFPit3JqRvKSL2x4E7d48mGOEU5aCNEt0TuqyIH6olyIozxvNQnHlK0I4Qu7HNyUCFOcS3yjOFphhhHG+TgvrQ92jbXYH6ER1fcnzkTjgrMP2ODp6LdXvTAYo5HJAvfGQ4EQGydykNBq529avfeWwFrEHVLR7DJJptkxZovNqsjuH8OtAtII7eiU2NwQNyhkyM/EIMOP/s76MjpQBAt6DDryYFFCB8DdzF+vPIedMao+ITnMYAwYOPKSvlQ/StzYHEt3JYZLAYSsEiYiXsvAgsePgxoiEx0erU8sIoCFnXASgsiy+jRo3PRMTq4P500AhSDKtdiYMNQQWyh3MWONQZznonOm8GV5zr//PPzLny1OuVWCljh7owBVUzizvPSPoohhFFevOTwUKMdcSBUMpDTPuo5YM2qD3WER1+lgMXKH+7p9QpY8QysdrJiQ72EYRXx/A549dSM53QCAfoHDHq+I/xOn0RYr7neOqH2LKMEJNAqAtUELMLV+rNNh6Ns2LeIA9j0eA8hJoU9yPWLk3ZsFULQ8KaJ3KvYuLUErPDAQpzB3mGuwDOFoFB5/dj9jZQNLJyyqMsR3laVHljYZXjzYOchWMTCZZwfz4EIhx3H3IUoBWzbRgWsIgeEMcQZPPXjGchjhb3Msw50cG9ENvhgn1L3CGBEQFDOarsXcs1iCCGsCJ8kPI7FTxK1x1G50My14/lxBKDOhlvAYu4SR7DCA4xnJE1K7ORe5Bi/Ux/MJakfEvNH0v6iLcwciYgFhFJ+Rv3FOXCHP/XAe5yP6Moci3kN80qO4nNH3XF/7HvCVfEQpCwxd6smYCHeYtMQukk9Ul8IWjhbVNrv2vMDfRv8/2AI4IVKH0mfSBvFmQINwF0I+6HJwINCzcpKCFi4wJJMcbgOYp0ZSBGWcM3FW4jJPZ11f50BKw50bsTQM5DVI2BxTVZTKnfLKz4Lz0wjwVOKyReDAe6lhP9FfHTRA4vVJjo3OFUKRcXrYjSwQsCzxW4ZGAW4b3PUI2BxHs9KzgJeCDUM1gyEPBs/eR/Bhh0+CG0kJ1i1TplrkcwTrzRyfdHR00Hz3JVHcRDif8O5C2GtEMJKAYvQTwYSBCx482WOLy91RvnJMYXhhIHAgI+bOa7JjRysGjHxZpAqCli0TToN7o0R0chBe8KgGDt2bG5PMC7uCtPItTxXAmUlUEvA4rukYVfWWrNcEpBAqwlUCljYFIg9lYmnm1Eu+mlW9LFLmOwjPCAIRRoF7FhsIKIQSJiOPYkdFTtzs0iBoFMZQhi7ECJ4YYdyEDGAXYb3S6RyQBgjYoKoBXZzxpOqKOJUE7D4LPYt9h1hXNj9pAzB44jycU3s+jnmmCPbvpSbRdwQr4IjOZCwc7G/ODgfIQTvnlp2Mp9hsRzhCNudBRlsSzyE8CIq5k2qVV9cGw8pFowR9hgPWRhnAR4xpdpRFLCoE0I/ibbg84hE5LtFKIoDTzM8lFh8Z16BMFQtPQULwAhQsWMk8wTKUimExXV5ZsIWY8c+ohyYA1WO6djhtCPaMYvqeMVhs0fydtoL8zTEJ9K5kJID0bLyOiFM0h55RpK000aZd2CHc3AN5gQ8YxzcHx54MpKnjPkbfyM6wYE5AfNLRD3aCF6POBJwVLNPeI+y0H6pf+qPemCuhccg16o8tHOa0WN5TbwGQ8CCBs4UtEsFrH7aBh0CIW7EVfNFRqkmkXh/cduNNrXYjYRVGAYjKgSPG7ylIvlj8ZrRyRI/T3w3qjvv4VI6UA4sOjvyR+FSW8tbisGKzp2YdwQMvM0YrLlXNJYQsBgAuA5eSwhTlLcYEsb/+ZsXXk4IYQiAlBeDhfDHSFxYr4AFCwY2BigGBzplXGkR0HDFpfOmnFyb94oJ3itXMXCnhTsx83S8xHiTxLw4kBc791Z7YFEmRDoGbVbd+BIjYFE/fJmjDmO3GYQ4Yt/DRZjYfwYajJsYFLlmuDhHu4r8DvEzBi7E1ciBNRQBC2OD6zC4E3IaieBjxbHR74znS6CMBPj+YOjxnYsFD3J/KGCVsbYskwQk0C4CTM4RDcgJRL+JPUi+n9jYpRXlwg7CxsWO5CfpPLBVWaBm4ZOf2CiUFduK+QC2ETYxr8j3GjmwIok7AhYLk3g/cW3sKCIHsIGxRxExEOq4NqFwRVs8bEx+Fj2wQsBid7soN3YeZSa0j4VH5iXYV5S9OOYU7Vk+ixBCeTgiHI3zi/fmOUOM4PmZA+Ddw+cR98jjhPAWeZsGEi64NrYsIhypQ/gdwY0FUcQwxJ1KsakoYHEfFj4RzTioL54bpvwOR8QYPNSoGzz5apWJz0Q4JOwR0OBWS8DifVKcMFfj4D7wrnaEtxl8sZmJZiFcFL5RRto4dRT13h872hxtiLqGWXjzcT3aUeWuhJQJwYr7ItLS9gj7gy/zVz7HPC3yZ3F+CKaVQhZtjmvgaMDGBwh5tDGEMxazi20mWAzUDlrxvfYe3UeA9k/UESIq7ZU+Nub6rX7aL/x/lQpBq0tQ5/3oLIhRRsCKhHusftTqvOq87Din0Ukg3iACodjTARC3TGJv3JcrvZooE4MWHQodCSgHCiHk+pzHoInwwwDCIFTcwYRCcW0Ufzy7mHjxGQQTBh1Wiygbnyl6YNEJk8SRvFQke48VtPAg4rp0gqxycB1WBBBUWNGiY2Sw4dxauxBWW0FhAMad+tprr82DBKsjCDeIPKySscKAAVEZ6hYCVlQAAx8utHwRYEiuL1xjKwe/dnpgMRgxaJMvgMEI8ZG/qcfK/FGwRfhke2aMDp4fMRRXXwyn4tcuQkVp2+QT42AgL7o0F5O4NypgBWu40l6oD8rEqg2GHitItJ12KOiD+Z76GQkMRKBSwMK9nwFXAWsgcv5fAhLoJQKRZxVvmljQxG5BSGjHwSJgCBSIAtgmRRGnVpkoezUBC1sXOz5sR66PLcff4W1Vef2ifdafgBW2HJ/nmrwQKKpFQAx2qhX2Gz9J+I3XEfnKmCMwVyFqBE+sRu035hd4sFHvfJZ5BbYtC/D9CVg8G4vNLA7x/NQP4y2iCi/ei8XqeuqtVW0s2hXPGilYivdutuBDffFd4/7V7JBq7SPmbnwWh43wvuJcxEZseQS4ynlRpQDWKsbep/sJKGANoo75AqP6s9oQKw/EgQ+ngBUCD26tvMLNGIWRZNrkwqLzoXMPF1HEIDp9KpX3+QzCwEAeWCF44GmEVw8rAbGKREeLRxIrImx5y70YEHDbRUxDdIoOq+iBRafGNXBFprwIK7Eqw/8QPnA9RqxCEIEjK1OIaLiihqGAyIaYRJJD3iM+nGes1sEzYCM6EU/P6gL3Q3TCkIAFog0rVbFDSVR9pYDFdXClhierHIhDhEoihhVXxQYSsBCNeJ7K0EzCPMnXhdcZB2F0eE9F4knuX08IIe2PcrJyxOoPO94Q+hh1QvuAK3WIsYHnGVx4BnKT8VmEyPDEoiys0JDwEUMLYYw6ZNcU6jaS3nMOYiZee40KWNGO4cp3iGtQTtymcX+v3A54EF9PPyKBUhEoClj0GfQn9KnVVklLVXALIwEJSKCFBBCL8MAKAYvFNgSs/tJbNKt4lR4ojYgKtQQs7DoELI6wsbHRwgavdo96Bayw+4rlrrYZzmDFq6K9HDt74zVPGhDug72MrV5P6GBlneFFxDyHlCkIK4gq2JiEFlZ631XmwMKuZeEesa7yqOU91qw208h1K+cdfLbae41cs55zw7mhv3oKbkWHg3iP+QvzNqJxmA9SP8zlCNEsCpfFdtbId6eeZ/AcCUCAeSRzWfQBjmWXXTaH6jYqoA8HzY7ywEKciJ0dWCUg7rJa7O9QwDDxIcYZAYifCBGo9cSl4zaH6yedB26sdOp4RxHqFysQ/OxvF0I+x4F3FKIJLqTsjsHqB59jUCGZJcYECbdDscdFmFA8RIdix1QUsBjQKBsCB55YiD+4g3MPBBeeh5UbvKaiDIhiPGskN+baCFiEGBK3TaMMAYvPVHaKPC/iHeIQidspQ4g41BE7neBN1V/jptOFM6GYlAVGiCrUN6tNDJJx32oCFiF8MON/AwlYYaQhEDFwh4CFEYeAhECIlxpb3pI7YaWVVupb/aOMiKYIVtQN7YKJMYMIqyAcxAPzHgdGBqtUXJOVKc6fd9558y6AXB+DAS81BMCrrroqc+Tgf6yM4UUX3BAcQ8CiTXAfyo+xOdARgycei7GCQ32TtD9yJwx0Df8vgU4igJFHW8fIpv3TfxMGUs3g7qTnsqwSkIAEhpMAtg92Dh4e9JXYFNhihIC16yimWWikDNhcLKZWhhB+xKf9AAAgAElEQVRiYw9GWAlhqlYIITZdlDXKWRQiGil7tXPD3kW8Im8p9j65wrCzyTFFSgjGtmq2+UD3ptzY2iz4Xn311dlGZX7Dgjq2ZzEXWGUOLNK5IKjw/B71EWikXRS97pgjIFxhyxDZwXyONs7cjflL5dHIfeoruWdJ4D8EcLJAC0H74EDAwtGmv43jmsWvowQshANUZ4QExB4EE8SC4VaaEaQQFPCAIpSQjr04QBRVblb0CZNjgCFEhYkT8dAIJYga4YqLeED5Cc/jICklQgnJCDEgIp468lTxN/dBwMCjim1TCSmrnICFgMX98dKKHVeI9Y48SrHqxH25Jg0NAYNwNj7P9YsHZUTg4SefRcyiA42wxcrGiOhGviryXhUFLFaGWC1CZCyuKlQOtpSTF3mZcE2GHdfB442wuuBYvH/UAWJcUcAi1xReTtU8sFg14trcC/dbBCCEPg5EPwQsBokQsEh0j2FXTNCOJxQeZbS98Gwqtj/aJ95dMKadkq+BiTT5JRCh4og6idW6qBdY4dWFuBR1zf+4L3zZGpj2iFcg7RNBrNZRbKfhYcbzoaDjPYawRpvSK6VZ3avXbRcB+lS+dyTJDQEL8d5dCNtVI95XAhIoIwH6SgQLFtKwaUgpgP07nPllh/Lc9XjIxDnY7kzusRuxv7CTsHkQsPqbJ9S6x0ACVjGv61Cesb/PUm7qhZQaLGyy6x8iBrlMsXfD1m10HhQLx0QKsHBMSCHzCGzKWCwP27daEvcIIay055vFoZeuG+2RxWp2eCNSh3Q1tDdSvjBvw0Ggss71wOqlVtKeZyWnHPpF5Ktm/o0AroDVT30g6DAwkWuq2QIWnTgdB6suJEtEfKDSEGoYSOgkYneU2L2EpJe4KiMUFAWsqNSigEWnw4DB7hds9Ur+KFxEMSQQNCIfESIDubfwgGKXimrJEIs5sMhZwI4XiB2EuhEyg2IfgzCdH9dglYUGiEhFrqXKQRjRDoEHDyxcpLk/cfbV4tm5NkzYXpbdVggd5CBkkLLx2WLIY7GKo/ONFSzqmNUfOPI7iTUZJBHCOIqu2dFRUy94NCEEcr0QsGBR7NzhiyhEXXIgMuF9FCGosMfQYVWJZ8DlHCGMMMyi1xdtjzBEeCBYwpe2Egftk2tHbgSeA+83jA+MQla8ULBpYxw8O20JjzPqGoa88KQrlp86xWBhFxTaIYkbKSuGWS0DIuqd/1OXeHDhQcb7GHa18h20p1v0rhIYPgJ8J4sCFl6NCFh6YA0fY68kAQl0PoGyC1j1EA57kH6fnKzs5ofthac6C3VEMFTmdapXGOO8Wh5YrRKwWKhlwZW0GtigpP5gV0W8sOpJQF6NYdjuLIiyCzjhiNwHexSbmvlWeOFh3xNaiJAVuxBim+uBVU/rbPycaJtsDEYkCKIlc0vqnSgTImtqRbXogdU4bz9RPwHms+gHEfVE+DlzW0MI6xCwSA5Oh9tMD6woBh0BwgeiB6IOXk24KCPIsCsKHkKIDvyOyzUrWJSNFRG8ZRCLOJfrVApYeCYhSDDg4rrN5AqFHXGC8EJcQ9mpkIGE5Oq1GkdRwOK+eBghUNHhIbTg5odgwsGKGi9WWFhlQzSpNqgjCiHE4BGFiBIiWq1BkPfpaGnUfAZRhkaNazICC39XK3+1FSPKjHgWwhsiXySYjxxd3C86adxr8bLgvhwIO6wmFsMOeR8BCDESN2wOBgC2r43VK4wC4nipQ7yxEPYQkorJP+P5qWPaAmUl6Tp8ozyIV1y7cjcb6hmPNnKj0aYwFGLLZbzAED1RshHUqhkFrCyyHTCqNwMZdYz3FJ+rlly/2IY5Hw862hy8OB+mbIpQdBOvvwvzTAmUmwDf4T333DOvJHMwgcH41tuw3PVm6SQggdYSKApY2DHYh0xIsGsb9eppbcnHvRtlDwHrwgsvzH09NjoLkbUErOIVauXCareARRlJ/4EXDnlnYqGWBVg8imNheTB1FYuc2LTMQYg+wBbGwwvbl4VorlvLA0sBqzktPuYTzDNYKI86xu5HtGQ+VUuoUsBqTp141X8TYK5NZFJ4YJE/GwcNBax+WgirKXiQsEqAyEOoFdDoZPubwA+10UUHz/3p3BnsWXVBZEIkCaU8PLPC3be4O0k1AYtBlVAxrhH5sxDHuD7CVyRRLIo21Z6lmAOLQQehjCThUQ4GdELGYIRHEwNOf8krQxyKkEbKTsPsr3FSfkLqEJv4HIMqAh4rNvzeiFsrYhBeWOQwwBMKoZKJKJ5ctQZLhKCoJ567WqJE/h9bL/N7hGryvMU8A7EqFcn6axkFUd/FZ4trVWMV5eMnBgL5rhCWqGvqrVjmaM+VA1E8Z9wnylar/cc9yWmGxx9untwHb5Rzzz03/xyM0TPU75Sfl0CzCSDU0m/gKclB7kAEZwWsZpP3+hKQQCcRwOZkNzsWYbFrWHTEtmYRr5PsA+yd6PcRfOaff/68CLz66qv3eSqFvV5ptxXtwGLdhQ1V9MDi/3jrk0qi6IHVLFbMC4ioII0Icx8WXRnXWIAt2o1DvX+kxIjnL0ZcwJMFd34yhpJ/iQTwCljN/aYX55VFuz/acXPv7tUl8N8EcNqgT8UDi7kn/RCpbRSwBhCwEDZYUY8k5bjQ4u3STAFrOBpwpYDFNRGwEHiG6gFTFLAY2BCwWilM8Gys3uy44455UKUuuD/uxSR6a/RA3MHbjXA/wt4Q8PDmYsdAklWWva4bfd5mnk/dIJThTQc/BFiEV9oMSffbtU12M5/Za0sAAuSbw+Bn0w+OxRdfPHtXKmDZPiQgAQn8hwALadhbiFYskrEoTKLwWWedtWMErFh4ZG7ADoos3BJuxQIqYXDYOiH2NGpDcu2XX345hyXCigNvedJ6FCdtQxWQarVJvO8R0MITBzsf27oyR1mz7k+5XnzxxZyoGY8gnhlxELu8HXlv/O5KQALtI0AaHJxVcIygLyXvNqmQ2tEXdEwSdwZWQtJItI1nDqFWDCjkoGqH8tdI8+lmAQuvJgQnEr3jUsiK1Prrr58TjMfOfI2w4lyuSR4svIZiy1hWu8htUJbEoo0+UzvOx4gj5xWei9QR7XDdddfNYhYejGX/3rSDmffsDgKEQSNgkcyXg51QyfPRipwl3UHQp5CABHqBAB5YeNQgWmFnswDJhAQBqJmiyHCxDfGKsrMAGmk+EK+wcYo7hLOAQVqPWket5+XacArPLa7TyrGEZ4iNnZgoFjf/aUUdcX/EO/hy4HnFqxX3Hq524nUkIIGhEaD/Y56Pxy5pg+hfme+zUKyA1Q9bBhAm3rju4lVCjih2fGMnvbJPxLtZwEJMJEkmySUJVSRGG+GJBPH9GQr9fY0YLJ977rnsbUcdswJFKCEuzFyXkDuP/gnwfcHde//99895tzgIo+JvErgPFJoqXwl0KgH6W1aKCSHES5eD1eIrrriipZOOTuVnuSUggd4hgDBDYmgWhCNBOML/QDv3lYVQCFgIPITY8ZM5AfYnz8Z8gVQdpGtAdEJ0CRGo2jMURRl+L0u4Vq3wx1aISLHRErxacb+ytC3LIQEJ/IcAfRCeoIhWzzzzTO5HieY55ZRTFLD6ayhMyI8//vgcd02Cb3boQ+AgFrMdyl8jjbqbBSziYUneTmPmYNc+GjOeUoMd6CLvAEntCbNk4smKE8kLTzjhhD4BpiyGRSNtoVXnkiQedrFrIQIgXnHEK4cR16qyeB8JtJIA/QKbWCBg0XfQD+HmTF69WjuitrJ83ksCEpBAWQgg8tBXkl8WAYvQQTZ9IbphsDZcq58t8oPiJYSIRbmxGdk4h8Tn2I54lpGyAzGGVAqVzxZ/l1XAqsa0VTZwtVyvra5j7ycBCbSXAP0AG8Vtttlm2ckEe5rNJdBl2qHDdFQI4WmnnZbYeYMs+Oygx4Qcj5xWuvIOpvl0q4DFc+EhRf4rwtVY4cL7iuT0g/W+gm8IWBgaGB/E3mOU4LLMtsjE3w81d9hg6rFTPsMKJCFUiFckNeXAeCOMikT+HhLodgK4ObORBH0HBzleyAWn52G317zPJwEJNEIA24q8mEQ3kM90xhlnzIvD7IDdSQIWIhbe+tii0c+TQoHNaxDlEOSIEMCDnxDAyo18OlHAaqSeh3KuAtZQ6PlZCXQHAfoBbOqtt946RznQz5Kqg8geBax+6pjBia1xDzjggKz8kchwn332SSNHjiz9ThjNErC4LoYHoZWsnLU6iTuGAkosOxBQlumnnz5ddNFFaYEFFhjyt5XrUed8KYqrTDGQdophNWQQXkACEmiYAFuC44F4xx135M+ySsQEbSjCesOF8AMSkIAESk4AAYu+kRyzCFjklz3qqKNyot5OsbNY7MQGJok7L0IIsRXJe8giK/0+G3kQLYCYxWIo74XQVdyZu5M8sFrVtBSwWkXa+0ig3ATIlYiTClE+9KGMG6T3aXRzjOF4yo7ywGIlBQ8fElKzq8gOO+yQ1b+yb+VK548nEatazz//fK63TTbZJCdCG8quWFz3nHPOyck3MTxwi8YQQUhqdmPi3mPHjs25rwjXwQuO3Wt22WWXYctRFZ5Y8Kq2OjYcX4BuvEZshxxtQNGvG2vZZ+qPwJgxY7KARbw+B+PEqFGj2rJKZE1JQAISKCsBbEd2kP7lL3+Zc0ZNNdVUOdKBjXk6ScDiOSg/Aha2D4LWNddck0488cTsmYUXOl5YCy20UBax2J0wvAYQvKqJWJ3y/GVtW5ZLAhLoHgLMJUnYTsj5O++8k+f95MBmk7Vmaw7VKHaUgHX33Xdn5e+BBx5I3/jGN3JYCGGEQxGBWtG0qHRWuQjnil08CLfDlXkolc512XGFwTkSV5IbjEG3FYnt8ZDivpF/gMbcjBCd4uqPBkUrWqz3kEDnEqC/uOqqq/JYQY4+DmL0EbRa0S92LjlLLgEJ9BKB8HS/7LLL0jbbbJPef//9LOywUIzX6lDs01ZyDBsbAQt7OOzQa6+9Ns8RyKc66aSTptlmmy17YrH50+yzz57TXkS+rAgpLC6Wam+2sha9lwQkUGYCzPXJQ33wwQdnPYPNMRC08NZtx1jREQJWeOLg8cMgO3r06Kz8kZAaD6Sy50MKj5hiw2RgjB1OeH8wA2UIO0VPpW6coClglblLs2wSKB8BErbjocsqEQdhJHi9tmOQLR8dSyQBCUjgP/lG2al4nXXWSW+99VaelOy22245r8lg7NJ2cMXGDg8sBKwQoxCwSLHBQgaRGiwazzHHHDmX6lJLLZXmnHPO9PWvfz0ndsd2rgwpdLxoR216TwlIoIwEIm0RkV70s/Snl19+eVpyySX7PFhbWe6OErAAtvnmm+edpTgWWWSR7CJMOGGZDwbHYjhXUbiKcg/GUCiGhhXzRLWKRatC0xSwWlWj3kcCnU8Ar9Bf//rXeRKGxyuTEsLPl19++Y6ZkHV+LfgEEpBA2QmEbUUaCJK2v/jii9lW3WqrrXLoXacsiEY0AHlZQ8DCpmZ+cPjhh+fUHSFOkWoDEYtNbXhNO+20Of0GkRxxTkQxxEJz2evR8klAAhJoNgEiyX7xi1/kBWHGjimnnDLdcsstaaaZZsq3HoyOMZQyd4SAxQOGF9O2226bva7YLpdB6OKLL85b5JZ5paSWuNQO0WkojcXPSkACEig7gb/97W85CTGhIxyEVV955ZV599IyjxNl52r5JCCB7iIQAhYJeX/84x+n+++/P6eEICSEnK2TTz55yyclgyFMmVmsIISQtBohvCFgET6OgMV7nMcYwKI3OVvJibXoooumeeaZJ2+CVFyU5XxeiliDqRE/IwEJdBMB+sbXX389C1jscE8C97nnnjsvEsQ4oYBVo8ZjYDnkkENyonLiL9kthQRia6yxRkcm51XA6qavt88iAQmUgcCTTz6Zd6tld1QmIHjqnnrqqTnnSasH2DLwsAwSkIAE+iNAqDUb8LAgjBcTeaIQfhB3OqHPjF0IKXs1AYsQQoSrWAjH0woRi8TuyyyzTA4nJLE7uXVDsIqQwkjubguSgAQk0KsE0CvuvPPOnMD9rrvuyqHmLHocd9xxaeKJJ85YWj1WdIwHFnAAeOGFF+bQEJRAYtd33HHHtM8+++ScWB4SkIAEJNDbBG6++eY8LjzyyCN5kN1ss83yLoSEinhIQAISkMC/CeC1hFBD8vYzzjgj7z747rvvphlnnDHnwGInwrJ7rUYOWJ6lUsAidPzII49Mzz333DhVzkQLEYuE9QhX7ExIiDleWeTUDc8rzuH5OyWU0nYtAQlIoBkEEP/PPvvsdNBBB6WXXnop951oMVtvvXUW/tvhkNNRAhaVwrboDKpPP/10dmFbffXV88DLbiIeEpCABCTQuwQYZHFvZltfQgkZF44//vgcEsMg6yEBCUhAAv8mEJENpOS444470qabbpoXh+k32cV1r732Kv3icFHA+vjjj3MOrBCg2I22moDFsyNMMYfgWUlDQj4sPLHYqZDkxBFCWEzubruRgAQk0IsE2CSDBQ7Sc7BQMM0002RBC29dHIiKub5bxafjBCxWiggZvPXWW/PgS14TBCxcgVvtvtaqSvI+EpCABCRQm0AMnh988EHe5hfvAd4jyST5rxZYYAFzmdiAJCABCVQhEPlNSOT+6KOPZvFmvfXWyzv4MVEp81FLwKLMeGAx4Xr22Wf/6xEiVJCfCFbkc1lsscXSD3/4wxxuHp5Y4YUVOxtyIecaZW4Rlk0CEhhOAtjSbPCx++675zBz+j/6S6IdInxwOO9X77U6TsAiSePBBx+cTj755BzrTh4s/t54443zMzuw1Fv1nicBCUigewgwkSHXya677ppFK/5mVZ0dCWeZZRbHh+6pap9EAhIYZgKEDu6www7pggsuyFcmsTneS+SIKnMIXX8eWCFgjR07dhxaMU9AlOLzeGIxEcMTiy3hl1122RxaGJ5YnFPMieVcY5gbn5eTgARKRSD6VQrFzt7sNohHLlFw9J8bbbRRtq1J5dSuo+MELOLcR48enbbZZpusCLI6sskmm+QwEbbB9ZCABCQggd4jgIvzmDFj+sJgGGRJTEz+K3aYctLRe23CJ5aABOojwOIw0QzsMsUx4YQTpv322y/nOClzio6BBCw2enrmmWf6PHBDvOInohSfZx7B/IEwc4QrRLtVVlkl5wLjPCZwnEOoTCR1d7G8vnblWRKQQGcSKIaYI1YR2UD4IH0fu9T+7Gc/a2uIeccJWAAltwl5sG666aa8Le68886b3YRZNfGQgAQkIIHeIoCL8yuvvJJ3qGXHQcQsdplikF1nnXX6PAicdPRWu/BpJSCB+ghgW99///05XyB9KX+zyxRJe+eYY47SRjf0J2DhiYsX2fPPP5+FJ4Q4xoB//OMfOcQcrytEqplnnjmLVwhULHbwHrvXfvvb387wELBC8EL0cmfC+tqUZ0lAAp1PgLDyfffdN4dkc0w++eTp8ssvTwsvvHBbx4WOE7CAhxcWExO2SifnCbHq22+/fQbM705SOv8L4xNIQAISqIcAExjGBLb2ZUWIyQrvrbjiimnUqFE5FCYOx4Z6iHqOBCTQiwRI4H7EEUfkRQBEnimmmCIvDq+11lppvPHGK6VtPVAOLAQsojUo//TTT5/FpzfffDPhcTbddNPlkEF2IOT32M2c3WtZAAnBC7ErRCzCDYv5sHqxnfjMEpBAbxBgMfj3v/99Ts3x9ttv5z6SzT723nvvnMKpnUdHCVjhzsZPFEHyXvGTv0nSe+yxx+YkjGXf9redFe69JSABCXQbASYjeAow+WI8IPyF3IgIWsUYfQWsbqt5n0cCEhguAkxWbr/99pyWAy8s+st1110396UzzTRTxwlY1157bfbKZdt3vKmYHyBKPf744+mFF17IYYPsooWnGYnbmTswlrAgQsggQhbnIH7xN95XCFj8Hkngh4u915GABCRQJgLY0s8991wWqxCx6PMQrU4//fS8Y2u70zZ1lIAVFQvU2G3q8MMPzzGZDDR4YZHzBPc2DwlIQAIS6H4CeAo89NBDaYsttkhPPPFEfuCll146h46wS23xUMDq/vbgE0pAAoMn8Nprr+UJyznnnJPD7CaddNJEHil2/2ZhoGxHfyGE119/ffYmQ5D63ve+lyddPAPeurzeeeedLMyx8yCL4Ihbn376afr444+zUMXiB+fzPi+ELAWssrUAyyMBCTSDADrLJZdckvPI4n2F/YzjELoLO3yHU1G77OqOE7ACGAMrkxUmLcTt8/dss82WJy2EjhS3yG1GxXpNCUhAAhJoDwHGAfp4fuIpsO2226Ybb7wx575iwrXbbrvljT4IKfeQgAQkIIH6CCD2XHPNNXkxmHBs+lnyQZ144olpxIgR2dbGA6ksRy0BC7GJMeHSSy9NU089dVp00UXTtNNOm8cIPLDwNGPuwOI3uVwII2QXQp7v/fffz8+IgIVwxTjCKwSsyINVFgaWQwISkMBwEqBfZWGYTT0Q+/kb7ysWM1ZbbbVxkrcrYDVAPkSsjz76KJ133nnpl7/8ZR5wWBnBFZidU8IduF1gG3gcT5WABCQggQYIxBjAZOSUU07JYwCeWISA4ClAyAuTkRC6Gri0p0pAAhLoSQKIN/ShLAowUaFvpV9FzGGRYPfdd88RDgg4ZTmqCViUF8HpvvvuS3fffXfObzXXXHPlcn/44Yd5IygmZ9ddd1166623chL3lVZaKe8+iGDF3CJ2JgzhqihecR3nFmVpAZZDAhIYTgKMA/SRpORg4YJFDfQVxoCdd945LwgUbet29YUd54FFJbHzYOS5Gjt2bF5tJzs+QBlkGGS32267NNlkkw1nnXotCUhAAhIoCQFCPe68887s3sxkhEF3qqmmSoccckjepbZMXgIlQWYxJCABCdQkEJMS+tJbb701962IQByEjBDhwOp7JDcvA8qigEU6EcL/EJjYTfDdd9/NCdwR4WL3Qf5HWOBf//rXnNflgQceyLlcfvCDH6SVV145zTLLLHnsiPkEHlokLmbOEXmwzH9Vhpq3DBKQwHARKPb9CPh44e65557p5Zdfzn0f6Th+9atfpSWWWCL3r7GIzP0VsAZZC6zA33LLLdndmZBCBt4ZZpgh7b///nmgZSeRdsEd5CP5MQlIQAIS6IcAixgPP/xwztWCiMWAy4QF4YpBFyHLQwISkIAEBkcAIejss89Ohx12WCIvFpOYueeeOx166KHp+9//fl6RL4NtXU3AQmjC9mecwMOK3RXJ58LfiFeTTDJJeuONN9INN9yQxowZk/+Px+6yyy6bE70TKsM1WBBHwIpnDc8rBazBtSk/JQEJlJNACFL0kX/84x+zHf3UU09l76tpppkmOwaR/4r+M/p9c2ANQ10SPnj++efnMBIGKQZadhw54YQTcnLGYh6UMgy4w/DIXkICEpBATxEo5j9kVf3AAw9MF110UV5d52DBgi3fyXPChMNDAhKQgATqJ1AMC+F3RB76WRK64/GK/cwK/PHHH58FH8Sddodph4DFxAvRLTywyF/F74hTLHDwf8rP+/E/djFnp0K8sBCsyIW19tpr54Tu/M04gncWvzOviMgPBaz625RnSkAC5SdAP4otjWiFQ9DNN9+cC03/t/nmm6d99tknh48X+z4FrGGoV7yuSDZ53HHH5YGWGHcgzzPPPHlrdVZVELEi6a8i1jBA9xISkIAEWkiAwZJJCGHjhLJcfvnlecGC/nzGGWfM8fqrrLJKdm+2j29hxXgrCUig6wiEMESic0QsJjREPBBOh9AzatSotOCCC7bdE6soYH3yySdZtOI9xCfmAu+9916uG/6OHF/8zVhCiOHo0aPTTTfdlF599dUcPrjBBhukFVZYIXtfMZYUc1/xuRhbHGO6rsn7QBLoWQKff/55TtaO59WDDz6YxSwWKAit3nfffdN8883XJ+BXQmpXX9iRObAq4TEocbCaQvJeYjcZaIHK1rkoh1TCRBNN5MSmZ7+ePrgEJNDJBBhgn3zyyXTMMcdkzys8AmL3WUIJIzcLzxgr5Z38vJZdAhKQQLsIxOo6PwkpQbC65557+nLQIvLstddeeWLTzt1eQ8BiLGCMQMAiFxZzAN5jHhD5q2DJ++GlxZzg3nvvzTsVMrbw96abbpoTusdOg0ziwgNL8apdrdH7SkACzSKALY1ohX7Czq3Rb+Jti22NftKfTa2ANYSaiQGMS7DjCAMtqyqxewo7kOy66655h0Jc4JzcDAG2H5WABCTQAgLF0BQmHIR5nHzyyemqq67qCxucdNJJ8wDLVr9xtGswbQESbyEBCUigJQSK4SFMaBB5WIl/9tlns1AUIXeEmxDlQM6pdh2xiI1XFQIVtj+vmIiFAEX5yOmCZxbPgDiF5xXiFbmy8NIaMWJE3pUQzyte5HwpevU6vrSrlr2vBCQwHASKtjW7DZJHnPQbeNvSP9JfzjTTTHlDpLXWWqsvYXtEsVWWoV19Yld4YBWz4fM7lUGICT8ZzBCsyIvyk5/8JK277rp92+lSCe0CPxyN0GtIQAIS6CYCxYGVyQd/EwKCaHXuuefmhO1MPDgYYNnWd/31188LEx4SkIAEJNAcAiwiXHnllemkk07Knlj0zdjWRDlstNFGeYGYZL/t2P216IXFuIGQxc8YQ+L/8ZPQc8INEax4LwQwfvIez8ALgQthrpj7qjl0e++q7c6f03vEfWIJpD5RP1IvXXLJJemCCy7Im+BF/0iI+E477ZR3ZSVfYFmPrhOwEKSY4LCtOqEmV199dR6oGIBwc15yySVzjDvJ3dm1ynwpZW2alksCEuglApUGLZMQvK4uvPDC3I+z7XlMJOacc87sdcWCBAOsCxG91FJ8VglIoNUE6J9ZnSfEhJ0J77vvvr7FBDxhl19++bThhhtmG5s8Wa3eSCOEqPgZ4hWcYmyJMEPmBHhhMcYgVPFccQ5jDGVnvsDY8o1vfMPxpQmNLbzjHLubANdLSqAKgRDqCe6p1WsAACAASURBVBm8/fbb8+Z3119/fXrnnXf6wqwXWmihvOPgiiuumN8r8/ezqwSs4taODEwoimeeeWZWF0nWyEGFzDDDDDlJIytGxO9PMMEEbVk18hsmAQlIoBcJ1Nq5in6bwfWVV17JuQyvu+667HUVOw0yqVhkkUXSyJEj81buTC7CE6AXOfrMEpCABFpFgL6W/pmFBTyx6J/xzOJACGLjJBaHV1999eyZhRDEInGrjqJQVUwtEvfnvRhj8MIiV1bsXhjnEzbInADPK37ihVXmSVyr2HofCUig/ARq2daI9JFHFq8rNuV4+OGHs3hP/4ZtzSZI2223Xe676fdCMynrU3eFgFUNbgxGTIRQGInvJHY/Bji2hvzOd76TFltssbTeeuulZZZZJg+2lYpjrcZQ1gq1XBKQgARaQSD62GJiWyYDHJE4t1Y5YvU1+tdY3aePvvjii3PSYHYbZGWIa9IvM5lghX/LLbdMs88+e97etxg+7iSjFbXuPSQggV4nQJ/89NNP57xYp556anrttddyX0wfzKLC9NNPn5ZeeuncX7NIHCJWf3001+QawxWCWClgFcWtSOSO+Ba5suL/3J/JXIhXCFqOLb3e4n1+CbSOQKVdW7S1B+qLipoFvyNa8ZMk7aThYKdB7OzYrZXrTT311OnnP/95WnvttXP+v6JNP9D9Wkflv+/UtQJWPCoTJVyF2WnktNNOS2PGjEkkLYuJFgkaEbLmmmuutOiiiyay7pMvi0Er3KAZ0Mpcie1sQN5bAhLoXQKVAn9lGGAlmfg/EwhWfviJSEXI9x133JH76b/85S+J1fEIBWEyMcccc+TJ0JprrpmmmmqqvkmOAlbvtj2fXAISaB8BbGhsaRYbTj/99NyHY2uHR2wIWfPOO29eIOYnuQojOXp4Z1VOuIqRFPF0xXGlUVu8KGTF75SdiR0eWIQTFo8QsCIXVixst4+0d5aABHqdwEDONKFpFG1rNqgg1BvRCgEL2xoP2lgUpo+ef/7502abbZaWW265RCh4cZO7RvvaVtdR1wtYAZTJ0uuvv57+8Ic/pLPOOis99thjefCKrPqxwo+gxa6FuEKzcjTrrLNmgQt3Os6JrXX5vfg31ym+4r7xXqsr1vtJQAISaAaBaivb8V78jPwjkXMkkurSD7Pyg3fVn//85+zCTF/85ptv5veZTMQEiIkOK0M/+tGP8tbm4XUV3l1F8YrnLPtg24y68JoSkIAE2kEgFhiYML344ovpoosuyi/6dsQh7GN+xk5+eDSxuo+QxaTpu9/9bppkkkmyTR1iVtG+jn6e68R4wv+LIYmVfX49CyhRbq7JeIQHVkwO454hWnHv4g6G7eDcrfccaELerc/tc0mgGoFKu5pzKu3q6LviZwjx/KQvY8Ojp556KtvWIViRPomFBfppPkf/iZ7BJkhsbIfXFZtvdKKnadcLWNFJxsCG+vjcc8+lK664oi8xMJXOQBthLTGghhcWKiUVPNlkk+XVf5K/h3sxSR55Ec7CoIfXFq9QMbkWHgTRGP3qSkACEuhkAvSTYfTTrxZXfBhEP/roo7zKgxjF76zSv/HGG+ntt9/Oua3wuGLxgHM4P8QtmNBf0rfSz5JMkh0GyXlFH8tEonK1vshRAauTW5Vll4AEOpUAYwL9PQsSbLpx2223pZdeeim9//77fTv80T/Th9PHY1szicKWZoEYzyzs64kmmii/h80cL87DpubzfK4oLkXKj2peW7UWNYqLLMWdCovjR/xeXKTu1LopY7kHEhrLWGbLJIFmE4g8VXw/Ilcf2kREK4Rtje1M34p2Qfj2W2+9lfC2QqwK25vPcEQfR79J/0qEGR6x66yzTo48o58tel01+xmH8/pdL2BVgxUrL6wUsaMKg+3zzz+fV5FQKmkw4Y7H5ys9r4oDY2WCyvC4ig46PhvZ/6NBDWclei0JSEACzSRQa6WbexZXjujvIpdJcfUoVtAjHr+yD2WSMuWUU2bvVwQrdrQaMWJEnuRUy4mi91Uza9trS0ACEmicAH0/Cxp4ANxwww3p7rvvzrvHMslC4Cp65oatHCJU8WfY3dVEpWJ+lkqRqpoXQ+NP4SckIAEJtIdA0baNCLGISqhlWxcXgfkM/Wz0pzjgYFsTTUbOb2zr2WabreUbbDSDZk8KWEWQVDSqJu52DLYMvCiZeAngMYDCGa53tVb4K1d/KidXcb/K8/QYaEaT9poSkEArCdTq7yr7vRC7GFhZ9SHenhASVt8ZUBGu8LpiRb6eRL6u4raylr2XBCQggfoIRI4VQsPJa8iL0BZsa+xq7GvyHBYnZNWuXLSZi/Zyf+FnA41H9T3Bf85qh50+3M/Q6DN7vgQk0H4CA2kGlX0iDjXhxYp9jW1NOqSFF144h21PMcUUXZVqo+cFrGiiDKQ0BkJj8MTCI+uFF17IebMYhHHRQ+hC0CJXS4S/IG7FC5e9cNcLFTRiVblP0Qur/V8NSyABCUigcQKRF6QoSNHfFZPeIkARVs0LsYpVIPILsjU5AyvhIghVxOGzY1XkQuGa7ZgwNE7BT0hAAhKQQDUC2NMRnRBeV9jP2NW8CC/Etia8HDGLyAdsa87BUwubGls8QmoixUfxXtyjGCkR41FleYYynlQKSfUKS0O5p2Ng875Txfqrty6bVxqvLIFxCVTm+IsIrqJtHWmKiE4gtQY2NWk3Jp544hx+TfoNbOsZZ5wxRzRge0duv27jrYA1QI2GhxaxpQhXIWBVDrKRyyUG1RCuii7TxZCabmtIPo8EJNAbBBhkGUTjiMS7vMfviFcMuLHbFINsCFgMsPzO/4dq5PcGbZ9SAhKQQOcRqMw/W/kE2MbY1AhYCFfkdCkKWIhYkc4jfq8UsCLPy2CFpnqoxrUbETyGOrYN9fP1PFc7z2mX9/RQBaxG2kA7+bb63tXaa72shvLZVj9ns++HDV2MPuD3sKfDtq4UsPC4QsBiERhbuzKtUX9l7vR+RgGr2S3S60tAAhKQgAQkIAEJSKBHCPQX5tcjCHzMfgh0QvugjDgr3H///TkMq7hwZ+WOS6AynK1ePgpY9ZJqznmdLGIpYDWnTXhVCUhAAhKQgAQkIAEJSEACEugwAnj+kb/t2GOPTXvuuWdaYIEFOuwJWlfcwQpYrSuhd2qUQNnFLQWsRmvU8yUgAQlIQAISkIAEJCABCUigKwmw4QDC1ZVXXpk233zzdPDBB+f0Bx7/TUABq/tahQJW99WpTyQBCUhAAhKQgAQkIAEJSEACXUjgD3/4Qxo5cmTe2GvEiBHppJNOyjslM7Ev++S+C6vDR5LAOAT0wLJBSEACEpCABCQgAQlIQAISkEBPEyD3Fbtg7rrrrumss87KebBIkL3VVlulgw46KP/uIQEJtJeAAlZ7+Xt3CUhAAhKQgAQkIAEJSEACEmgjAcQrdpO/6aab0h577JEee+yxFDvqzTvvvOmEE05Iiy++eBtL6K0lIAEIKGDZDiQgAQlIQAISkIAEJCABCUigZwn861//Su+++27aZZdd0sUXX5xI5M57vCaYYIL0i1/8Iu2zzz5p/PHH71lGPrgEykBAAasMtWAZJCABCUhAAhKQgAQkIAEJSKAtBBCqrrvuurTzzjunsWPHZu+ryHfFzwUXXDAddthhadlll21L+bypBCTwbwIKWLYECUhAAhKQgAQkIAEJSEACEuhJAohV7DxInqvTTz89ffrpp30cQsQab7zx0k477ZT22muvNOGEE/YkJx9aAmUgoIBVhlqwDBKQgAQkIAEJSEACEpCABCTQEgJFDytyX+F9dcABB6SHHnqoL/dVsSAIWexEePTRR5sLqyU15E0kUJ2AApYtQwISkIAEJCABCUhAAhKQgAR6hkBRwHrjjTfSqFGj0hlnnJE+++yznMw9jkjkjoD11a9+Ne29995p2223TRNNNFFfiGHPQPNBJVACAgpYJagEiyABCUhAAhKQgAQkIAEJSEACrSEQAha5r2688cYcHvjUU0+lL37xizlxe6WAxd+IWPPPP3866aST0sILL9yagnoXCUhgHAIKWDYICUhAAhKQgAQkIAEJSEACEugZAghYvF5//fV0/PHHpxNPPHGc3Fe1QPzP//xP2m+//dLPf/7zNPHEE/cMLx9UAmUhoIBVlpqwHBKQgAQkIAEJSEACEpCABCTQdALhZXXLLbfkkMCnn356nNxXkby9siCIXnPOOWc688wz0wILLJA9tjwkIIHWEVDAah1r7yQBCUhAAhKQgAQkIAEJSEACbSaAEEXuq6OOOiodd9xx4+S9qixapZj1la98Je9YuNVWW6VvfetbbX4Sby+B3iKggNVb9e3TSkACEpCABCQgAQlIQAIS6GkCJGq/66670k9/+tP04osvVt15MABV88aabbbZ0gUXXJBGjBhhMveebkk+fKsJKGC1mrj3k4AEJCABCUhAAhKQgAQkIIG2EXjttdfS0UcfnfNfff755/2Wo5qANf7446fdd9897bjjjnlHQg8JSKA1BBSwWsPZu0hAAhKQgAQkIAEJSEACEpBAmwngfTVmzJi02WabpVdffbUvfJCwwmpHNQGL98iFdd5556W55porfelLX2rzU3l7CfQGAQWs3qhnn1ICEpCABCQgAQlIQAISkEDPEiBxO8LTBx98kHcS/PWvf50imXvsSgicWgncK8HhhbXzzjunXXfdVS+snm1VPnirCShgtZq495OABCQgAQlIQAISkIAEJCCBlhJArPr444/TY489ljbeeOM0duzYfP96BavKwvK52WefPZ199tlp/vnnH/R1WgrBm0mgwwkoYHV4BVp8CUhAAhKQgAQkIAEJSEACEuifAF5W5L4aNWpUOuuss9Jnn32WwwcHK2BxtwkmmCDnwdp///0NI7QBSqAFBBSwWgDZW0hAAhKQgAQkIAEJSEACEpBAewnceOONaYsttkgvvfRSLgii1lAELHJf4X1FOOI888yjiNXe6vXuPUBAAasHKtlHlIAEJCABCUhAAhKQgAQk0MsECCHcbrvt0hlnnJH++c9/9qEYioDFRfDC2nLLLdPBBx+cvva1r/UyYp9dAk0noIDVdMTeQAISkIAEJCABCUhAAhKQgATaRYBwwdtuuy3ttNNO6Yknnkiff/75OEVpVMQq7lj4xS9+Me9IeMopp6TFF1+8XY/ofSXQEwQUsHqimn1ICUhAAhKQgAQkIAEJSEACvUng/fffz95X119/ffroo49y6GAciFe8eA9hK3YmLP4fkerLX/5y32eKn+dNvLC23XbbdOCBB/YmYJ9aAi0ioIDVItDeRgISkIAEJCABCUhAAhKQgARaTwAB67rrrkvvvPNOVe8rBCwSuuNF9cwzz4yTF4v/Lbroomm99dbrE7cqBSwErllnnTWtsMIKrX847yiBHiKggNVDle2jSkACEpCABCQgAQlIQAIS6EUCeFYhNNU6Pv3007TKKquk0aNH950S3lkjR45MJ5xwQi9i85klUCoCClilqg4LIwEJSEACEpCABCQgAQlIQALDSaC/3QYRthCqELBWXXXVcQQsysD/QsBqNFfWcD6D15KABFJSwLIVSEACEpCABCQgAQlIQAISkEDXEqhHwPrkk0/SyiuvnMaMGdPHIT6HgHXiiSeOE1rYtbB8MAmUmIACVokrx6JJQAISkIAEJCABCUhAAhKQQPMIRD6rCCG8+eab/0vAIkE7IYR6YDWvHryyBOohoIBVDyXPkYAEJCABCUhAAhKQgAQkIIGuI6CA1XVV6gN1MQEFrC6uXB9NAhKQgAQkIAEJSEACEpCABGoTUMCydUigcwgoYHVOXVlSCUhAAhKQgAQkIAEJSEACEhhGAgpYwwjTS0mgyQQUsJoM2MtLQAISkIAEJCABCUhAAhKQQDkJKGCVs14slQSqEVDAsl1IQAISkIAEJCABCUhAAhKQQE8SUMDqyWr3oTuUgAJWh1acxZaABCQgAQlIQAISkIAEJCCBoRFQwBoaPz8tgVYSUMBqJW3vJQEJSEACEpCABCQgAQlIQAKlIaCAVZqqsCASGJCAAtaAiDxBAhKQgAQkIAEJSEACEpCABLqRgAJWN9aqz9StBBSwurVmfS4JSEACEpCABCQgAQlIQAIS6JeAApYNRAKdQ0ABq3PqypJKQAISkIAEJCABCUhAAhKQwDASUMAaRpheSgJNJqCA1WTAXl4CEpCABCQgAQlIQAISkIAEyklAAauc9WKpJFCNgAKW7UICEpCABCQgAQlIQAISkIAEepKAAlZPVrsP3aEEFLA6tOIstgQkIAEJSEACEpCABCQgAQkMjYAC1tD4+WkJtJKAAlYraXsvCUhAAhKQgAQkIAEJSEACEigNAQWs0lSFBZHAgAQUsAZE5AkSkIAEJCABCUhAAhKQgAQk0I0EFLC6sVZ9pm4loIDVrTXrc0lAAhKQgAQkIAEJSEACEpBAvwQUsGwgEugcAgpYnVNXllQCEpCABCQgAQlIQAISkIAEhpGAAtYwwvRSEmgyAQWsJgP28hKQgAQkIAEJSEACEpCABCRQTgIKWOWsF0slgWoEFLBsFxKQgAQkIAEJSEACEpCABCTQkwQUsHqy2n3oDiWggNWhFWexJSABCUhAAhKQgAQkIAEJSGBoBBSwhsbPT0uglQQUsFpJ23tJQAISkIAEJCABCUhAAhKQQGkIKGCVpiosiAQGJKCANSAiT5CABCQgAQlIQAISkIAEJCCBbiSggNWNteozdSsBBaxurVmfSwISkIAEJCABCUhAAhKQgAT6JaCAZQORQOcQUMDqnLqypBKQgAQkIAEJSEACEpCABCQwjAQUsIYRppeSQJMJKGA1GbCXl4AEJCABCUhAAhKQgAQkIIFyElDAKme9WCoJVCOggGW7kIAEJCABCUhAAhKQgAQkIIGeJKCA1ZPV7kN3KAEFrA6tOIstAQlIQAISkIAEJCABCUhAAkMjoIA1NH5+WgKtJKCA1Ura3ksCEpCABCQgAQlIQAISkIAESkNAAas0VWFBJDAgAQWsARF5ggQkIAEJSEACEpCABCQgAQl0IwEFrG6sVZ+pWwkoYHVrzfpcEpCABCQgAQlIQAISkIAEJNAvAQUsG4gEOoeAAlbn1JUllYAEJCABCUhAAhKQgAQkIIFhJKCANYwwvZQEmkxAAavJgL28BCQgAQlIQAISkIAEJCABCZSTgAJWOevFUkmgGgEFLNuFBCQgAQlIQAISkIAEJCABCfQkAQWsnqx2H7pDCShgdWjFWWwJSEACEpCABCQgAQlIQAISGBoBBayh8fPTEmglAQWsVtL2XhKQgAQkIAEJSEACEpCABCRQGgIKWKWpCgsigQEJKGANiMgTJCABCUhAAhKQgAQkIAEJSKAbCShgdWOt+kzdSkABq1tr1ueSgAQkIAEJSEACEpCABCQggX4JKGDZQCTQOQQUsDqnriypBCQgAQlIQAISkIAEJCABCQwjAQWsYYTppSTQZAIKWE0G7OUlIAEJSEACEpCABCQgAQlIoJwEFLDKWS+WSgLVCChg2S4kIAEJSEACEpCABCQgAQlIoCcJKGD1ZLX70B1KQAGrQyvOYktAAhKQgAQkIAEJSEACEpDA0AgoYA2Nn5+WQCsJKGC1krb3koAEJCABCUhAAhKQgAQkIIHSEFDAKk1VWBAJDEhAAWtARJ4gAQlIQAISkIAEJCABCUhAAt1IQAGrG2vVZ+pWAgpY3VqzPpcEJCABCUhAAhKQgAQkIAEJ9EtAAcsGIoHOIaCA1Tl1ZUklIAEJSEACEpCABCQgAQlIYBgJKGANI0wvJYEmE1DAajJgLy8BCUhAAhKQgAQkIAEJSEAC5SSggFXOerFUEqhGQAHLdiEBCUhAAhKQgAQkIAEJSEACPUlAAasnq92H7lACClgdWnEWWwISkIAEJCABCUhAAhKQgASGRkABa2j8/LQEWklAAauVtL2XBCQgAQlIQAISkIAEJCABCZSGgAJWaarCgkhgQAIKWAMi8gQJSEACEpCABCQgAQlIQAIS6EYCCljdWKs+U7cSUMDq1pr1uSQgAQlIQAISkIAEJCABCUigXwIKWDYQCXQOAQWszqkrSyoBCUhAAhKQgAQkIAEJSEACw0hAAWsYYXopCTSZgAJWkwF7eQlIQAISkIAEJCABCUhAAhIoJwEFrHLWi6WSQDUCCli2CwlIQAISkIAEJCABCUhAAhLoSQIKWD1Z7T50hxJQwOrQirPYEpCABCQgAQlIQAISkIAEJDA0AgpYQ+PnpyXQSgIKWK2k7b0kIAEJSEACEpCABCQgAQlIoDQEFLBKUxUWRAIDElDAGhCRJ0hAAhKQgAQkIAEJSEACEpBANxJQwOrGWvWZupWAAla31qzPJQEJSEACEpCABCQgAQlIQAL9ElDAsoFIoHMIKGB1Tl1ZUglIQAISkIAEJCABCUhAAhIYRgIKWMMI00tJoMkEFLCaDNjLS0ACEpCABCQgAQlIQAISkEA5CShglbNeLJUEqhFQwLJdSEACEpCABCQgAQlIQAISkEBPElDA6slq96E7lIACVodWnMWWgAQkIAEJSEACEpCABCQggaERUMAaGj8/LYFWElDAaiVt7yUBCUhAAhKQgAQkIAEJSEACpSGggFWaqrAgEhiQgALWgIg8QQISkIAEJCABCUhAAhKQgAS6kYACVjfWqs/UrQQUsLq1Zn0uCUhAAhKQgAQkIAEJSEACEuiXgAKWDUQCnUNAAatz6sqSSkACEpCABCQgAQlIQAISkMAwEuhPwIrbbLvttumEE05IX/jCF4bxzl5KAhJolIACVqPEPF8CEpCABCQgAQlIQAISqEkgBAEn+zaSTiCggNUJtWQZJfBvAj0tYNFZxcBa/L1W44jOrdr/671Of9ewUUpAAhLoVAJDmaQU+8WhXKdT2VluCUhAAt1EoNLWbaRfrzUeDOWa3cTWZ2keAdrYp59+mlZZZZV08803j3Mj2vDIkSOzB1aeQOuF1byK6MEr92cH16MdVGuP9WgbnYpaAesLX0iVjaaywvn773//e3rrrbfS+++/nz766KPcwf3jH//Ir3/+85/ps88+S//3f/+Xf//888/zNeP1r3/9a5x7FO9XT6Ps1MZluSUgge4jwCD5xS9+se/BvvSlL6V48b+vfOUr6X/+53/6Xl/96lfT17/+9fS1r30tTTTRRGniiSdOE044YTb+eEUfyM/idbuPnE8kAQlIoPsJ0JdjD9Ofx6Sq2NdDADsZW/rdd9/NPz/++OP8+uSTT7Jdzf95cR1e/I6dXRwvsK3j6M+urldoGIw9Xu+1a9X6YO7Zn3gy3Nerp7W2456Ua7D37e+ZuCZt7fTTT09jx44dp31R14suumhac8018/vaK/W0Ds+phwDtDju62F9++ctfTrywqWlr/B97erzxxss/eX3jG9/Ir29961vZrq5sk/SRYWvXU45OOqfnBazKyqKiGURffvnl9Pzzz6cXX3wxvfbaa+ntt9/OAtbf/va3PNgiaDHIxmAbAlZxkC2KWIpWnfS1sKwSkEAtArUELAbOeDHgMsgiZI0//vhpggkmyAIWg+wkk0ySJp100jTllFOmaaaZJk033XRp+umnT9/85jfzLYc6IbDmJCABCUigfQSKwlL06djVL7zwQvrLX/6S7WvsauxpXh988EF+hW0dC8FF8SoErbCliwvDYWvXEjXqGVOGIobUc30FrP8m0A5uA30ragmuxc8Npa0MdH//37sEEKiqLQ4jYsUiMXY0whV2NS/EKxaGJ5988mxbY1d/+9vfTjPOOGOaYYYZst0d/eJQvm9lrJWeFrBiAGSwZBB9/PHH0xNPPJGeeuqp9Morr6Q333wz/3znnXeyZ9VAKzzR8DivcgAvY+VbJglIQAKDJVAMm+Ya0f9F31ccLCsNPgZkxCwG3ammmip95zvfSbPMMkuaffbZ07zzzpsHYgZeBm0PCUhAAhLoHAIITyzqvvHGG9mufvTRR7M3y0svvZTFK97/8MMPs6cLR2WUQohelWOMwkHntIFOLulAE33bYSfXbrnLXumpWlnaaJvh3Rptkfexl4lwmGKKKbKINe2002Yha4455sgvxC0Wl7vFru4pAStWaaj4cHHGw+raa6/Nr2effTZ7WbEKFG53nBuDKw2kP2GqcrCt5rZnx1fuzsPSSUACAxOotx8remsxqYkj+kb6U/pYBC28tRC1WDVabLHF0hprrJHmmWee7MnlIQEJSEAC5STAeBATL/p0xKorrrgi5xBiQZhFYKIWKsPFw6YuTsIqn7DesaacZCyVBCQggf4JVGoH9fKqFFqL14loCLy0ELVmmmmmtPjii6fVV189LxLHIgE/++t/6y1LO87rOQGLwZWBFDfm6667Lo0ZMyY988wz2Z05clcVY03J3cLECje9qaeeOk022WR5ksULD4HI7UIjiXjV+D3cAftTO4vuqu1oAN5TAhKQQCMEYiEgxPwI7Yi8JRFaTT9LrkB+vvfeeznXCQsErL7zNyElcQ7XiIUC+lHCCRGyllhiiTzgsnrEIFzMqdJImT1XAhKQgASGj0CIVlyR/pv+/LHHHktXXnlluueee7JdHdELMVnCliZPS+Rwwa7GC5f+nrBy7GrCYSK/CzZ25FSMXDDxBPF+vU/UTK+aga5dq4xDEeeq3XO4r1cv28Hed7DcipPuesvYzvOG8pztLLf3bh6B4ncGb9XQCVjoDRsb+5n/RUg1PyNPICHX5OTGpiZaDA0De5q0Rrzis3Et+ksiGxCyyOO22mqr5QViNIyiV1fznnj4r9xzAha5rC655JJ03HHHpb/+9a/jJFqPFSQEKCp5qaWWyp4A8803X3bHC0+A8B6oTJZWSw2trLZqnb0d3PA3bq8oAQk0j0AMjJUuz5V/V+YC5G8ELCY5d9xxR3498MADOadgcSWfkjOokz9rq622SjvssENeQIhcAM17TM+XbwAAIABJREFUMq8sAQlIQAL9ESiu2pOC4ze/+U369a9/ndNuFKMWwrbFrv7e976Xll566bTIIoukESNGZPGquChRTGJczGtVXATWVrZdSkAC3UagWt7Aou1cGTJY9Gbls7zoe7Gl77777nTbbbelJ598MgtZxQ01+Bz9KQ45W265Zdp8882zXR0eW53EtScELCoWpZKKZZC99dZb88pQxN+zCkSs6FxzzZUFq/nnnz8nF2bAjUTEqJdF97yBBtHi6lQnNQjLKgEJSGC4CFTrByN8m9UkBldWi1hFYvU+xCxCu3kvDryv8MLaeOON049+9KMcyx+TGvva4aotryMBCUigPgJ4BrAQQZjgueeem+67777sZYtdzWQITyo252ABGMGK1X7yHYZdjW2NV1V//Xcx7Qelqvy7vpJ6lgQkIIFyEiguBBdLOJDGEP1h8Txs6nhhV+OV9fDDD2e7+s9//nPemI7cgyFoYVcvtNBCacMNN0zf//73sxds2NWR3qOc1P5dqq4TsCpjOakoQlYuv/zydMQRR6RXX321b8BElGJAXWGFFdIGG2yQK9J8K2VurpZNAhLoZgIMmghZF198cQ5Fee6558bJnUL4Cd5YW2yxRU5OSUhKJwy03VxnPpsEJNBbBOhzmQzRT5944ol5ohRCFOF/CFdMiJgYIV55SEACEpBA+wjce++96be//W0aPXp0zlHI4nEcCFc77bRT+slPfpJTd3DQx5c92XtXCliRgB3xCtXx9NNPzwklcXPmfwhXM888c3ZlXn/99dOcc86Zw1SK7svta2beWQISkEDvEmBln8GVCdJll12WbrjhhixqsbkGK/vE7C+zzDLZ/Xm55ZbLiw71rFb1LlGfXAISkMDQCSBSsbL/0EMPpVNPPTVdffXVuV/mfRYT5p577ixcrbnmmnlHWd7jxWEfPXT+XkECEpBAowTon7Gr8Y595JFH0qWXXpqFLEIMSd3BgQZCvtmtt946J3nHU7bsfXbXCFix+hPiFZWFS/Oxxx6bB1n+pjKY/PzgBz9IG220URawSGrmIQEJSEAC5SAQuQDor0lK+eCDD6YLLrggXXXVVTlZZXjZEu698847p2WXXTYnAfaQgAQkIIHmEIhJEBOfww8/POdZYfJDP40dvfzyy/eFosSiguHdzakLryoBCUigXgKVuWVZICb0G48sFohJqcTBYsOCCy6Y9txzz5yqI/J8l1XI6koBC7HqlltuScccc0zOd8Ugi9cVea5YGcKtmXwqHOEiV9YKqreBep4EJCCBTidQXIjgWRhA8aQl9JuQQoQschnyHn027s577LFH2myzzfLflRtrdDoPyy8BCUigXQSKKTlYTLj++uvzBkjkVIlkwEQwEMmw7rrrpummm26csBMFrHbVnPeVgAQkMC6BWBwOu/qFF15Iv//979OFF16YnnjiiWxXc7BLISIWzj7sBMtRRo2kawSsqCYqYMyYMenggw/Ogywuc4hUJJIcOXJkDjkh+37xKGPF+MWTgAQk0GsEiju0VvbLbB/MggQ7XeEFwMIE/T2bb+y1115plVVWSWzIweHEqddajs8rAQkMN4HoR0kMfO2116aDDjooPf744zmiAS+rBRZYIO8Oy0SHhMCVh/3wcNeI15OABCQwfARIrXTjjTfmhQkSvmNXo5ng5IOOsvLKK4+zU+zw3XnoV+oqAYvBErfmQw89NFcIgy5KIxXBwIuLMwkmXaUfesPxChKQgASGm0AtASt2amHiRF7Dww47LLs+k4+Fnazwrj366KNzDH/l4QLFcNeS15OABHqFAH3vn/70p3TIIYek22+/PS8aMMFhMRjv14UXXjjnS/GQgAQkIIHOI4Adfc8996Sjjjoq29XhqbXUUkul/fbbLy255JKlzBHeNQIWwFkZIjafhO3EeDLIMrjus88+iXwp5L9iMuOEpvO+YJZYAhLofgL9CVjx9JGIkhBxwgoJbWFRAi8APLHo6wkZp5/XA6D724xPKAEJNIcAdvX999+fRo0alUUs+lrsaPKk7L///rmvjSTtzSmBV5WABCQggWYTwOEHB6ADDjggsWMhEQ+ED66wwgrZriaKrWy7Ena8gBUTlPfffz+dcMIJWcDCBY732cqXnVKWWGKJ7O7MoYDV7K+B15eABCTQXAJMrNhBhZ0I2awDrwC8axlscYWeZpppqgpYLl40t168ugQk0D0E2DTjwAMPTGeffXb2dqX/xJ4mjHvWWWfNCwUeEpCABCTQ+QSIcHjuuefS5ptvnu66667c3+Ndi5299957p0knnbRUD9nxAhY0WRVihyo8rYAP9BlnnDEriSuttFLOi1IUrpzElKoNWhgJSEACDRFAsGLFiJj9fffdN3sH4IU10UQTpd133z1ts802+ffYldY+vyG8niwBCfQ4gQ8//DCdddZZOTT75Zdfzjb0LLPMkn71q1+lFVdcMYdue0hAAhKQQPcQQMS67rrr0i677JJefPHFvDjMgjBJ3TfaaKPsgVuWo+MFLCYoDz30UIZ92223Zc8r3N6I29xiiy2yeIXbWyRzj4mME5qyNEHLIQEJSKAxAvT7vBCtLrvssrTxxhtnz1vem3vuuXPyyVVXXTX/3zDCxth6tgQk0NsE6DPZMGPXXXfN9jX96pRTTplzD66xxhppwgknNBVHbzcRn14CEuhSAh988EF2CiLH4euvv56fcqGFFkpHHHFE9sAtSx7xjhSwihMSMuifdtpp2c2ZvFeEkWywwQZZLcQLqz/Qilhd+u3zsSQgga4mELmy+PnWW2+lk08+OZ1yyinp7bffzuHiG264YV7EILk7h319VzcHH04CEhhGAoQOHn/88TkcG7sabyu8Wn/5y1/2hZGUZRIzjI/tpSQgAQn0NAFsahYs3nnnnbxxB3Y1XliEEm6//fbpF7/4RZpqqqlKwagjBazIkM9PMuePHDkyPfbYYxn6iBEj0oknnpiTt+N5VZy4OIkpRZuzEBKQgASGjQAD7nvvvZc22WSTdM011+TrTjbZZDnUZb311vuvJMOOA8OG3gtJQAJdQCAWBOgbiVagH91hhx3SK6+8kp9u8cUXz6GEeLeStB1bOxL66uHaBQ3AR5CABCSQUu7b48WO39tuu23eyIMFixlmmCHvVLjyyiuXYlfCjhSwaGUogu+++252aSahJPlQJphggrTbbrtlQeub3/xmadzc/FZIQAISkEDzCDAeXHrppWm77bbLK0ccP/7xj9NBBx2U5phjjnFurIDVvHrwyhKQQGcSCBGLkBES9p5zzjk5/HriiSdOxx57bFpttdVy6CATmQjf7swntdQSkIAEJNAfAfp+Nse75JJL8i6ERLthO7NQjGcWIeXtPjpWwCLR2AMPPJBzn5C4HdjsQHXooYemeeaZJ/+ti3O7m5f3l4AEJNAaAi+88ELu/88777y8oEESdyZeeGGxW5bCVWvqwbtIQAKdSYBwQXJfkT+WxO0c6667bt7dm3Ds2AxJr6vOrF9LLQEJSKAeAhFKiL7CRkkXX3xxXrjAC4vNPRZddNH/im6o57rDeU7HClh4Xx155JHpmGOOSYhZJGvff//9c5w+Ls4KWMPZTLyWBCQggXITIIn7LbfckseA559/Phd2s802y15YU089tQJWuavP0klAAm0mQMggq+tMUBCzpphiihw6uM466/TtOujGGG2uJG8vAQlIoMkEwiOXceB3v/tdzn+Idy67EJILa8cdd8zjQzuPjhSwUAGfffbZtP7666cHH3ww81tsscXyQEvuKw8JSEACEugtAoQRMi6MGjUqnX/++X3bvp955pl5BxW3fe+t9uDTSkAC9RPArr733nuzWPXqq6/m/nPNNddMBxxwwH+FYdd/Vc+UgAQkIIFOJcC48Oijj+Zx4Morr8zjwswzz5xFLXKOtzOyoSMFLMJDrr766rzSzq5TeFyR94qVIzLle0hAAhKQQG8RYKBlbMDVmZ1SSOzOahED76abbpommWSSPiDtHHR7q1Z8WglIoBMIfPLJJ+mMM87IydvpS8kpS47ZrbbaapxQkWLC9054LssoAQlIQAKDJ4BdTa5xciP+/e9/z4vB/I1dTXqOdh0dKWDh0sYW6WzvCMxZZ501h4mstdZa5r1qV0vyvhKQgARKQAAvgj333DPdfPPNeXBdccUV846EjBMKVyWoIIsgAQmUikDs5LrTTjulc889N5dtvvnmy/3mMsss02dXh3jF/+1LS1WFFkYCEpBA0wj86U9/SjvvvHP2xiKMnPzjJ5xwQl7oaNfRkQLWhx9+mF2byXfCStFyyy2XTjrppDTLLLO0i6P3lYAEJCCBEhB48803c9Lh4447Lk+ySObOtvCLLLKICxwlqB+LIAEJlIsAwtRrr72WVlpppfTII4/kHLJrr712TssxzTTT5H60KF4pYJWr/iyNBCQggWYSYFOP3XbbLV100UV5LJh//vnTtddemyaddNK22dUdJ2B9/vnnefdBtnJ85plnsmsziXpRAs1x0szm67UlIAEJlJ8Aixqnn356Xi36+OOP8+Tr7LPPTj/96U/bNtCWn5ollIAEepUAUQ333HNP7iNJ5D7eeOPl/pONkWIHVwWsXm0dPrcEJNCrBKLfJ4yQNE3s7P3RRx+l6aefPp1zzjl5YRgdph1HRwlYgGSnKSYjhAyy0j7ZZJOlPfbYI8ft69LcjibkPSUgAQmUhwDjxA033JAIh3nqqadywdhB5cADD3SRozzVZEkkIIE2E6CvxG7+29/+ln7zm9+kI444IucOZHJC7sANN9wwi/56YLW5ory9BCQggRYTYHxgQZgxgE2SLrzwwqy9sFnSt771rbTrrrumbbfdNk044YRt0V86TsAi5xX5TVD+UAEJG8TNmTwnX/rSl1pcvd5OAhKQgATKRuCxxx7LCxvXX399dncm5JydCb/61a+2ZaAtGx/LIwEJSCBW19kMCbua8BDsanb1JoH74osv3mdXm//K9iIBCUig9wjQ9/PCSxe7+s4778xeVyuvvHJO5j7xxBO3RX/pGAErBs8PPvggrbfeeomEYp999llONMnEZLbZZnNi0nvfK59YAhKQwDgEGCveeeedtNdee+VdtTjmnXfedOutt6avfe1rjhO2FwlIQAL/jwAr7G+88UbOecUGGPSfP/7xj9Pxxx+fpp56avtLW4oEJCCBHiYQ+svrr7+ed/i+7LLL8rgwYsSIdPXVV6fJJ588/42nViuPjhKwcGED4Kqrrpoz4QN1ySWXTJdcckneIt0QwlY2He8lAQlIoJwEGCvI30JIDBO06aabLgtYU001VVtWispJyVJJQAK9TgA7+umnn04/+tGP0ksvvZT7x5/97Gc5r2w7t0jv9Xrx+SUgAQmUiQBOQ9tvv30666yzckjhFFNMkXf7nnnmmbMe0+oouI4SsEg0SWgIiSbHjh2bE02yanTaaafl0BAPCUhAAhKQAARINkm8/vvvv5+Fq9/+9rdp4YUXdqyweUhAAhL4fwQQ+BH3iWwgryy2NPkDR40a5aKwrUQCEpCABDIBxor99tsve+eSzomIhquuuiots8wy+f+tdiLqCAEr3NdQ/0aPHp1GjhyZnn/++TTBBBPk35mktCsLvu1aAhIoN4HoP1rduZabSveX7rzzzsteWC+++GKO0T/qqKPSGmuskRNOekhAAhKQQErs7H3xxRen7bbbLidzJzkv/SahIo6ZthAJSEACEggBC89cdiMkTcf444+fd/xm8aMdY0VHCFjRdHBZu/TSS3Pm+5dffjlNOumkOaEYA62uzn7BJCCBSgKxi0a8HzHa7ehsrZ3WErjiiivyatETTzyRJppoorwT4RZbbJF/95CABCQggZRzyZ555plpt912Sx9++GEOCzn88MPTpptuKh4JSEACEpBAJsB8irFi7733Tm+99VaOgiPSYcstt2x5/ivK0xECVnhQsFJEUl48rsiFRVgIv2+yySZuj+4XTAISGIcA/QadLBs/0Hd8+ctfzuIFwrcCVnc3Fuoeb11EqwceeCB7626++eZ54CVfoocEJCABCaT0z3/+Mx155JF5VZ3fv/3tb+cQERK5e0hAAr1JgHAx7GRt5d6s/1pPTQJ3nIZeeeWVLGChweBU1OoE7h0lYMWX6bjjjkuHHnpodl9jhxTCQtZZZx0FrB74jjEpLXamtAnyov3jH//IAgX/50uEUMGLXA4klSt+pvIaPYCtZx+RtnH00Uenyy+/POdBQrjYcMMN09Zbb23IcZe3Cr7nd999d96J8Pbbb8+uzoQPMl6wY4qHBCQgAQn8W8Dad999s2iFHTXDDDPkrdF/+MMfikcCEigBAewZIpDiiB3fmiEu4ZFJLjw2dCA1z4wzzpgXfivnUcXyUC7mXB7dT+CGG27Ic6gXXnght48999wzRzq0OoF7xwhYFDS8sEgsicvae++9l6aZZpp06qmnpuWXX74t8Lq/qZbnCYt5jBAm3n777fTaa6+lP//5z+kvf/lL/v3jjz/OuW6mnHLK/JpnnnnStNNOmyesKMV0wIheRaW4GQNAeaj1dkk++eST7HHDjhkIWHhekeeDDteced3bNugreD3++OM5xPyPf/xj/v4zIWO8oG/wkIAEJCCBlBcASdpOdAOT1+9+97v590UXXVTvixY2kLBx88TsC19o4Z29VZkJ0C7ITcdOocx9aBvMcxCWivk8w+6J9hNtqNiuaj1n8dyHHnooCxKPPvponittvPHGaYcddkjf/OY3+9olCbw5j76Dc/Bwn2uuubLTQGXbLc7dzEdb5pZWX9lYECbq7a9//WsWLZlTsTCsB1Y//OLLuc8++6STTz45x+pPP/30eXK6xBJLKGDV1/Y69iyEJ1YH8by799570+9+97u8cw4de3heRWcabq9f//rX89bQeF4ssMACWcyK/0VH2o4vXcdWQocVXAGrwypsmIobY8UzzzyT87pcd911OUfiYostls4///wceu4hAQlIQAIpT4q33XbbxKYX2Fizzz57Ouecc9L888+vkNLEBlLMz0kdkOoAYQDPFuxSFtkQBPAeZrev2KZecauJlVKiS8cchfZwxx13pB133DGLWNQ/ThsHH3xwFo3iwJOShVrOLwpS/QlY/A8RAnEKG4l5FhFOhx12WMJ+5phzzjnTEUcckVZaaaV8XfoIyrH22mvnzdS4BnNwvDZnmWWWcfoMyhKiWzE6xvDEEjW0BovC/JtIlmeffTa3nZ/97GdZk2nHXLojcmDR2ENVZkLCKjpfLr4sbI0+YsSItsBrsN49vUEC0fHyk875sccey4LllVdemV1c6UjpUCtXHoq3wa2R1QHCTLfZZps099xz94md8dlK19hoa/UUt57VhbKGLQ52NaRsz1OrPApY9bTg7j0H42rnnXdOJHNnMsDE7Oqrr07f+c53uvehfTIJSEACDRBgnCQJ70UXXZQ9sJgUX3DBBdlWUixpAGSDp7LgyhhFKM7YsWOzxws75iJiYbfiZUOaFBZeEREI7WTRvuze44O1KxvE19GnN2JDc+6YMWPS9ttvn6NN+E7+4Ac/yBst8B2Ng5A/vsPkJoqUKsW5UZxXOd9h11G8rGaaaaZ8CnlDSdXDnAtRgjbHvZhDxUFbXXXVVXOYIfdYaqml0m9+85s8J4+DeTsiB+Ib10LswLtz8cUXz0JZI/m1glcj3OptIM24Zr337sTzHn744bzrIAvE9FPrr79+TuxuCGGN2iwq0ajQbNvIQDvrrLOmSy65JE9M2qH+dWLj64QyR+dGWUO8IlQQN0UmoAz8HAzkDPCEhhEmyIBPx424RcdJRx5x2qxkff/738/J5nCNZ7UhOvJqrrb1Gm7VVjeKwthAHXW9nWcMRNHO6/1crfouljvKy7n1PHflZ/trU40YM7VYDtRmFbAGItSb/+f7T2gMYwTfdyYAN954Yw4995CABCQggZQFk5/+9KfZtsJe+t73vpcnwjPPPLN29TA3kLDjiBy488470zXXXJP+8Ic/9C3IYi9W2lfYZIgIeMAst9xyWSxAdCjr0YjNFzZ+vbbnYJ85uNcjmjRa/sGUqTKVyUDXINrk5z//eRawOPDAwkuKNClxMEcaOXJkjlAJp4/+niX+x6YNeKYvvfTS+XMk6cZR5OWXX86iBKkX8PbCUaR4r9VWWy2fw7Hsssum//3f/+0TwXgP0er3v/992mWXXXLKl/DWwVMr7l3vvH2wc4OBuFbyGeq8aqD7dfr/4fPkk09m7zvaIu1jzTXXzO1HAatG7UanTueDqzNqHwLWbLPNllfXK90WO72R9Hr5Q/SJQYdcNnSgV111Ve4UaQd4Va277rpphRVWyCFBCFkIWIhbb7zxRnZxJdkc7ePdd9/NHSZ5cOho999//7Tgggtm46xax1jkH20vrkFYItehM47PFjs9fue6MUANNFAVxVlcyBHleLbKg/OK12LVFHdhhDnOpzy1xKdqYlWUMwyIuHbxGrDG0EIUxMUYN/YwNOKZK1dz+F4S3ks9fOMb38isIpF+I+JYUQTk/lyT8hDzj0t95X2rXVsPrN7uSRCyWfC48MILs4A13XTTpT/96U95RdtDAhKQQK8TYBxHwGJCgriPHcBElY1PEPrrnWD2Osd6nh/WCIRM5okkIEwTDyxsprDDwnYMOwu7JhZhsaPIe7TFFlukn/zkJ30LMWWro0YFoEYWROvhXO2cRgSsEH+KdTDY+9b6XOW8YCDhJASsCCFk3lPpgYWAhch133339YURVmNbOefhe0748JJLLpmLyzyEtAt4WWE3LbPMMjn9AnONOJiTrbzyytljkCMELETvOLDXL7744rxjHTmracvsBE0EVaXzQH98m9k+KlnUM0cZ7rbQSdej3T733HN5h9qnnnoqz+3wxEOoVMCqUZPFVQm+oGeffXaeVOPqzApG5DbqpIZgWWsTKHYqKPzsjnPKKafksFH+h4G11VZbZfGKSWllvHcM6HSuhJiyEx0dKO8jwtCG2J0MUaZ4r+LvnE+SwnDrfvXVV/O5CFh00gsvvHAWwfib3c4Q10IU4gs933zz5Q4/rsl1KEucQ4e/yCKLZKGHJNOsxiFeMSjgKVbZGWDkUKabb745i3MkrX/rrbfyZ/A+wwuRMvHzo48+yl4nJNnjc5NNNllaZZVVsht6DOQYraz88YycgwgGT9g++OCD+YVxhRcLZUQcxIMF91+erSiycU3c4HEVhgWiF9fkM9ybMuHyjKdc5a6Q1VoB33deXI+BkjaAqzLXRMBixYg6YFDld0SyaocCVm/3MojOCFjnnntuFnhZxVbA6u024dNLQAL/IVAUsLBD+HveeefN9gyLgk7ohq+1IERhUx1zzDHZy4WF1rDzsOEIr2JRHpsGWxUhAfsH25Dcr9QF72NXbbTRRtlLBvuK9xqpp1qLto1cY/iotO5K9QprtUSNgUSmgZ4krhs/YwG9uJhc6xqVAha5fRGwijmwigIW9jPtaPXVV89zpGq7sdMeOY95ENcLz/RYPKb9RYL2SpGUdolHIHMszm+mgFVk0iwxK+ZFZRODB2pTrf5/zPWY49IG4MXc8tJLL1XAqlUZIWAhWiE+oBaHq/P111+fPXC6vfNtdUNt5/3CA4v6ZiWAOsebgi8PXj1HHnlk2mCDDfo8cYqdT+UghfhxyCGHZC8MhBiuTdw4iQoRbCoFLP7GsDjttNOyOIowg6cT4km0MUQUjA0+z8ol8ekYExxMlAl1ZIUsPKO4Jl9wjI4wQjifz6NcIyQhNjHQIKwRj17ckpa2fsstt+QVOwQiRCVWN3ifa3MuBhDPRZw6IhS777FbBOfgocjzrrjiin1x56wCsnU2yfBJssh3iPBKyszq4BNPPJGfO2Lp6ah4bsQoBjtioFkN5P+IaojKDzzwQDbQYgWLz+Atxa5vCFjsXEHZeK/WQXnJB0F9YVATCko5ImyUayJYTTHFFLkslANPPIS8ysFHAaud3+L23xshl91zIj4fAfamm27K3zMPCUhAAr1OAPuBcXKttdbK4y1jNwtU1157rbu1DmPjgDPjEWFfCFjYbxyx0RBJkbGnJppoomzjYtNhlyFcscjInGf06NHZnqOOsPcIFyOvKwuD/R3cm8/wWcrAwg42GGGIeNgUBbDw9uJ6YatWzq2w+YpHiCOx8BjRCggjtfJ1xZwODtjb3Jfzefaix35cM+5HWSoXd6udE7ZgPDeLv9iRLGAjAIa9WM2TPxgj4GAnwwqhkDrh3o2KHPCHGc9KeVh45jpcM/gU7f1qdTkYAYsFbUQuNrDqLzojNgyI8ErKG4ngQ7SrFMD6E7CivWGzs5BOGofwwNp0001zsveiB1Z/i9oxt4Mb/GhbfC8Q5yLqZCABN8pTnOvFPXlO6ibmGMwryp5jbhi7pYYvBUPm1Dha4JRBPfI7kU56YNXAGQ2PLwTus0xuQ4hAwHKlqOF2WOoPRKeFaIXIwgQ0Bi52PNh9992zN0XxiI62UsCi08PlkdUJfuf/CCDkeUAAiYNOjDZ11113ZQEKoQjjIY7o8OL6nIsBwO4biD4kPeWg8zv22GNzYrsYjDkXV1rEljAKMFhozwh0GJB0wqyAIGAh9MSAxiCKcIUBgyETO9QUQ/6ig+YzCFGIRXQuJL1HeEPAwnAiZj1WfRhE99hjjyxgUQ7EKZjimYVoF/fhmYpMKT/PTc4Mwnnvv//+nPCRnzHoFQf4MAYwHBDY2M0EV+VqRgDlQAzDxRjvKwY96oXn4nxeUU9RJow+npdBkpx48XyUUwGr1F/zpheOtoyAxZbwtAcMZNopQpaHBCQggV4nEAIWq+gsxGFXsPsgdgkTbBeGh9ZCwk5h0o2N+Ktf/SonP+aYZJJJ8uIsC5YsqmA7VtqvnIcdg/2K8MVEMewsFgaxDbF/KuspbGjsPxYWsatYlCSSADsYexbha6GFFsohQNh+pGk48MAD8wLHOltjAAAgAElEQVQpB0LmZpttNk7IfdhULFRyT2xLzqGt0H5oN/wP73gENsoYR5QJEYIF2XvuuScvVmKL0u4Q84imIRcTYWt8FiGVZ8YOxg7E3iYMjXO5HvYe4g72NeWGIbY98wSY8/4jjzySPfh5bgQ7uBM9wcQbm5HPRKgmghXXw1ObHD8ff/xx/gyiF17/5IOifERXFG3YojjC84YXE/ypu+BP5ASc+Sz8uSbfNzyYYMh1qgk6gxGwqAOiT6jjanOleC/KGrY+8wZStsCPg+sw76Z8cfQnYNE+iZghJBnuXC/qHuGJ+uGgPpmLMZ8jl1dRAAkRjYV9np06pF0hNFGPzEHYjIfPwQ6O1FPMA4vPS7sgRxNzCu5J/ZMQn/kf7ZVwacqJUwLPzf89qhOA7+uvv56dIWjXtB2+E3BUwOqn1YRXB50ljZG/+SLgvUJH50DbXV856pfBDdGFgYQOf4455siDOAJIDPb1rIYwiPCKNkRbobMrKu18MenEtttuu4QoGkYC5zDQ0Lkx8WUFi/JghDBB5jp8cRnoOOiQKSMeYghYIaiEgBW1xGQaYwDRhsGYjpXrIwohbnFfysuOi+wKgicS16JciEF03pSJgZUOhcR6DL6Ug+txXuQLY3cRVmJwJ47BCqOBgQMxOAyaKCvlxjChg6ccPCvGD9cP4QwmeD4RaoghAgfEMwYUBinOZZBjAIqBkGckdpoVGO7BUVw9QXQj4SPGTXjhcR6GFOIXbHlWOk54YAjwPIhv1Ns+++zTF05IfcIWTzQ8yhj4KDPn7bnnnq6ydFd3UfVpQsBi0w/aCd8LDCEFrB6ofB9RAhIYkEAIWIQD3XbbbXncxWMDuxrbQrt6QIR1nUDaBzzwWYRkEY6xCK837LKYv1SKIMULY78iqrAAiJ3EudhTLCTyHvZXHDH5x8YjGT/zJe6PHRb5tjgXuxU7lLBF5lXYWditsdMdicJZzMUODAECmwsPfEQxbDfEl/322y/nw0G0wIbG9uTZKFeEpfF5nptrMx4jTLFAzRgdHl20NWw8xAlSVSCasOMZKUTw0sLOw+aEGeUOW5RnPOigg/IzwpUk90QiYNuyYEWZK/OMcS1ELO5B20eQwsY9+eSTx0mqH88doXTUFWVAdET0qxRd4vvCM2EDY79jfzKXYe4QC7Bh+3Jf7FLKjDcd4bswqPzeDUbAYrMqBCxSlRSPWmIb5/A/Ijew02NOw++0g+LmN/0JWDwjdjbiasxBgiP3KD4b7RZGpE2JNky9IlgyD2DxkTkGi9nY8+EhSH1wPvVIuyWlDNfAg7FyTkjbpH0QBUM58LI66aST8lyCNku7oZzMK4mI4f8etQUsvrf0AXw3qUs2lmDOrIBVo9WEqkrDxjuFXEL8zpcdlVfFtLu+btQ3AxsDNvUd7qd4NdER4XXTqGFVzTgoXoPBhc6MQZcVIg4MOAQ0DA8UfsQcBkLEEMpGB82XODpVrsc5tQQswgpDQOI8Bi9WgFCzMRJwC+fZIq8XIs0BBxyQjRAGBT6LsYEnF4MKAz3XoWNnsKQ8dMAYLuFBxXNzj1oCFtdGSOPaGEQMBqxOMOjhOk2nxGCCaIQhwQ4nURY8z/gsgwj1xPMhXjGwcE5s68vKI2WiLHhLssqHEYAQF0YIxhWhodwDvhwMKFtvvXVeAcIwoYzw51rkkKC+eG4OcgHAilW1ECb1wOqufqHRp6EPIYFoeGDRnlkNVMBqlKTnS0AC3UggBCxsECau/I3HBhOSMu901wl1UbQ58SrH4x07EzsG24a0DoR5VYogtcQGBAUWE4kMwL4LLyoWDWPSzj2xqbAdmaTjXcJEPRZksfGwO/ksk/aISsBuwxOLuRX2b3hWIICQOzXC9LAFmbySKJx7Yq/ikUR4Ix4yIYwhIIWAFYuJeGhhG7PgiagUYkZ44sR52HiUkXQTCFXYnJQpNm7iutjmIYogVLExE5EWPBfPwoG3E+WOTZewSUME4bO8T/lZII40G3hKYTdGmeDAZ7BP+b0YgcBiKwvJlQf3DDEMoS7y52IXY4PwoizUZ6TG4HlZaCaSAHbYu8Wj2QJWiFdwQchm3kNb5WCXOeqtXgGL+qOtUy8RmhdtPFKAxLNhqyOw4nEXi/a0V/KWkpaEaBDaKJ9jvkCdUUbqI+oyNuhBzEWQZCE92hY/EahoHzgR8FkEQ8QuxM1iyhO+k8yHFLD6712Zf5H+hrkvBx6gLHgoYA0wKtEJo3wT9kRDZLKNkIDq6tE9BKhbVlwQZBA7QmBhwCDEDsOqmoAVQmejJGhXqPwIVbH6RGeJqzL3w3W20sigA6Wj33nnnfPqU9Fjqz8Bqzhor7HGGtmIQdQJN+YQuOicEXO4FgYLHTjtnHA9xJ+IxY9BnM8xWBBuyWpJJAilXAhYDPoMSpUeWHyXwohhAOU8PLWqJZHHkNhyyy3zgBDXYfBAWCREkYGBgT9EKZ4VgQkDgUGKZ+J8XH6pWwS7qEdcUPGWQmDgwPOKlStWxyhL8Tn5P89KbjMGOZLGc1/EK4y2MGAUsBr9JnTX+dQ/YmyEIGP80L4wWj0kIAEJ9DqBELAQJQix4QgBC/HAY/AEQsBiHMK7pphmArsSeye86rlLtWiCoggWvxe9gqrl/0EcwgY88cQT+8Qo7CO8h7AFWezDvkLwwSOMnDZhY4enUuw+h/2JgMXBfbG7mLyGgMV7XDsiAxCZEGMIScXTHduW/3EvRA28bcK7HpEGUQQBDm8m3sezhzEa8Sls6sj1ykIp4g4LnSGu8hkWbVm8xNu/aCdiL/O8CGHYmtjReGATrYDNyMFzYvdyDgIHz0IYI4z4LEITYiDzA0LR4ANzRA5sXmzfYiQH5YERdiiL7fEMfJeIGEKwZIEacQgBAI7Y6iHocQ4eapSnmBerFQIWPCg/QjZzgKIHFkJmPQIWthWMEO7wFCQlC55UkUqESAraT7R17H/mXbDGzmeOQD0g5FFH1CdtimgTwkf///bOBO7Wqez/SzIdHClNQjiUoRDhkOlE5HV40fCiWRpeEZVMJYkQepv0ZijNOpmSMY4OB5F5zFwdijIkQ8aj+n++69/1vLe7vfez9/08+9nD/b0/n+fzTPew1nfde61r/dZ1XYv3hGuYpyFA0ZZRThxZmDMhxDJ/i7kF5/J+8J7EuxdseVcj1QsL5V//+tefFypZ/dM/vFfyOSJsEKcG2kcBq822pjMhvIoXnAMBC+U/wpHavI2n9TkBPhQMFgxUJFOnU6NzY8DAo6JZroDRBKxm/0eMIvaZzi9WXxBZDjnkkDyQRP6lIjbuxQeZd5HQtVi1omx09o1CCPFQCkOFAZBcWXhSlXfRi/BJEr2TSJ7n847j5UTYX6O8AmFg0JljLLGSQAfOvfAeayVghdGCYIcoxGBfNJyi3tQXw4h2icEBcQ9xilW4GBTi2hC58JZiBYRVqcj1hfCMJwznMLjxXNqXsjD4IJRR11gNKd6T8nANAz/9AYM792EQxHBgdYVDAavPP+hdLh7vCCG59CHhHck7qAdWl8F7ewlIYCAIhIBFuBi73dFPKmCNX9PBlwk0ua6YyEcoGotzeLaEaMD3dhZlR4s8wH4677zz8sIrYhDPx3akffHcx66NxdII6WNiHzmkiiFahAYVBSzKSDQEAgTiAfcO2xjBBxGUkEI8YLBRY4doFjHJ4YqNzfUc/I/6Ryhe2MB4TXNvPNbw2MLjK9ggZISAVfTAovyEMYaAxfmIROTgQsyIZOnUFxsWe5SFYEKhsI+ZWyBkwZY6YDMg2uEpFR5YCE2UCc/E8EZjcRWbNQQ+ngt/7FGejbccfBDIiCRAFIJLpOqgriwGH3/88TnZOb/zTOYO2L54hUV7VxGwEMuw+4mmCFu8/GbHQnj8fzw8sLgHi+LY39SLuiDQ8XfEKkSi4nscHoG8e4RasnM0m+1wDiIk7wg5zRAWY2Gd+yNyIvbxbiF28T/CJmkTwkOZj/DM8MCiLJFGhs8AohjtDSfEL774m0ncW/d/RQELnghY9Dl6YI0ybgALEYAXkZdbAWv8Btp+uhOdDuFniBq4kiJg0bEjDBHrHANAedBvR8CKa6Ij4150rrxXhKMyyLG6QyeKgBQDW6MPJ/dglYFE0Qy2EZfdzAOL1RreW+6FyIIQVNwGN9qA+9KBh3cXf2fSjZsmnXgx30Gx3WJg5fOBGBW7LtIptxKwOI9OG08pVgWj4y/eO4QmjAUGlDB06PzxcCE/WbODQQlRDbGZA+MDYY5cGzBD/CNZPwYCbYiARp6syAfQ7L6cy86JiHXcB0OFd4adTjgQJs2B1U+f7IktC+8ouRiOPfbY/Lnjc8OKnQLWxLaDT5OABPqTAGMoE2dW1Nm4RgFrfNsJvni24VGCMIOdgicREz5sJ47wCmn05KJNO5p4xfX33HNP9upnYh/ePwhReGMhniBmFe/DObQ/yeXJ/4TAFM8MAatoozYSsCLHKhNZxlgEiaKdjRcO4V14elFXPK9YiMY7GpstPPbDK4cykWOLBWQ88/k/ZSp6YJUFLBZI8ZSKA9sZm7fo1RY2K/Y+Ah/hkpFHlesQbmOTobhPsEKY4vOBkII3GfdCqGN+Qr0pH+VkUZVnk3gekQXeRI5gh4TXWNGTjvvjBUd5sI+5B3MdbGp2OA8PuyoCFgIYC7x8jzlTcWGaxWG83/AOi+fw/EYhhCy2F8MlW+XACnbUn/lC7ELIs5mXxIJi+X1nHkBkBulOEEmYkyBYMjfgHWs0v6MtaLOYJ1IPHAoQzeAYAjLvR1HAwlOM+Rf9XgiVzP1C3B3fXmC47lYWsJjLsoOtAtYo7czLSPgULyIHaj8xy3RsHsNFAHWdThOPmtilj44NYSl2m4hBMmreroDF+UWPHmJ6yQGBSy9/RyRCCEHUKos5ZSMCTzHcU8mzw7WtkrizshIDCSsRdLSNwpm4D/HjuFxHHD/us3QSYRw0a22uxbWTjjncpBnARgshxJDA5ZmVoiKf8nMwKBCw4t4wol3Ku0IWr8MrDFGJfAxhiGA8sPoR7sC4m+NezoGBg2ca30NoLJcjhEAGW7xqOPDcQnRkwOP/emANV5/QaW1CwMJg4uCzTLivAlanJD1fAhIYRgIKWN1tVfji3YSHUGxGhJCEtxt2JkcrAats445WWkQQFlQJw8PWRDRhMZD0EY2Sg4cdjCCByEK5EGuwn9oRsLC5sO3wrsJbpmwfszjKwiSiTtjn2NoR3VC03aOu4cGDvYgth0jB0coDC4GChVIOJtIsKOONE88MD6NY5MXWJ3E9C1qcg13N4jh2P4JGsSxcyxe5mbCjmZNgW3ANKSzwJMO2gBsL2nioYR/zLBjiEcRclSNy05bryiIbdQhBDXuYuoeg0qmAFTnSYrG70aI0UROInYT1RR17KWAhvrLIj7cbYhIRFbwnpFqJNCJFbsETrzjmSth21IN3nagQ2jGiWcoCFh5yzNtIexLvRjsC8Wifvzr8XwGrYiuXBSw8sHDLVcCqCLSPL2MAYHCgE2eFiAPxCo8aOp1GRysBq5GREIM3AyS7psR2ryRUZ9AnqV+5cyt3csS74xnGwMfBgDGaBxbnsSpDfSLhYLk+CGIMYhEHzgoWq2rtuLdSHzp9hB3q3UrAQihj4CW+HSMEcap4FFeL+BnBmFUUVtP4nRUpBoJGySyL90G8w1OKgRVDh7ZFpOJgZYsVE2LviwMUg1asmpX50A4YaCFwURbOZ1WP9lDA6uMP9wQVjXeDcIDwwMKIw2A1B9YENYCPkYAE+pqAAlZ3mycWI7GREFiwUVjsQ2AhPxTHeAhYYaeRZwshhsU7bFEWPhn/SCPRaoLOIiMLkYR3RaJ5PCuwZZt5YFFu6oKNjt3YyAMDQQYPHDyKItwQUQKRrbgYS/mL9jtlJQqDaxGyeNZoHljw5Rl48CPExWZI5XlBCGQITWFzYpMyt+B5wTLsyxB3YIpHEYu8sZER4hTpLvBiwuMfMYVQTexWvvCAIvog0txEWYpl4jyERxbsWRDnuXgeYe9HMncWaglDDZGGxV/aq9g2LFxzDgJQCGVRh7KAxfMRsPBCItIhjm4JWHhXxXyhkQcW/0NEpUxxLjtR4qnHxlUxDyt+WsNzD5sOD0PmEdQbrzLmKTDnvrwXIWDFPIEQXtqpmPZEAau9vpD2QZjFcxCehCUTvaQH1ij8FLDae8EG/SwGh4glp5NBJKJzQWRCKEKQ6VTAKg4YIXpEh0UHx70RfOgAuT8DOZ1p2eOpkYDFII/4E2FKoyVxp9PEZZjJdbMdLxB4CI9D7ea+eB7iJsu1MaA2a2fqQ0JzXKqpa6sk7u0KWDwLhgy0iFYYF/zOKhaJ9osJHsvl4jwELFYiwxDBVZicABysLuE5hYt98OWaRm7Pzeoc7FlFjBxdemANek8wtvIXBSzuFB5YClhj4+rVEpDAcBBQwOpuO8L3zDPPzN724SlOrh0ECeyy8RSwCNliZ2ZEGA5sV2w1bE3EslYTdK4lrQMLgHgacRAa10zAQiThIOk4Ig45thpNYAk5xKuG9Bc8n9A/8qiyIBuLkM1agDKxsIkHFz+3ErDwcMPupc4sPGM/h0DYyB7FNsDmp84cLMDijRRpPorXhKDFvIR6IC7FzngsMiPGEcGAWIdQh93ONcwl8PYeTTzkXBaqEadisZ68VUQ7xEYKvC8IYZFHdjQBi/rxniFOUbaoQ7FepP1AYCt6pPdKwIIVohPJ/2NnRuZGiFcRClhcTC/WA/GVPFex2I9nI4IKdh7vZDEHFvfgfkRxIWCONpfqbu8wmHcnLx2iVVnAKibmn6iazfPPRm/2RD29w+coYHUIbEBPD4GJpIwMMrjlchAHzSoFA2srd+jyQM39EDPCmycSRoZ7LgM2gg8fSD6EuHij2JM0PRT6uGf53myRy7kMXBztJHEvCljFnfiKzcVKD27X3J9n4g5NXqyodytjBCEIgwLjgfq0SuI+kQIWHlh8hlkZwcAIAYvyYqjgTRlGDoYBLuOdHNQVd2hYcShgdUJv+M5VwBq+NrVGEpDA+BFQwBo/lo3uBF+8gbDlIvE5QswZZ5yRF0g5xsMDi/sgoOCJgljGcwnvwzZFxEIIaSUYYRuz0x4CTiRDbxVCGAIWQguCFN+L+aaCBd4aJFInDxj/x2OL88P247yiLVv0tEEwYsEam59JczsCFuIE6TPwOitudlRsm8ipRRoPFlVDaCI8kPlG2bYuCichsuBtRX1CwMKOx97GK4r6cTSLHmj0nhSFFMpHFAjMIm8WAhZhb3gp8dx2BCzCFgmtQ2QsHzwDsY8IkOImUo0ELJggZFbNgUWkCe8BB+9iIw8sHBbYEZ3/x6ZSsVhfjLJo9hmL94a2ok60K/WnjgiDxRBCInh4Fh6Gel113v8pYHXOLF+hgFUR3IBdFu6vKOrkZWIwolPDJZrEhrgsk5i8fMRAU+yUGARxMWVb1xB0uA+rNKjIxSTu7IzH+QgsdLoYAs0SmsezEddYtWKA4fkMBqPtQlgWsMqDOL8zUDL4YPRwIEKxkoeIV9xetxEDOm88o1jJgAXXNMuB1WsBi/LNmTMns6YsDFYMlPyMe3TRA67RYFPU3/kZNhH3r4A1YB/8cS6uAtY4A/V2EpDAUBFQwOp+c5LYmzxReO9gb2LTMInH+4WjlYDVyQQbTxQSsSOqhKcJ3kDYp5F2o5kNhd2LYEIoIOkhONrJgcViIYINCekbCVjY3AggeO7zf8L68Ngib1SzzYjCpoMLYX3sGIj9Tzhds10ImRMQcYCAxQI3fJul54gWJ7rj1FNPzaywkaNczeYV/J1FVnYfDA8sFl7xwELAYmJPeCSCWyTQD2GqlZ9IUbyCEddi+8JsLAIW4aO0DTvyNRPlGi32l5O4j7eAxa6L5YP2ZTdBwjNp9wgPLL5TzRjGOfyfL3a4pF0R7nAoKApY/B9hkxxZsVt593uA4XqCAlbF9lTAqghuwC6jnelYGVTxOkJMigSNrMIQrsdKUXH3DKrYqINDHMG9GEEoBB2UeQZGYqx5DqspiE6EnkUSRQQuQuPWX3/957lGRydJp4nARs4B8hvE9sDjJWDdfffd2RCJsDsGbwYS6k64XlGsKw74bA3MgMpWwWEYjUcOrOA7lhDCRh5YwZ9dcBhs4c+gTSw/hhdGCPWLAS3EPgZ5whj5wpjg/wiPuOXzHddhBawB++CPc3EVsMYZqLeTgASGioACVvebk8k59iZpKSJ3EuIV9mYxiXSzkoTIwH0IMeMeIXxhh4YdjE1EJACeOox92KIktGbxstEmO0WRBVsJ+wxBhk2NeGa7Ahb1aOaBxWR3l112Gdl4C68wbD3yRjUSsMK+pn7k4sL2x1ufo1US90j2jjiIMIFIMpqAhRjGboGdCFjMIxCwaAPYk/oiBCwERNoYb59YhOcZfDUT66IdY84T9i02MKJgXFfFA4u5C/OaELDaEUO75YHF/Ijn42GFQ0L5gCchkzgo8DP2Ow4GfE6a5TyOHLlRr2DIO8AO57wvtFEjAQuxLBwYut8DDNcTFLAqtqcCVkVwA3wZggyrSrjm0rHxDuChw6BIiB9qe+xQwf8iDh9RA4GJwZWE6AzQ/B9FnhwBePyE6yydNnHS5GkikTsHnjzssIc4hWBUfAb/RwwjESdJBln5CRGJ+3eSA4uVmxi0is3EAMjAzYoOYlZ4d7G6w2oenXRxQOJ8WDE4kAcBI4QyU7d2BSy83WAaYlX5taEM3RCw4r4YeVdeeWWuFxwZZHA1px7FlSx+pq4YN6yI0aHSXrhVf+1rX8urYZyjgDXAH/xxKLoC1jhA9BYSkMDQElDA6m7Twhc7BOGD/Jwk6cZWw6bEO4oJfdhyrbx0KCU7UpNa4oorrhgJByQSgRxXTNSxedjJGQELry9+Z0GPfKNM6Bt5s3AO5WHhkPtwLgu6ISC0SuJOefHAaiVgIbhhV3JOlBHBh02MmoX4RYsQ3QAjFrEpJ+JXKw8sNi9qV8CKuSQCFnZCeGCxSNzI7o2/FQUsykT5sEOxOZkTECWBFxtiI/dlnoJdO1oOspjbBKNIeB9276AKWIiitDdzMerEBgPMT4qCXcw3mHshmpL3F3akQWHBPnZwLLYLvCISJRLmxz15d4s71ZdzYPHekU8YobOR12B3e4TBv7sCVsU2VMCqCG6AL6OjQkFnJQG3UFZl6JzYNYQOiAEHt2S8bhCk6MwwGIgVZ7C//PLL00MPPZQ7TLyYWD2JuPBi0kkGWgZvOkxyYjFwcD6iCAknMQQYQLk/HSxCCztZ3HjjjSMx22BuV8DCu6qYxL3R6gj5rygPQhaDIx02hg+791FvkjPyPMQ6DBbiumGEuFN0S2+UxB0mrB5FCCGiIM9qR8Aq7kJIqCIiX2wJ3ehVoyyRxJ12KObAinrTruz8yOpcDHasHPEsVvdI/kn9eR9I6s8AhJt4JPjHAMEAwzOP94OBqShg0emS1BIjEvbt7OY4wB8bi/6v0IzYhTBEafoSk7j7ekhAAhL4/17r2D7kDWIXL8bjddZZJ++mFgmk5VSNQHgTwRSbBiGDCT3eKNieeNhgO2HnxC51zewncghh8xx99NHZ1uPA3kUcIrl32LLXX399TrFx3nnnZVuVvyMWYevh1VO0M0Mw4zzOZ2GX/FfhXdQqiXvk8xpNwELIQSQiNAwbDFuQdBiUm8VJQv6KR+Snwq7DvsMejPxJrXJgFT2w2gkh7IaAxT1Jso4NStoSDsQXPLIoUzObk/kGPHlHaB/ajOgQ5jXcE1u2qoBFVAOf52KYYqu3eTw9sGh7IkGIpGC+wYE9T1L+RmlQCF1FEESEZb5DEndseuYkjfLhwoX3BKGTSIw4yB9GLtz4TChgVeu/ml2lgFWRpwJWRXADfFmEjyEU4YVFHgHEjuJqFQMbnRYiCh0aYYOsdCFgxDayGAgYabhIszNHrHQEGu7HQMJgz7a9DOLhqs21XMNuHbgJM0jdcccduQx0xKz68NxGAlYYDIhpDGwxkUZEQ0yJXQgbxajzN+pLp04nXDSIcI8mTp6VHwaHa665JhtGsVsLAxFl5R54YMEOd/J4DiIcdUX0YqDBkw1vr1YCFmUnT1gIWPyON1inAhbiI6JcsTwMWLTb/vvvn+scu7Ew6DMAr7nmmlmAotzsWohASbkZpBAaQ0jj3lHHZgIW7IuJKwf442HRWxDQA8vXQwISkEBzAgpY3Xs7Ivk0tia2JHYjCyqR0BzbBYGDv+FtgmBYnthzHYIV4VV4MYW3P/YLNimiVuxyR1ti87EQi6ATwg/hg1xLWozypkHYSKTn4HzsLuxHDsrMAvFYPbC4F/cnjQeJ6yP5OTvAYdci3iFihc0GM7zBqC/iS+x0xv/bCSGMHFhEIrQKIeyGgEUZscUR3lhwR5CiPbGpSeLPIms5lJD2OvHEEzN/oib4P3YuC8sbbbTRiIfQoApYvFMIrMytYL7ddtvlMEvapiymYvNHypjIw8biNWzI5xX5cMPTis8GwivRNMwH+Dv8iMJgjhIhhnxmIok75+iBNbY+TwGrIj8FrIrghuAyxAq8J/AwYnBjpSl2qwgxKkLmQvSi2ogbDPAMxrhr8zOdXCOPJwZvhLJvf/vb+Rl4QIUnU1zDs2KbVzphDA/OwWjguUUPLFa8oiwIRex6wkE5EdIQsMKNulyeMH7o1Nnql3A63JcxALhnhNVFaCPn8zMiG15m7BLD7jesruFmToJKVrwoP9cjBDGosiJIvXFxZseXdgQsOMaKRwhHeIY1O8IDi2dxFAUsfo+6056Um8GbcyljiIRFwy7ERe5LfakXRiAGQtyL62DFqieecnS6xNJzngLWEHQIbVRBAasNSJ4iAQnUloAC1sQ1PXYW3iV4H2HLRl5PbK/p06fnhTrsQRZksXcQchCvWDTEIw6BI0Kn8NDBkxyRg8iAWNDl+5133pkn9Xg+RT4hFkpZQGURF4EEexabiAB5gDwAACAASURBVLAtbC0iCrBriwvD4+GBBV1EMu5PqB3eMtQbO5lFSXIcYZ/iYc+zqS82IEm2WdCMnfwiImK0EMJeCljUlTogmGBjwp9y057sco6dio2KUMl5RErg9UjeMjy2+BvnYqMyNyiKPIMoYNHON9xwQ44Yueeee0ZCWvHG412PXQZZYGdOwPmIrgiXJO7n3eU9Rbx65zvfmZOyh8iLwwDMmBeR1iTmRLyzeO2xuB/vsh5Y49vHKWBV5KmAVRHcgF8WijvfGdQvvfTSbAjQORL3zkpHeCeFiITXFC64uGkzaJPQkIG7GDZYxFI0ABhE6Rhxf2WAZwBmIIpzuDcuqnTMW265ZTYuWE3iYABl9YX8WbF1MR0zydgJo4vVrdEErGLZuB4xioTxrFCQE4uBPQwgOnkMFFbzCC2kbNwfw4fzCCGkU8fjKQZZxCHOYfWHcxgsRwsh5NqiBxY8iPFndaO4xW75daOcGCpFAQvBj0E9eES5+I44BntW7Fi1pMMM0TBcrDF4qC8hngxu5bblmQhYlA1BknsQcolhgDu9HlgD3im0UXwFrDYgeYoEJFBbAgpYE9v0RA/glYIXCuJF5D6iFNhxCFjYYgg8ePMw8Y9FS2wfzkG8IvcqtmeIAGGbcg7jHuLJoYcemm3kEIGwebg/ggH3x8sFsSVyXq266qpZWAsvrPHywKJsCA7ksiWHKyJFhLThVYPtGPYj5aFclBmbjv8j3GH/9YMHFjlX4R7J+CMHFvZ3LHZT1vPPPz9HExCpEfyJcsAW5ztM8EyjfTifc2iTrbfeOkc0IOoxV4kcTYMoYIUgSZQGIlOEpjIvwiuQuRLvM+9pcafEa6+9NntdEWkRcy+cAVZaaaXMDqcE3hHCLiM5fIQ+c12IuvHJVsAa3z5OAasiTwWsiuCG7DI6ewZBBlvEHASnEDnoFFnFQODAK2iVVVbJwgUdXKuEfWEAhCjE/RhccGGms+R3BhgGUbx+Vl999XxvjAK8wRDVQlxhxYCQRsoSHlgMVnh1cXAe4gsu4I1iu6O5iqtheCdhBJDTiw6ZEEl+Z/WNTh3PsjXWWCMPDHT6uNaGBxkDBp0654TQxzmIYZQLLpSDfAasXBTFpChLeDYhGM6cOTO7qnMvzkcchHmrAy8yBnMOmOFCHuUpe5/RvtybgQyDBkOOBKaIlzyH9sTIow1oC+7XKASTARPhDxESI4H2gDkJTRvF4A/Zx6T21VHAqv0rIAAJSKAFAQWsiXs9Ymc6bDnCCE855ZRsE8YmPZQkogjCTgxbLPKf4mGCJz/2I7ZfeOqX7TQm9iw2sngXQkDYv3wPUSXsMbz28W7Cqyu8ZRp5YGFzEnXQbg6soi2LRxV1ZtEUmyxEoKhrhHzxO4vPLPjyPNJvIGJFDiwWYxG3wj7m/3icYZu244EV17Hw2WkS90YCFrnDCM2MtuA75SZigmgC7Gzs5RC4YjG8GC0QXlp4X2GflqNEGglY7C6J6BgH8xV278aDjWdhl/cyBxblwu4+++yzsyDFYnRxDkb9ea9ZrMbJIMIrYUVKFBbsSYqPp1pxLhRRJDG34nOAqMviNO8svxcdDph3EMLKu8c1EUJIwniPzgkoYHXObGRSTafDi8iBCyodymiT54qP87I+JhBCTOS4ItQOwwAxg69yR9luVYqDDNewGoVwguBDZ8sAyQpACCDFla/iM4peY/zc6W4XUb8Y5IoCDWVCwKNM1BX3W1aq2nlGDLLR+ReFvUa71JQNo+JAUjSyRuPbjFOj64Jd/C/yItDGIVCGoddOnYtt0Sh0dLSy+//BJKCANZjtZqklIIGJIaCANTGceUoIWNgg2KrkBWJBksVPQuwI/cPGif9j2+F5gncSYgQLjCxSIu6U7c+yLUa7Ih4Qssd8CREBAYnnci1lwZZiEZCJPN7wLPoS5saEnzLggYVYxEJtHNjCeL1zX+6P5wz5tYh0aMcWw25FjMEbH4ENoSeELBaIWWwlvIxoAZ6PwEREA4uxsCDCgFytkZ6DcpFWBK8l+FEn6oO3V7NdDsMWZXOmCLPEM4oIBKIqykfR5qXslI12giNhkbELYcwdwt7EPqdMRBLggcTCM8Ii53FO2O4sqrKgyyIz3nGNFmRZiGU3v9glnfPxXCq2DW3COYiLtDNtQ/uFd1M77UO5EMDwMotcw9tvv30WwlgoD/uZnFPks4pUItOmTcvMWVAuz4N4Z/BIgwNeh7Q5bJjHMG8hvQptVnyneScQUrmOLxazeXeoV9GjkGgTwm+5HhZFh4BoN9qA94PcxpSf94Kd6SmzR+cEFLA6Z5av0AOrIjgv64hAWUBpdXEn53ZSiBCwyobJWASY6NCbiVDFe5fPiXI0+nu5jJ3Us9G53WI61nJ5/WARUMAarPaytBKQwMQSUMCaWN7lpzEhJwUGUQR84X0Sydfx6kGQIWUFHkdEFBQ9x9uxxRgD8WDBywsBi58RDpjoI0hwX7z2+Y4wQDRBbKCDSISwUxQFwqs9BAjyiiK6cH27til1JoIAjykEEDzsuZbnURbqSdmoO+XmizBHBC6Y8Dy8dUIwghv3QiiBD0JcREe0si/xWMKzi7pQfvJTxaZKZREmbFzaiqiMEN0QEykzolOxPYJF5HVCgEO8gj8RHfyf3Gd8EVGASImY04gh9+WdQADjO/ckAoG2KTpvUH/yQiEwcB8W2jkHru3a6DyLOpILOCIhYEP4Hp5NcfAs3hVETMrDM4jGKO8qGfN2eBFFQVvBO4Ra2pHrIgVI2fbnOVxHO1Eu3hu+w4t3AQ7wb7aLJxz4TBFpAvsIw8VzjXfXo3MCClidM8tXKGBVBOdlA0mgHQOlk4o1u1/cYzQBq9Wz2jVeOimv50pgLAQUsMZCz2slIIFhJ1AWsKgv3jTk9cQbxqN7BGCPSFDciIenxe7ZkaczwqHKaQ+aLTKWS8wzuAdiA/eOSAUEDo7YBKnsgc/4WcwZWww75H6RboOfO7H/igupCBmRcwuBCpGkkadQRA5ExEWEkTVqnXbKUixDsZ7NBKR4TlFgCY+6cnmb2dk8ByGHOvMzwmC7uVhjQTtEu/Iu6kUOxbDSYn3a4RLz7Di3kSgX5xS/N3sHWrGI6I84p1n5ou7Bju+8JyH4tZq3xHvKPaKdog3b5dG9HmAw76yAVbHdFLAqgvOygSQwmuDUrFKtBoJ2RahOn+1gMJCv2FAXWgFrqJvXyklAAmMk0EzAIodmM6+GMT7Sy/9FgPGpKEgUBYEQllrBalfACqGsKHo0E2qaCRYhBFCeECtCwOq0QYvCXbNyxN9DJIpnhOdT7MLN3+Mc7kuZRstvGgIG3xHPOD/q0miTpzLnEBSLwktRIOmUR3g6Rfs0s6XjfSnWvdGzyoJQCI+tRK/yfcr3CBGpKGw1Eu5atWdRNCyG05bFstFCHYsiYrNyx9/L5SmmiCmni+m03ep6vgJWxZbnxWV3N3Z04yB2ePbs2ebAqsjTyyQgAQkMKwEFrGFtWeslAQmMB4FmAhZ5Z8wtOx6EW9+j1WS8+0/v3ROq1rsdb51OFlObCXYTSWa0OhXLUpXbRNannWcNSz3aqeuwndNKwOrkszceXOb5Z6euFuPx1Ir3oKg77LBDFrD4mYSGJNVrtZNbxUd5mQQkIAEJDDABBawBbjyLLgEJdJ1AIwFr6tSpeafhCDHreiF8gAQkIAEJDAQBBayKzaSAVRGcl0lAAhKoGQEFrJo1uNWVgAQ6IlAWsPgdAeuCCy5QwOqIpCdLQAISGH4CClgV21gBqyI4L5OABCRQMwIKWDVrcKsrAQl0REABqyNcniwBCUig1gQUsCo2vwJWRXBeJgEJSKBmBBSwatbgVlcCEuiIgAJWR7g8WQISkECtCShgVWx+BayK4LxMAhKQQM0IKGDVrMGtrgQk0BEBBayOcHmyBCQggVoTUMCq2PwKWBXBeZkEJCCBmhFQwKpZg1tdCUigIwIKWB3h8mQJSEACtSaggFWx+RWwKoLzMglIQAI1I6CAVbMGt7oSkEBHBBSwOsLlyRKQgARqTUABq2LzK2BVBOdlEpCABGpGQAGrZg1udSUggY4IKGB1hMuTJSABCdSagAJWxeZXwKoIzsskIAEJ1IyAAlbNGtzqSkACHRFQwOoIlydLQAISqDUBBayKza+AVRGcl0lAAhKoGQEFrJo1uNWVgAQ6IqCA1REuT5aABCRQawIKWBWbXwGrIjgvk4AEJFAzAgpYNWtwqysBCXREQAGrI1yeLAEJSKDWBBSwKja/AlZFcF4mAQlIoGYEFLBq1uBWVwIS6IiAAlZHuDxZAhKQQK0JKGBVbH4FrIrgvEwCEpBAzQgoYNWswa2uBCTQEQEFrI5webIEJCCBWhNQwKrY/ApYFcF5mQQkIIGaEVDAqlmDW10JSKAjAgpYHeHyZAlIQAK1JqCAVbH5FbAqgvMyCUhAAjUjoIBVswa3uhKQQEcEFLA6wuXJEpCABGpNQAGrYvMrYFUE52USkIAEakZAAatmDW51JSCBjggoYHWEy5MlIAEJ1JqAAlbF5lfAqgjOyyQgAQnUjIACVs0a3OpKQAIdEVDA6giXJ0tAAhKoNQEFrIrNr4BVEZyXSUACEqgZAQWsmjW41ZWABDoioIDVES5PloAEJFBrAgpYFZtfAasiOC+TgAQkUDMCClg1a3CrKwEJdERAAasjXJ4sAQlIoNYEFLAqNr8CVkVwXiYBCUigZgQUsGrW4FZXAhLoiIACVke4PFkCEpBArQkoYFVsfgWsiuC8TAISkEDNCChg1azBra4EJNARAQWsjnB5sgQkIIFaE1DAqtj8ClgVwXmZBCQggZoRUMCqWYNbXQlIoCMCClgd4fJkCUhAArUmoIBVsfkVsCqC8zIJSEACNSOggFWzBre6EpBARwQUsDrC5ckSkIAEak1AAati8ytgVQTnZRKQgARqRkABq2YNbnUlIIGOCChgdYTLkyUgAQnUmoACVsXmV8CqCM7LJCABCdSMgAJWzRrc6kpAAh0RUMDqCJcnS0ACEqg1AQWsis2vgFURnJdJQAISqBkBBayaNbjVlYAEOiKggNURLk+WgAQkUGsCClgVm18BqyI4L5OABCRQMwIKWDVrcKsrAQl0REABqyNcniwBCUig1gQUsCo2vwJWRXBeJgEJSKBmBBSwatbgVlcCEuiIgAJWR7g8WQISkECtCShgVWx+BayK4LxMAhKQQM0IKGDVrMGtrgQk0BEBBayOcHmyBCQggVoTUMCq2PxVBCyu8ZCABCQggeEkMM888zSsmALWcLa3tZKABMaHgALW+HD0LhKQgATqQKCVgEX9m9nj3WAzzz8HSOGhqDvuuGM6+eSTE5OTNdZYI11yySVpkUUWacpmgKrXjfb1nhKQgASGmoAC1lA3r5WTgAS6RKCRgLXuuuumCy64oKVd3aXieFsJSEACEuhjAgpYFRunLGCtvvrqClgVWXqZBCQggWEhUBaxYuFi9913T8ccc0zi9xe+8IXptttuS8svv/ywVNt6SEACEqhMoCxgcaN11lknC1gLL7xw5fu2e+FErta3WybPk4AEJCCBfyfAePHoo4+mTTfdNF133XXZrp42bVqaOXNmesELXpAvmMg+faA9sJZeeul06KGHpgUXXLDpuzaRMH3hJSABCUig9wQYWOn7v/vd76Zf/OIX2WNXAav37WIJJCCB/iFQFrCYhEyZMiUdeOCBaf755x/XgtIfF+1xbfNxxevNJCABCXSVAOPF448/ng466KA0Z84cBaxOaIcH1mmnnZaee+65Ti71XAlIQAISqBGB4gRJD6waNbxVlYAE2iLQKISwW8JSt+7bVkU9SQISkIAEKhGIiIZYGOYm9OcsDOuB1SbSELBOPfXU9Pe//30E4GiXO3CORsj/S0ACEhhsAo3yHRb7fj2wBrt9Lb0EJDC+BFoJWK3yx47FpjYv7fi2oXeTgAQkMJEE6P+jH1fAapN87EJ40kkn5SvmnXfelm7OMciOZbBts2ieJgEJSEACPSZQXCni57lz5+ZVIg4FrB43jo+XgAT6ikAjAQu7er755svlVGzqq+ayMBKQgAR6SgA95dlnn81jgzmwOmiKogcWPy+77LLp6KOPbpkDKxKLdfAYT5WABCQggQElEAMrxf/qV7+azjzzTJO4D2hbWmwJSKB7BBoJWCuvvHI64ogj0qRJk0Z9sIvDoyLyBAlIQAIDTyD6+qeeeip98pOfzBsiceiB1WbThgfWySefnK9Yc80106xZs9Kiiy7a9A4OsG3C9TQJSEACQ0IgRKzddtstHXvssQpYQ9KuVkMCEhg/Ao12IVx33XXT+eefP7ILYTMbWtt6/NrBO0lAAhIYBALsQrjZZpulq6++WgGrkwYrhhDiWbX66qunCy+8sKWA1cn9PVcCEpCABAabQOx2RejgHnvskb71rW+5C+FgN6mll4AEukCgkQdWCFitFoYpigJWFxrEW0pAAhLoQwIRTv7YY4+lN7/5zenaa69VwOqkncoC1mqrrZYuuuiiNHny5E5u47kSkIAEJDCkBGJixXjxsY99TA+sIW1nqyUBCYyNQFHAuvzyy7MoNXXq1BEPrGKy3njSeAhX5tYaW7t5tQQkIIFeEFDAqki9mYC12GKLVbyjl0lAAhKQwDASCAHrmGOOydUzifswtrJ1koAEqhJoFEKIgDVz5syREMKq9/Y6CUhAAhIYDgJ6YI2xHRWwxgjQyyUgAQnUhIACVk0a2mpKQAKVCChgVcLmRRKQgARqRUABa4zNrYA1RoBeLgEJSKAmBBSwatLQVlMCEqhEQAGrEjYvkoAEJFA7AowXhBBuuumm6Zprrsn132STTdIFF1yQyEvOMR4h5u2CneefAxSMroDVbrN6ngQkIIF6E+iFgMUzJ3IAr3cLW3sJSGAsBBSwxkLPayUgAQnUi0AIWLEL4cYbbzwiYMUGShNFRAFrokj7HAlIQAISmDAC3RawQqx67rnn0r333ptmzZqVFl988bzF8CKLLDJh9fRBEpCABKoQUMCqQs1rJCABCdSTgAJWxXbXA6siOC+TgAQkUDMC3RCwig7L/Pz444/n1adTTjkl74i7zDLLpCOPPDJttNFGNaNtdSUggUEjoIA1aC1meSUgAQn0joACVkX2ClgVwXmZBCQggZoRGKuAFWJVcSv5CA985pln0p133pl++MMfpjPOOCP97ne/S3hizT///OkjH/lI2muvvdKSSy45khegZuitrgQkMEEEnn322fTUU09lr8955523o6cqYHWEy5MlIAEJ1JqAAlbF5lfAqgjOyyQgAQnUjMBYBazA9Y9//CP/iHg1d+7c9NBDD6XTTz89zZgxI91yyy3pkUceSTwrBK8pU6ako446Km2xxRZZ0JrovAA1a2arK4FaEqC/QbiaPXt29gDdfvvt0+abb55e+MIXtp2HTwGrlq+OlZaABCRQiYACViVsKU8Qdthhh3TSSSflle3VVlsth20stthiFe/oZRKQgAQkMIwExipgcT3iFV4NfH/66afTxRdfnI4++uh0xRVXpEcffTT//e9///uISMXvCyywQJo+fXr64he/mF7zmtdkz6xOJpXD2BbWSQISGF8CTzzxRO6H9t9//3T99dentdZaKx1wwAHpzW9+cxbO2zkUsNqh5DkSkIAEJAABBayK74ECVkVwXiYBCUigZgSqCljFnQT5+W9/+1uaM2dOOvnkk/NXhAuCs5wTC28rJo8rrrhi+sY3vpE22GCDLIC5M2HNXj6rK4EuEaDPQUwn997BBx+cbr755uyJhXA+derUtPfee6dp06alhRZaaNQSKGCNisgTJCABCUjgXwQUsCq+CgpYFcF5mQQkIIGaEagqYAUmPKceeOCBNHPmzOx1de2112aPqzjwAuYZfMcLi++LLrpoWmONNdIee+yRNt100zR58uR8jgJWzV4+qyuBLhAI8YotzMmzd8011+S+hb6Kg5/XW2+9dNBBB+WNJEbzxFLA6kIjeUsJSEACQ0pAAatiwypgVQTnZRKQgARqRqCqgIUY9fDDD6crr7wy/exnP0tnn312evDBB58nXsVkke88Z9KkSekNb3hD2mqrrdI222yTyIMV+a9qht3qSkACXSKA59Uvf/nLLFDhecXvRS9QHjvffPOlN73pTenTn/70qJ5YClhdaihvKwEJSGAICShgVWxUBayK4LxMAhKQQM0IVBGwEK/IJ3PWWWelE088Md11112ZWnmSGCjJbcVug5tttll617velSeOZa8HPbBq9uJZXQl0gUAkbD/kkENy7iv6qkZ9E15YeIOus8466cADD0ybbLJJDi9sdChgdaGhvKUEJCCBISWggFWxYRWwKoLzMglIQAI1IzCagMX/i+ISua1I0k6eqwsvvHDE44qwwQjRAWHsKojX1ZZbbpm22267tPHGG6eXvexlDfNdMdHsdHv7mjWV1ZWABAoEyqL3M888kz2vyHkVocz0S9GHFeFFuDJ9zoYbbphzYpHYHc+sciizApavnQQkIAEJtEtAAatdUqXzFLAqgvMyCUhAAjUj0EzAWnbZZZ8nXLGbIILV6aefns4999wcPsjkkAkf90CACg8sPBs43vjGN6b/+q//SltssUVaaaWVRkQtc13V7CWzuhLoMgE8r2bNmpWOPPLIdNlll414XvHYZp6hUSS8QcnFt+uuu2Yv0XJYswJWlxvP20tAAhIYIgIKWBUbUwGrIjgvk4AEJFAzAo0ErFtvvTUtt9xymQTC1E033ZRmzJiRxSt2Gpw7d24Wo8IDojxBXGaZZbJwtfXWW6c111wzLbjggjlch0PxqmYvmNWVQBcJ0Pc8++yzafbs2Tnn1VVXXTXiFRr90mgCFn0SfRQbS+y7775p+vTpz+unFLC62IDeWgISkMCQEVDAqtigClgVwXmZBCQggZoRaCZg4YHF7oLnnHNOFq/Yyeuvf/3riBAFpmYTRHYZXHXVVdPLX/7yRP6rZvmtFLNq9rJZXQmMMwH6EASse+65JydsR3APcb3YR7XzWDyv1l9//bxzYXhixT2efPLJ9Ja3vCX9+te/zreaOnVq3nl14YUXbufWniMBCUhAAjUhoIBVsaEVsCqC8zIJSEACNSPQLITwpS99aTrhhBNySM6f//zn7NUQQlQIT80ErOIEsnxu4FW8qtmLZnUl0EUCRZG8lXfoaEVAcMdr9Atf+EIWrEIQYydDBazR6Pl/CUhAAhJQwKr4DihgVQTnZRKQgARqRqCZgMVEbqeddsoeB7GTV6CJcMBWAlbNMFpdCUhgSAjgicVOqfvss0/enZA8f3pgDUnjWg0JSEACXSaggFURsAJWRXBeJgEJSKBmBJqFEBKWw65ceF+VPapaeWDpWVWzF8jqSqDPCDQLWe6kmAj4O++8c/rMZz6TllpqKQWsTuB5rgQkIIEaE1DAqtj4ClgVwXmZBCQggZoRaOWB9b73vS8nRy4KWJ3gGY+JZCfP81wJSKCeBKKPCq/QToX0Yh9HQnfE+0996lNpgw02yHn89MCq53tlrSUgAQl0SkABq1Ni/zpfAasiOC+TgAQkUDMCzQQsErD/4Ac/SEcccUS6995703PPPdcRmbGKV51OQIuFG23XsY4q4skSkEDfExhL3isqN++88+ZQ6QUWWCAnaP/c5z6XxSv+zkEOLBK7m8S9718FCygBCUigpwQUsCriV8CqCM7LJCABCdSMQDMBi10IH3zwwXTxxRenk08+OV100UXpoYcearqjINhCOFpsscXybl7LL7989l6o4sGlgFWzF9HqSqACgdiF8JZbbkm/+tWv8h0Qoth0Io52+5KFFlooi1Qf//jHs3hFLqy4Fg8sBawKDeQlEpCABGpGQAGrYoMrYFUE52USkIAEakagmYCF+MT/mAzecccd6fTTT0+nnHJKYqJIfiyOZtvVL7HEEmmbbbZJb3vb29JGG22UJk2alEj8XpxUjoaZe7c78Szfi3LrhTUaYf8vgcEmEH0E3lFXXnllOvTQQ7PgTv9U3HiiUT9SFtVJ1E7C9v333z9tuOGGub/ioM/i3KeeekoBa7BfF0svAQlIYEIIKGBVxKyAVRGcl0lAAhKoGYFWAlag4JxHH300h8+cddZZ2SPrL3/5y4hIxGQvxK64htCb17/+9WnbbbdN06dPT6uvvnqeFLabo0YBq2YvotWVQAcEQpSK788880y64oorcsjzzJkz09y5c1t6ixZzZuFpNW3atCxeET7I78W+j58VsDpoHE+VgAQkUGMCClgVG18BqyI4L5OABCRQMwLtCFiBBE+H++67L11zzTVpxowZ6fzzz8/JjeMoe1gxSVx00UXTeuutl7baaqvslbXkkkuOhBXWDLXVlYAEukiA/umyyy5Lhx9+eLrkkkty3iqOZh5Y/B3PKxK277333ulNb3pT7psaHYYQdrHhvLUEJCCBISKggFWxMRWwKoLzMglIQAI1I9CJgAUaRCq+7rrrrhyu881vfjPdeOONLfNc4Xk1efLkPFFka3pCdRZeeOGakba6EpBANwnQlxE+eP3116fPfOYz6cILLxwJAeS55bBixKpNN900HXDAAWmdddbJYlaEH0cIYZRXAaubLee9JSABCQwPAQWsim2pgFURnJdJQAISqBmBTgWswEOOmccffzzdcMMNOTfWL37xi3T33Xfn0J1mB6LVa1/72rTFFluk7bbbLq2yyio5PxZH1XxXNWsuqysBCYxCABFr9uzZab/99ks333zzSM6+YvgyYYIkZcfzCvFqwQUXzHeNnFfl/kgBy9dOAhKQgATaIaCA1Q6lBucoYFUE52USkIAEakagqoAVmLieUJ1Zs2alQw45JF111VUjydqLHg+R04q/kR9rxRVXzJ4P5MdC2Cp7PNSsGayuBCQwjgQQ0tlwYrfddkuXX355vnMkdqcvYnOJI488Mq211lqj9j30WQhYLDuwCAAAIABJREFUb3nLW3IeQA5yZZFrS0/ScWw0byUBCUhgCAgoYFVsRAWsiuC8TAISkEDNCIxVwAJXTPDwwDrzzDPzF2GFTzzxRNPdAPGAIMn7UUcd1TL3TM2aw+pKQALjQIA+KRK7x+6ECO0LLbRQFqL22GOPtO6666YFFlggC+qtPEAVsMahQbyFBCQggZoQUMCq2NAKWBXBeZkEJCCBGhLYdddd0zHHHJNrTl6Y2267LS2//PIdkWDciZ298FL4xje+kS666KL04IMP/tuW9pzHpHHHHXdMn//859Oyyy7b0bM8WQISkEA7BJ577rl00003pT333DN7hxIuiKfoBhts0M7l+RwFrLZReaIEJCCB2hNQwKr4CihgVQTnZRKQgARqSKAoYCEsIWBNmTKlMgnCdxjAzz333JwfC0HrgQceGLkfAtbKK6+cQ3hIolzctr7yQ71QAhKQQIFAiOpPPfVUuuKKK9J5552XNt9887T++uvnPod+iJxXo4UvK2D5WklAAhKQQLsEWglYo4037T6j3fPm+Wd5+5J2r+zBeQpYPYDuIyUgAQn0OYGY0JWLGQJW5Ke6/fbbxyRgxf3JOTNnzpw0Y8aMdMYZZ2RPCMJ6mDzutdde6eMf/3haYoklTODe5++NxZPAoBOgLyK5OyGEnR4KWJ0S83wJSEAC9SWggFWx7RWwKoLzMglIQAJDTGCiBSxQ8kx2K7zuuuvS6aefns4666y09NJLp8MOOyyH87j74BC/cFZNAkNAQAFrCBrRKkhAAhKYIAIKWBVBK2BVBOdlEpCABIaYQC8ErBCx+H7//fenSy+9NO/cteGGG6ZFFllkiGlbNQlIYBgIKGANQytaBwlIQAITQ0ABqyJnBayK4LxMAhKQwBAT6JWAVURKKA/lIFm8hwQkIIF+J6CA1e8tZPkkIAEJ9A8BBayKbaGAVRGcl0lAAhIYYgL9IGANMV6rJgEJDCEBBawhbFSrJAEJSKBLBBSwKoJVwKoIzsskIAEJDDEBBawhblyrJgEJdIWAAlZXsHpTCUhAAkNJQAGrYrMqYFUE52USkIAEhpiAAtYQN65Vk4AEukJAAasrWL2pBCQggaEkoIBVsVkVsCqC8zIJSEACQ0yAsSGO2P2Pv+26667p2GOPzbmp5p133nT77benKVOmDDEJqyYBCUigPQIKWO1x8iwJSEACEkhJAaviW6CAVRGcl0lAAhIYYgIKWEPcuFZNAhLoCgEFrK5g9aYSkIAEhpKAAlbFZlXAqgjOyyQgAQkMMYFGAtY//vGP9LGPfUwPrCFud6smAQlUJ6CAVZ2dV0pAAhKoGwEFrIotroBVEZyXSUACEhhiAgpYQ9y4Vk0CEugKAQWsrmD1phKQgASGkoACVsVmVcCqCM7LJCABCQwxAQWsIW5cqyYBCXSFgAJWV7B6UwlIQAJDSUABq2KzKmBVBOdlEpCABIaYQDsC1gtf+MJ02223mcR9iN8DqyYBCbRPQAGrfVaeKQEJSKDuBMoC1iabbJJmzpyZXvCCF+SviTzm+WfR8p/IJ1d4FkXdcccd009/+tMMarXVVksXXXRRWmyxxSrczUskIAEJSGAYCLQjYM0333zp1ltvVcAahga3DhKQwJgJlAUsfp86dWqekCyyyCJjvr83kIAEJCCB4SHw6KOPps022yxdffXVuVLTpk0bEbBiB/CJqu1ACVhA2WmnndKMGTMyHwSs2bNnK2BN1NvicyQgAQn0IYHyOgwDKUncd91113TcccflEiNg4YG13HLL9WENLJIEJCCBiSVAv/nUU0+lzTffPF122WWJ39ddd910/vnnp8mTJ09sYXyaBCQgAQn0LQHGBwSsLbfcMl1xxRV5vFDA6qC53v3ud6cTTzwxX/H6178+C1gvetGLOriDp0pAAhKQwDARaCRg/f3vf88C1vHHHz8iYN1+++1p2WWXHaaqWxcJSEAClQk8+eSTaYsttki/+tWv8oRk7bXXzivqRjZURuqFEpCABIaOAOPDX//61yxgXXnllbl+IWDNO++8E17fgfPAes973pMFLEAqYE34++IDJSABCfQdgUYhhHPnzk277bbbiIC1wAIL5BBCBay+az4LJAEJ9IgAHlhMSC655JLstaqA1aOG8LESkIAE+pzAQw89lD12r7vuOgWsTtvqve99bxawGGgJIbzwwgvT4osv3ultPF8CEpCABIaEQCMB69lnn0277777iIC14IILpltuuUUBa0ja3GpIQAJjJ4CAtdVWW+VohhCwCCE0smHsbL2DBCQggWEi8MADD2SP3euvvz6RqgMPLMYLPbDaaOX3v//96Uc/+lEeaPHAwtX5pS99aQbpIQEJSEAC9SPQSMBiYoaAdcIJJ2QgkyZNSjfeeGNafvnl6wfIGktAAhJoQIB+cptttkmzZs0aEbDOOeectMQSS8hLAhKQgAQkMEKgKGCxmR4J3c8+++zELt8TfQxcCOHOO++cfvCDH+SB9nWve136xS9+kV75ylcqYE30m+PzJCABCfQJgUYC1uOPP5722GOP9L3vfS+PD+R0ufbaa/XA6pM2sxgSkEDvCSBgbbvttumCCy7IdvVaa62VzjrrrPSKV7yi94WzBBKQgAQk0DcE7rvvvhxyftNNN2W7+q1vfWs644wz9MBqp4V22WWXPCEhQe+qq66aB9pXv/rVCljtwPMcCUhAAkNIoFESd5JN7rnnnumHP/xhHh/w1CXx5DLLLDOEBKySBCQggc4JlAWsNdZYI/385z+3n+wcpVdIQAISGGoCd999d9p6663Tb37zm1zP6dOnp9NOO00Bq1mrx+SESchHPvKRHBLy3HPPZQHrZz/7WVphhRUUsIb6I2PlJCABCTQnUBawOJNkk5/85CdzzkTGjle96lXp4osvzgseHhKQgAQkkBIC1jve8Y507rnnZg+s1VdfPdvVyy23nHgkIAEJSEACIwTuuuuutP32248IWP/5n/+ZTj75ZAWsVgJWTFAICfn2t7+dnn766bTyyitncHwnFtNDAhKQgATqR6CRgHX//fenT3ziE+mkk07K4wMLHYScK2DV7/2wxhKQwL8ToN/ElmZ379NPPz1HNrA50imnnJJWXHFFkUlAAhKQgARGCLCTNwsefOfg5x//+McKWK0ELFaGGGz322+/dMwxx6Qnn3wyTZkyJf3kJz9Jb3jDGxSw/IBJQAISqCmBRjmw/vjHP2YBi8kYCSYJjcGzYKmllqopJastAQlI4P8IhID1oQ99KP30pz/NkQ3klp0xY0aOcPCQgAQkIAEJBAE2Qtphhx3S7bffniMb3vWud+WoOHchbPKOMMjyBazPfvaz6eijj05/+9vfcjJeErpPnTq1J/B8pSUgAQlIoPcEGglYc+bMyQIWngXzzTdfWm+99fKCx5JLLtn7AlsCCUhAAj0mQL/5zDPPpN122y3b0ghYq6yySl5RxxPL3b173EA+XgISkECfEGC8YCMkRKs777wzjw9srIdTUS+i4AZiF8Li5OSggw5KX/3qV9Ojjz6aQ0GOO+64tOmmmypg9ckLbjEkIAEJTDSBRgIWSSb32muvHDa44IIL5nGC8HN315ro1vF5EpBAPxIIAWvvvfdOxx57bJo7d25aaaWV0vHHH5/WX399Bax+bDTLJAEJSKAHBBgvLrnkkvTBD34w/e53v8uiFYsfX/7yl/NYMdELHgMnYP3P//xPOuyww9LDDz+ck/IiZpFEjBARDwlIQAISqB+BRrsQXnXVVYmJ2UUXXZQmTZqUE08y0L7sZS+rHyBrLAEJSKBEIASsL3zhCwnb+tlnn825Aoly2HzzzeUlAQlIQAISyAQYL1gQ/u///u90zz335MgGbGwci/TAavKSRAghebC+853vpAMPPDDvMMW26AcffHB63/vel0F6SEACEpBA/QiUBSx+/+Uvf5k+85nPpKuvvjotuuiiaZdddkn7779/eslLXlI/QNZYAhKQQAMBC9GKhWAmIexISI5AxCyS83pIQAISkIAEQsAipyy7e997771p/vnnT4ccckj+XQGrxTuCeMVBcsl99tkn3XfffelFL3pRVv/Ic4KANdHua77SEpCABCTQewKNdiE844wz0gEHHJBuvvnmPFZ86lOfSrvuumtafPHFe19gSyABCUigDwggYBFave+++6bHH388vfzlL0+HH354ev/7398HpbMIEpCABCTQDwSws8mViAbDLt+k5vjKV76SPvzhDytgtWogwLHF7/nnn58+/vGP5/jLhRdeOIP74he/mBZYYIHnXa6Y1Q+vu2WQgAQk0H0CjXJg/fCHP8zeunfffXf2ujriiCNyGOHkyZO7XyCfIAEJSGAACJC4nY0udt999zwpQeCn38TO9pCABCQgAQlAAEciBCsi3x577LG0yCKL5Ki4t7/97T1xIBqIHFjx6rBbyg033JCz3t9yyy3ZfY3tHL/1rW9lJbB4KGD5gZOABCRQDwJlAYvfv/71rydyu7DhB4nbTzzxxLT22munhRZaqB5QrKUEJCCBUQgwKbn00kvTu9/97vTHP/4x5wv89Kc/nb1XexEWYoNJQAISkED/EWCTD0LNCTFHjyGy4dRTT00bb7yxAlaz5orJCaLUn//85zR9+vR03XXXZWCbbbZZOu2007KAVRStFLD67+W3RBKQgAS6QaAsYDHQIl7hdcX/2LF29uzZWchyUtaNFvCeEpDAIBKgf7zrrrvSFltskebMmZP7x49+9KM5L5abIw1ii1pmCUhAAuNP4Omnn86euYScc5CHHLuanWt7cQyUBxaAcFt729velneWIqRwnXXWST/+8Y/TlClTesHPZ0pAAhKQQI8JFAUsfmaTj89+9rPZvZkJ2WqrrZYuvvjiHHbuIQEJSEAC/0eAheFtttkmXXvttTlMhATueLCyY6uLwb4pEpCABOpNALuacWLPPfdMJ510Upp33nnTqquums4555y05JJL9mScGDgB64knnsiJ27/3ve+lJ598Mq244oo5JvOtb31rnqg42Nb7Q2btJSCB+hEoC1i/+c1v8jjBlr+MCeS++tGPfpRzJTpG1O/9sMYSkMC/E2ARmP7wkUceyTmwyIVFUvcNNtggHXbYYWnddde1v/TFkYAEJFBzAtjYhJqzszffScWx3XbbZU/dJZZYoid0Bk7AIu7yJz/5Sdpvv/1ywkl2TGH3lHLCSScpPXmffKgEJCCBCSeA1wB9Pl/8fN555+VdB2+99da8UsQY8fnPf96QmAlvGR8oAQn0IwEmJNFvshiMx9VRRx2VcwYut9xyub/caaedDLnux8azTBKQgAQmkABjBY5DhxxySPr973+fwwdZJP7gBz/Ys529B07AYscU3Jzf+973pjvuuCOvqAOQpGLE64dwpYA1gW+2j5KABCTQQwIMrpHbCq+CE044IQtYbAvP348//vi8Lbz5r3rYSD5aAhLoGwIIWNjJfMeuJsT6Ax/4QA4TmW+++XIid1bb+dlDAhKQgATqSyDyyn75y19OTz31VFp66aXT97///bT++utnHaYXx8AJWEBihYiQEAZcJi6ED+LGtsIKK+ju3Iu3yGdKQAIS6CGBmIxRBCZgX/rSl7JHAcdiiy2WQ2M22mijPFlzcaOHDeWjJSCBviNAv3jvvffmPFjXX3997iPf+c535k0wmKh4SEACEpBAfQmwQ+0+++yTZsyYke3oNddcM5177rk5fLBXNvVAClhkwick5LjjjstK4Morr5zd2rbddltX2Ov7+bLmEpCABNJVV12Vxwc2+sB7YJNNNsl5EtkphYFXLyxfEglIQALPJ0AeLBL0/uAHP8j95Oqrr55YbZ82bVo+MUK05SYBCUhAAvUhgKPQhRdemPbaa690ww035Gg3Ihqwq3u5MdJACliEiJx66qlpt912Sw8++GCaNGlS3vaXbdN7CbM+r7M1lYAEJNB/BHBzZoWInIh46pJo8nOf+1x63/vel3fU4lDA6r92s0QSkEBvCbAwTEgIdjUCFnY1NvVHPvKRNP/882cBy76zt23k0yUgAQlMNAEchY499thsS5OWAwGLCAfSNzE29OoYSAGLwfW3v/1tete73pWuvvrqHEa43nrr5TDCtddeu2fubL1qRJ8rAQlIoM4EYhfCP/3pT+mAAw7IObCYcC211FLZo+BNb3pTTubuBKzOb4l1l4AEmhGgDyW/7Nvf/vb0hz/8IbFQ/I53vCMdfPDBebdvxX/fHQlIQAL1I8Cu3gceeGD62c9+livPYvBpp52Wpk6d2lO9ZSAFLACyun700UenL37xizmMcPHFF88TFzyxWHX3kIAEJCCBehBg8oX31eWXX549Bu688868sEEel8MPPzwtu+yyGUSvYvXr0QrWUgISGFQC9KEsABAW8r//+7/ZrmanKTZIQsgiHNv+c1Bb13JLQAIS6JzAM888k6MayH91//3354TtRDSwwccyyyzT+Q3H8YqBFLBYGWKwvfHGG/M2v+xGyO9vectbsqBFcjFW2h1sx/FN8VYSkIAE+pQA/T9JJplsffvb305sCz958uSchPg973lPWnDBBfu05BZLAhKQQH8QYLJyxRVX5F2+77nnnlyoHXbYIR122GHp1a9+dX8U0lJIQAISkMCEECDabb/99sveVywKv+pVr0rf+c530oYbbthzu3pgBSzEKfJfHXnkkdkTi9V3lEG8sHbeeeecGZ+QEQ8JSEACEhhuAgys7DSIB+5DDz2UFzTYUYvwl9VWW224K2/tJCABCYwDgfDCItfJd7/73bwI/OIXvzgnc2eTpEUXXXQcnuItJCABCUig3wmQ7wrh6pOf/GR6+OGH83jA4gYLGq94xSt6XvyBFLCgFiEj5MDadddd00033ZT/tsYaa+RVeNRBBayev18WQAISkEBXCdDvE1K+yy675Lh8DkJf8MYlT6Ih5V3F780lIIEhIvDss8+m8847L+299945uoEDe/qoo47K0Q0c5hIcoga3KhKQgARKBLCr0Vc+9alPpcsuuyzrK+SUJcR86623ziHlvT4GVsAKcExcjj/++Ozixio82fGZtLCChMuzYYS9fsV8vgQkIIHxJ8CAyhcrQ9/85jfzF165jAE77rhj3kErcl+N/9O9owQkIIHhI0Cfet9996Wvfe1reacpBC0mKx/72Mdy3hPyzWJXa1sPX9tbIwlIQAIQwPuKxO3Y1c8991weA9jd+xOf+ER65Stf2ReQBl7AQrS6/vrr07777ptmzZqVRSwG2P333z+9+93vzivxrhb1xbtmISQgAQmMGwH6evIh4uK8++67p7/85S8jXrj0/4QQImY50Ro35N5IAhKoAQEmLJdcckn67Gc/m3Ni0c+SsJcJDavvL3nJS0b6VfvXGrwQVlECEqgFgYhoOPPMM3NKJnakJZptvfXWSwcddFDe0bsfvK9ojIEXsKjE008/nc4+++y01157pbvvvju/ZAy2rCCR2H3SpEm1ePGspAQkIIFhJsDgmgeueeZJJBy+/fbbc3w+ixcMsgsvvHB2ed5zzz3zz3oKDPPbYN0kIIFuEGBxgF0Iv//97+dQbDyy6F+nTJmSvvrVr6Zp06al+eefPz/aBeJutID3lIAEJDDxBFismD17dvrwhz+c5syZkxcv8LjC+/YDH/hATtweixa9XrwYCgGLwZYwkuOOOy7nv3rkkUcyYJL3Ekay2Wab5QTvHhKQgAQkMLgEImyQGtxwww05dPxXv/pVnmwxsP7Hf/xHnnCtsMIKI5Xs9SA7uLQtuQQkUEcCsVCAcHX44YenE044IS8UI2IhXuGZtdZaa43kF6SPjWuKvOx76/j2WGcJSGBQCIRNHYvCv/nNb7JYdcEFF2TxCgcghKtPf/rT2TGon/r3oRCwAEoj3HbbbXnXKXajYrBlZeiNb3xjFrVIPulW6oPykbKcEpCABP6dAP08gypuzYSznHLKKbmvZ/DdaKONRlyc3cDDt0cCEpBA5wRiQhOeVSTwRbDiO4vF9LVTp07NdjWLxBGmrYDVOWuvkIAEJNBrAvTrc+fOzemY2BQPEYvch3jZYlezKMyCRXlBotcLFEMhYMXAycSGrPmHHnpomjlzZm4QYjXZmZAdVTbffPMcVuIhAQlIQAKDRwCxikGW8PBzzz03/e1vf8uD6nLLLZcOOeSQtN122/VNfP7g0bXEEpCABFIWqjgQsZjIsBr/pS99KXu78j8Wg9/85jenPfbYI+dEiTQdxdX8WFguhnErcvl2SUACEugNAfrf8JYtik9PPPFEXqBgUeLCCy/Mi8QciFekZiKKDS2l3H8rYI1DO0ajxK3YApjQwauuuipnz2cQfsMb3pCz55MTi8TucTRr0HEolreQgAQkIIFxIEA/jVj161//Ou+Mdf755+eJFQPoSiutlBco3va2t6VFFlkkP63XA+s4VNlbSEACEugJASYwZeHp1FNPzYsEt956ay4TXq7Y1YSWbLLJJnnzpGKId7Hg2OCNxCv76p40rw+VgARqRKCscxQ1E1IuXXTRRemoo44a0UwQq8h3SH+/7bbbjtjTClhdfmkAzCo9KuKXv/zldOmll2ZPLAbbV7/61Xlnwne84x150sPfFLC63CDeXgISkMAYCNBH//GPf0w///nP04knnpiuueaaLF4xKaIfJ2H7zjvvPJJMWPFqDLC9VAISkMC/0nIAImzkJ598Mi8cHHHEEbkP5u/0wauuumracccd0zvf+c609NJLj/TDRTGrnPRXTyxfMQlIQAITQwBHnmJajfCwZdM7FiZ+8pOf5LBBtBL66vXXXz8vCm+66abP2wRPAavL7RWDJg2GuzMucQy6NAwHq0S4PiNk4R7H78VBusvF8/YSkIAEJNAmASZN1113Xfrxj3+c2Nb33nvvHemv11577bTPPvvkQXaxxRYbuaMCVptwPU0CEpBACwLY0zH5iXBCIhzYiZCQk/CCffnLX5430GBxmMlPs1Qd0Te7cOxrJwEJSGBiCETuwggfZNOjiy++OC8Io4888MADeUGCnFfrrrtuFq+mT5/+vML146LDUOTACsrlFR8G3ptuuil961vfysl+H3vssZFGImfKW9/61vTe9743rbLKKm3tUlgOVSw+l5+dOE3Mh9GnSEACw02AEBZWhxCu8LwibIVBlz6YpMGEguN1xaSJ/CvFwdV+eLjfDWsnAQlMHAEmP5HQnacS4XDzzTenr3zlK+mkk04ayZfF5Oc1r3lNXlDAribBexz9su36xFHzSRKQgAS6T6CZLlF+MufRl2NLf//7308sRNxxxx15gSK8aUnDQc6r173udc/b9K5fw7+HSsCiwcqgmQj99re/TWeddVbeCviuu+4aWTV60YtelFZeeeW8YrTlllvmAZeVIwbiGLCLk6FQMeMZcU78PtrEqd0XrfuvvE+QgAQk0BmBRv1cK+Go2f/K/WAsPOAl+8wzz6Tbb789Jw3mC7fmv/zlLyO7X73yla/MoSqErDBZIudVv+2M0hlVz5aABCQwWAToq2+55Za84zeLDL/73e9y4l9sYrxhmQBtuOGG2a4mzJt+OuzqKnZwq7GkLJINFklLKwEJ1JlAO4uvrTSGRvY0PLGL0SzwkiWSAeEKHeTyyy/PGyGRU5aD0MJlllkm7bTTTmn77bfPfXd5F28FrAl6Q5tNssiyT1L3gw8+OLs+MwDHxGmBBRZIr3jFK/I2kexUSGghHloMxrFFcIhjxcSWUaV+iwudINQ+RgISkMDIokFZSGrmclxcCGDSw3kPPfRQTtDOAHvJJZekP/3pT9njKg764uWXXz7tv//+aauttkosPpQHWScyvowSkIAEuk+APpyvxx9/PK/ksyssod6Rb5Z+HcHqVa96VSLUGyELuxo7G5ua/ry8OByTqe6X3idIQAIS6D8C7YhZ9LvhMRUhgSFYhZdVbMJx33335QTtZ599drr66qsTvyNocR72M19rrrlm3ogDz1kWGiI3eDt0RnPaaeceYzlnaD2wGsXa4/r8+9//Psd8krgMRfKvf/3ryMuAkMXE6CUveUlORsnKEQkqV1xxxbxzIVsHk52fr2h8vvMsBuTiz/FC8b3oft3rBh/Ly+K1EpBAPQk0EqPibzGgQiYmNnxnEC1+4arMF/0w4dyECNIH43F15513pgcffDB7W7HYEEkmGVCXXXbZHI+/3Xbb5b540UUXfd4OWeUWsY+t5ztqrSUgge4ToG+mH0eI4mAlf86cOemcc87JHlm33XZb/ht9PzYxUQ3kml1iiSXyRkqvfe1rs13NIjF2ddjTjWzrELriezkUsdjX2+93v+19ggQkML4EyrZ1cYE3bOuiMBU2Nv0rCwZ80R/zHfsZb1j6YL6IPsOufvjhh0dScNAn4yVLP7zNNtvkNBzsOEgqjk6PXve5Qydg0QBFl7qYCBVFJM6hYY877rgcw8/qP5MmzuGliKMogoWoxaC75JJLJpJWTp48OQ/MTLIWWmih/J2XoCxwFUMSY/Wp0YvSzE2v05fK8yUgAQmMlUCx/yv2i8XBlJ8J+2PwZGWHL8QpvKdYnednBk+SRNLPspsgwhUrQbEKFIN0cXLCYgFCFR6xH/3oR9Mb3/jGEY+rcui2AtZYW9rrJSABCbRHIBYnYsE2bG76c0JTyDk7c+bM3OczbhQXOCLqIfpwFoxZlMCmRtzCzn7xi1+cbWv6f+xpxgLsa+xo7OdYPOZnbO04uGfZztembq9NPUsCEpg4AmHrRl8aT47FgVj4xbaOEEBsakIBWRzAtg67mmgFvlgIfuSRR0YWf6NfLvaP9KVLLbVUzv/9oQ99KC8kcBRt/U4oKGB1Qmscz+UFQbQiidns2bPTpZdemu655548wcIrC0UzXoAIG4yQwhChYsAMD6w4r7xKVMynFecUB9ZmP49jdb2VBCQggcoEiqHZxf4tXJhjIA5xK87ne3hexWQmJjTl5MBMVogqldf+AAAEm0lEQVTFZ5FgvfXWyy7NK6ywQp7IFCcqClaVm9ELJSABCXSNAAsZTLJI8j5r1qwsaOFdy+6xTLpiDChOqhCk6N9DnCra0Y1+jmsbpfPoWsW8sQQkIIFxINBI9CkL7UX7uShuhZ0dtnOEA4YHVvk+aA8sBiBasVAwderUtMkmm2TvK+zt8KIdh2r15BZD6YHVKUleBjwFrrnmmpyHheSUf/jDH9Kf//zn7DWA8hmZ+rl30Rsh1MvRVnrK4paiVaet5PkSkMBEEWgVi9/of83yXUUiySg3E5VwkSa0hBV4vFlJzs4Ayxa+bKrB34o5rlr1r71eBZqoNvE5EpCABPqdQHhZ0c9jP1955ZX5i8Vi7Or7778/LxKzgBw5EItiVIwZrWzkZn3+aHZ4p+wcWzol5vkSkEC7BBp5PhUXi7nPaLZvLCJzLvY1kWBEhuHNimfrKquskoUrchGSg3CYDgWsf+VtiUEToYoVpAh1YcCN3CwMvLjvMfCymhQufbj5hQIacanx4sVgHt/j5WmksI72sg7Ti2ddJCCBwSBQNuIj31+UPn6PDS/4nXAP3JXJK8hXhIMQHkL8PblP+GJliNARcg6yUsQ9ihtnRJ/IZKhZckknGYPxHllKCUigHgQijUfYw/yO3UyUA3losaUJeyHkBZErQmKwqfEqIE8idnXY1jEOYGeH6FX25mpmU3NtcZLX7RYojkeOTd2m7f0lMFgEQgto1Ddg42I/R/8ZtnWETyNQ8TM2NWHV2NXxhWCFTf2yl70sb56BTU1EA4JW0bt1sGi1Lq0CVkHAKquhxd8RrkiQxoAbcagMsvwcSdQiVIbvkXsL/MXQmbKApWg1TB8n6yKB4SfAoMpAWvQqjbwkEU4dwlUIWXhb4bKMxxWrQ4hY7bovR1his10Hh5+4NZSABCQwOARiAlZeuC16WiFUIVghYGFfY1uHgBW5X7CxQ7DiXpEbpvxz0Y4eby+sKtTLaUQUsqpQ9BoJDA+BosDerI8KoSlE97CrI6829nSIWAhY2NQs/GJPRz7ucm7CuNfwkPy/mihgDWOrWicJSEACEpCABCQgAQlMMIEQsIrCUrMiFBeKRwuXiXsoCE1wg/o4CUhg4AiUwxEHrgKjFFgBa9ha1PpIQAISkIAEJCABCUigxwQ68YgqCl+Nit1qQtaPolYnde9xM/l4CUhgCAn0Y784XpgVsMaLpPeRgAQkIAEJSEACEpCABEYItNoUJE5q5bVVFoLKk7J+naQpYPkhkIAEekWgX/vF8eKhgDVeJL2PBCQgAQlIQAISkIAEJFCJQLuiz7BPzirB8yIJSEACNSGggFWThraaEpCABCQgAQlIQAIS6GcCrUIJhz2vSz+3i2WTgAQk0C8EFLD6pSUshwQkIAEJSEACEpCABCQgAQlIQAISkEBDAgpYvhgSkIAEJCABCUhAAhKQgAQkIAEJSEACfU1AAauvm8fCSUACEpCABCQgAQlIQAISkIAEJCABCShg+Q5IQAISkIAEJCABCUhAAhKQgAQkIAEJ9DUBBay+bh4LJwEJSEACEpCABCQgAQlIQAISkIAEJPD/ABW977bqQ+TOAAAAAElFTkSuQmCC;" vertex="1" parent="1">
          <mxGeometry x="80" y="50" width="620" height="318.78" as="geometry" />
        </mxCell>
      </root>
    </mxGraphModel>
  </diagram>
</mxfile>
